<svg width="87" height="87" viewBox="0 0 87 87" fill="none" xmlns="http://www.w3.org/2000/svg">
<g filter="url(#filter0_d_82_875_teal)">
<path d="M38.6941 3.09841C41.5396 1.44975 45.0498 1.44975 47.8952 3.09841L76.0707 19.4232C78.9032 21.0643 80.6469 24.09 80.6469 27.3635V60.0694C80.6469 63.3429 78.9032 66.3686 76.0707 68.0097L47.8952 84.3345C45.0498 85.9831 41.5396 85.9831 38.6941 84.3345L10.5186 68.0097C7.68622 66.3686 5.94247 63.3429 5.94247 60.0694V27.3635C5.94247 24.09 7.68623 21.0643 10.5186 19.4232L38.6941 3.09841Z" fill="#E6FAF8"/>
<path d="M39.7676 4.95142C41.9491 3.68744 44.6407 3.68744 46.8223 4.95142L74.9971 21.2756C77.1686 22.5338 78.5059 24.8538 78.5059 27.3635V60.0696C78.5058 62.5792 77.1685 64.8983 74.9971 66.1565L46.8223 82.4817C44.6407 83.7457 41.9491 83.7457 39.7676 82.4817L11.5918 66.1565C9.42057 64.8983 8.08404 62.579 8.08398 60.0696V27.3635C8.08398 24.8539 9.42033 22.5338 11.5918 21.2756L39.7676 4.95142Z" stroke="#2DD4BF" stroke-width="4.28247"/>
</g>
<defs>
<filter id="filter0_d_82_875_teal" x="5.33072" y="1.25016" width="77.7634" height="86.7679" filterUnits="userSpaceOnUse" color-interpolation-filters="sRGB">
<feFlood flood-opacity="0" result="BackgroundImageFix"/>
<feColorMatrix in="SourceAlpha" type="matrix" values="0 0 0 0 0 0 0 0 0 0 0 0 0 0 0 0 0 0 127 0" result="hardAlpha"/>
<feOffset dx="0.917673" dy="0.917673"/>
<feGaussianBlur stdDeviation="0.764728"/>
<feComposite in2="hardAlpha" operator="out"/>
<feColorMatrix type="matrix" values="0 0 0 0 0 0 0 0 0 0 0 0 0 0 0 0 0 0 0.25 0"/>
<feBlend mode="normal" in2="BackgroundImageFix" result="effect1_dropShadow_82_875_teal"/>
<feBlend mode="normal" in="SourceGraphic" in2="effect1_dropShadow_82_875_teal" result="shape"/>
</filter>
</defs>
</svg>
