<svg id="Layer_1" enable-background="new 0 0 512 512" viewBox="0 0 512 512" xmlns="http://www.w3.org/2000/svg"><g><path d="m353.3 280.2h39.8c.1 0 .2-.1.2-.2v-47.9c0-.1-.1-.2-.2-.2h-39.8c-.1 0-.1-.1-.2-.1-.7-2.9-1.6-5.8-2.6-8.6-2.3-6.6-5.2-12.9-8.8-18.8 0-.1 0-.1 0-.2l28.1-28.2c.1-.1.1-.2 0-.2l-33.6-33.8c-.1-.1-.2-.1-.2 0l-28.2 28.1c-.1.1-.1.1-.2 0-5.9-3.5-12.2-6.5-18.8-8.8-2.8-1-5.7-1.9-8.6-2.6-.1 0-.1-.1-.1-.2v-39.8c0-.1-.1-.2-.2-.2h-47.8c-.1 0-.2.1-.2.2v39.8c0 .1-.1.1-.1.2-2.3.6-4.6 1.3-6.9 2-7.2 2.4-14.2 5.5-20.5 9.4-.1 0-.1 0-.2 0l-28.2-28.1c-.1-.1-.2-.1-.2 0l-33.8 33.8c-.1.1-.1.2 0 .2l28.1 28.2c.1.1.1.1 0 .2-3.8 6.4-7 13.2-9.3 20.4-.8 2.3-1.4 4.6-2 6.9 0 .1-.1.1-.2.1h-39.8c-.1 0-.2.1-.2.2v48c0 .1.1.2.2.2h39.8c.1 0 .1.1.2.1.7 2.9 1.6 5.8 2.6 8.5 2.3 6.6 5.2 13 8.8 18.8v.2l-28.3 28.2c-.1.1-.1.2 0 .2l33.8 33.8c.1.1.2.1.2 0l28.2-28.1c.1-.1.1-.1.2 0 5.8 3.6 12.1 6.5 18.8 8.8h.1c2.8 1 5.6 1.9 8.5 2.6.1 0 .1.1.1.2v39.8c0 .1.1.2.2.2h47.8c.1 0 .2-.1.2-.2v-39.8c0-.1.1-.1.1-.2 2.3-.6 4.7-1.3 6.9-2 7.2-2.3 14.1-5.5 20.4-9.3h.2l28.2 28.1c.1.1.2.1.2 0l33.8-33.8c.1-.1.1-.2 0-.2l-28.1-28.1c-.1-.1-.1-.1 0-.2 3.9-6.4 7-13.3 9.4-20.5.8-2.3 1.4-4.6 2-6.8.1-.3.2-.3.2-.3zm-45.3-14.4c-4 21.4-20.8 38.3-42.2 42.2-3.1.6-6.5.9-9.8.9-4.3 0-8.5-.5-12.5-1.5-19.2-4.6-34.4-19.8-39-39-1-4-1.5-8.2-1.5-12.5 0-3.4.3-6.6.9-9.8 4-21.4 20.9-38.3 42.3-42.3 3.1-.6 6.4-.9 9.8-.9 1.8 0 3.6.1 5.3.3 22.6 2.3 41.7 19.2 46.5 41.4.8 3.6 1.2 7.4 1.2 11.3 0 3.5-.4 6.7-1 9.9z" fill="#2a428c"/><path d="m242.9 382.3v-37.9l-8.9-2c-2-.5-4.4-1.2-7.2-2.2l-1.8-.6c-5.2-1.9-10.2-4.3-14.9-7.1l-2.7-1.6h-7.8l-3.4 3.3-20.5 20.4-18.5-18.5 26.7-26.6-4.6-7.7c-3.1-5.1-5.7-10.7-7.7-16.5-.9-2.7-1.7-5.2-2.3-7.6l-2.1-8.4-8.8-.1h-28.9v-26.2h37.5l2.3-8.5c.5-2 1.1-4.1 1.8-6.1 2-6.3 4.8-12.4 8.3-18.2l4.5-7.4-6.1-6.3-20.4-20.5 18.5-18.5 23.7 23.7h4.7 3.2l2.8-1.8c5.4-3.3 11.6-6.1 18-8.2 2-.6 4.1-1.2 6.2-1.8l8.3-2.1.1-8.7v-28.9h26.1v37.3l8.1 2.5c2.8.7 5.2 1.4 8 2.4 5.6 1.9 11.3 4.6 16.7 7.8l2.6 1.6h7.7l3.3-3.3 20.5-20.4 18.5 18.5-26.4 26.5 4.2 7.5c3.3 5.4 5.9 11 7.9 16.8 1 2.9 1.7 5.3 2.3 7.6l2 8.4 8.8.1h28.9v26.1h-37.5l-2.3 8.5c-.5 1.9-1 4-1.7 6-2.2 6.6-5 12.8-8.3 18.3l-4.3 7.1 5.6 6.3 20.8 20.8-18.4 18.5-23.7-23.7h-4.7-3l-2.7 1.5c-6 3.6-12.1 6.4-18.2 8.3-2.2.7-4.3 1.3-6.3 1.8l-8.3 2.1-.1 8.7v28.9h-26.1zm13.1-190.3c-3.8 0-7.7.4-11.7 1-25.9 4.9-46.5 25.4-51.3 51.2-.7 3.8-1.1 7.8-1.1 11.8 0 5.2.6 10.3 1.8 15.2 5.6 23.4 23.7 41.4 47.1 47.1 4.8 1.2 9.9 1.8 15.1 1.8 4 0 8-.4 11.9-1.1 25.6-4.8 46.2-25.3 51-51.1l.2-1.1c.6-3.6.9-7.2.9-10.8 0-4.5-.5-9.1-1.5-13.6-5.8-26.7-28.9-47.3-56.2-50.1-1.9-.2-4.1-.3-6.2-.3z" fill="#3c58a0"/><path d="m180.5 393.4c9.2 31.1 1.4 66.2-23.1 90.7-23.9 24-57.8 31.9-88.2 23.9l53.6-53.6c3.4-3.4 3.4-8.8.1-12.1l-26.5-26.5-26.6-26.6c-3.4-3.3-8.8-3.3-12.2 0l-53.6 53.6c-8-30.5-.1-64.2 23.8-88.1 24.6-24.6 59.6-32.3 90.7-23.1l42.7-42.7c2.3 6.7 5.2 13 8.8 18.9l-28.3 28.3 34.1 34.1 28.4-28.3c5.9 3.6 12.2 6.6 18.9 8.8z" fill="#bec8f7"/><path d="m484.2 157.4c-24.6 24.6-59.6 32.3-90.8 23.1l-42.7 42.7c-2.3-6.6-5.2-13-8.8-18.9l28.3-28.4-17-17-17.2-17-28.4 28.3c-5.9-3.5-12.3-6.6-18.9-8.8l42.7-42.7c-9.2-31.1-1.5-66.2 23.1-90.8 24-23.9 57.8-31.9 88.3-23.9l-53.6 53.6c-3.4 3.4-3.4 8.8 0 12.1l53.1 53.1c3.4 3.4 8.8 3.3 12.1-.1l53.6-53.5c8 30.5.1 64.3-23.8 88.2z" fill="#bec8f7"/><g fill="#fcad6d"><path d="m224.9 160.7c-7.3 2.4-14.2 5.6-20.6 9.4l-28.4-28.3-15.5 15.5-18.6 18.6 28.3 28.4c-3.9 6.4-7.1 13.3-9.4 20.5l-63-63 33.7-33.7 30.4-30.4z"/><path d="m447.5 383.4-64.1 64.1-96.3-96.3c7.3-2.3 14.1-5.5 20.5-9.4l28.4 28.3 34.1-34.1-28.3-28.3c3.9-6.4 7.1-13.4 9.4-20.7z"/><path d="m127.9 63.8-30.2 30.3-33.9 33.9-20.6-20.5c-17.7-17.7-17.7-46.4 0-64.1.7-.7 1.4-1.4 2.2-2 8.5-7.7 19.3-11.4 29.9-11.4 11.6 0 23.3 4.4 32.1 13.3z"/></g><path d="m223.2 350.7-42.7 42.7c9.2 31.1 1.4 66.2-23.1 90.7-23.9 24-57.8 31.9-88.2 23.9l53.6-53.6c3.4-3.4 3.4-8.8.1-12.1l-26.5-26.5 62.5-62.6 17 17 28.4-28.3c5.8 3.5 12.2 6.5 18.9 8.8z" fill="#bec8f7" opacity=".7"/><path d="m484.2 157.4c-24.6 24.6-59.6 32.3-90.8 23.1l-42.7 42.7c-2.3-6.6-5.2-13-8.8-18.9l28.3-28.4-17-17 62.6-62.6 26.5 26.5c3.4 3.4 8.8 3.3 12.1-.1l53.6-53.5c8 30.5.1 64.3-23.8 88.2z" fill="#bec8f7" opacity=".7"/><g fill="#fd995b"><path d="m45.4 41.3 52.3 52.8-33.9 33.9-20.6-20.5c-17.7-17.7-17.7-46.4 0-64.1.7-.8 1.4-1.5 2.2-2.1z"/><path d="m170.1 204.3c-3.9 6.4-7.1 13.3-9.4 20.5l-63-63 33.7-33.7 28.9 29.2-18.6 18.6z"/><path d="m415.7 415.1-32.4 32.4-96.3-96.3c7.3-2.3 14.1-5.5 20.5-9.4l28.4 28.3 17.7-17.7z"/></g><path d="m131.4 128.2-33.7 33.7-33.9-34 33.9-33.8z" fill="#e80054"/><path d="m161.9 97.7-30.5 30.5-33.7-34.1 30.2-30.3z" fill="#ff4155"/><path d="m482 482-98.6-34.5 32.3-32.4z" fill="#e80054"/><path d="m482 482-66.3-66.9 31.8-31.7z" fill="#ff4155"/></g></svg>