<?xml version="1.0" encoding="utf-8"?>
<!-- Generator: Adobe Illustrator 27.2.0, SVG Export Plug-In . SVG Version: 6.00 Build 0)  -->
<svg version="1.1" id="Layer_1" xmlns="http://www.w3.org/2000/svg" xmlns:xlink="http://www.w3.org/1999/xlink" x="0px" y="0px"
	 viewBox="0 0 1000 350" style="enable-background:new 0 0 1000 350;" xml:space="preserve">
<style type="text/css">
	.st0{fill:#000100;}
	.st1{fill:#5D5D5D;}
	.st2{fill:#141414;}
	.st3{fill:#FEE000;}
	.st4{fill:#D8F0FC;}
	.st5{fill:#01ADED;}
	.st6{fill:#0178A4;}
	.st7{fill:#9EDDF7;}
	.st8{fill:#7E7E7E;}
	.st9{fill:none;stroke:#FFFFFF;stroke-width:2.8982;stroke-miterlimit:10;}
	.st10{fill:#FFFFFF;}
</style>
<g>
	<path class="st0" d="M63.3,335.9c1.6-8.7,3.1-17.5,4.7-26.2c0.8-4.5,1.6-9,2.4-13.5c-0.6-0.7-1.2-1.4-1.8-2.1
		c-8.8-9.8-15.4-20.8-19-33.5c-2.7-9.6-3.5-19.4-2.4-29.3c0.9-8.7,3.3-16.9,6.7-24.9c0.2-0.4,0.4-0.9,0.6-1.5
		c-0.8-0.4-1.6-0.8-2.3-1.1c-10.7-4.7-20.5-10.9-29.1-18.9c-5.9-5.4-11-11.5-14.9-18.6c-3.2-5.6-5.4-11.6-6.1-18
		c-1.2-11.1,2-20.8,9.8-29c5.5-5.8,12.3-9.8,19.7-12.8c7.9-3.2,16.1-5.3,24.4-6.8c13.2-2.4,26.6-3.1,39.9-2.4
		c16.1,0.8,32,3.4,47.5,8.1c0.2,0.1,0.5,0.1,0.8,0.2c0.2-0.3,0.5-0.6,0.7-1c7.6-14.1,19.5-22.7,34.8-26.9c6.2-1.7,12.6-2.3,19-2.1
		c0.8,0,1.6,0,2.5,0c0-0.6,0-1,0-1.4c-2-21.9,2.7-42.4,13.1-61.6c1.5-2.8,3.5-4.7,6.7-5.4c6.7-1.5,12.7,4.8,10.9,11.4
		c-0.3,1-0.8,2-1.3,3c-5,9.1-8.5,18.7-10.2,29c-1.2,7.1-1.6,14.2-0.9,21.3c0.3,2.5,0.5,4.9,0.8,7.5c16.4,5.5,30,14.9,41,28.2
		c1.9,0.2,3.8-0.4,5.6-0.8c17.2-3.8,31.9-12,44.3-24.4c1.5-1.5,3-2.8,5.1-3.3c3.9-1,7.8,0.5,10,3.8c2.1,3.2,2.1,7.4-0.1,10.5
		c-0.4,0.6-0.9,1.2-1.5,1.7c-14.1,14.3-30.8,24-50.2,29c-0.7,0.2-1.4,0.4-2.4,0.7c0.3,0.9,0.7,1.8,1,2.7c4,9.6,6,19.5,5.4,29.9
		c-0.8,13.3-5.6,24.8-14.8,34.4c-0.6,0.6-1.3,1-2,1.6c0.6,1,0.9,1.6,1.3,2.2c13.1,20.6,22.3,42.8,27.2,66.7
		c2.3,11,3.4,22.2,3.1,33.4c-0.2,8-1.4,15.9-4.4,23.4c-1.5,3.6-3.3,7.1-5.7,10.2c-5.8,7.5-13.5,11.9-22.9,13.3
		c-9.6,1.5-18.8-0.3-27.8-3.8c-11.8-4.6-22-11.6-31-20.4c-2.9-2.8-5.4-5.8-8.2-8.7c-0.5-0.5-1-1.1-1.5-1.7c-0.7,0.6-1.4,1.1-2,1.6
		c-10,8.3-21.3,14.1-34,17c-13.4,3-26.7,2.3-39.9-1.6c-4.9-1.5-9.5-3.3-14.1-5.6c-0.7-0.3-1.3-0.6-2.1-1c-0.8,0.4-1.5,0.7-2.2,1.1
		c-10.8,5.4-21.7,10.8-32.5,16.3c-0.3,0.1-0.6,0.3-0.9,0.4C64,336,63.6,335.9,63.3,335.9z M247.7,291.1c0,3.8,0.1,7.6,0.1,11.4
		c0,0.4-0.1,0.8-0.1,1.2c-0.3,4.2-0.6,8.4-1,12.6c-0.2,2.4-0.6,4.7-1,7.2c3.3,0.8,6.5,1,9.7,0.8c8.8-0.6,15.6-6.5,17.3-15.2
		c1.1-2.9,1.8-6.6,1.5-9c-9.1-1.3-17.7-4.1-25.5-9.2c-0.2-0.2-0.5-0.3-0.7-0.5C247.9,290.7,247.8,290.9,247.7,291.1z M30.6,127.9
		c-2.5,1.2-4.5,3.1-6.2,5.2c-1.8,2.1-3,4.5-3.6,7.3c-1.3,6.3,0.8,11.9,3.8,17.4c0.9-0.4,1.6-0.7,2.3-1c3.3-1.4,6.7-2.9,10-4.3
		c2.4-1,4.8-1.8,7.2-2.7c1.8-0.5,3.7-1,5.5-1.5c1.9-0.5,3.7-1,6-1.7c-7.8-6.4-13-14.1-17-22.9C35.7,124.9,32.9,126,30.6,127.9z
		 M228.1,316.1c0.2,0.1,0.5,0.3,0.7,0.4c2.9,2.1,6.4,3.9,8.9,4.4c0.1-0.5,0.3-1.1,0.4-1.7c0.8-5.7,1.4-11.4,1.5-17.1
		c0.2-6.4-0.2-12.8-0.8-19.1c-0.9-9.3-2.6-18.4-4.8-27.4c-0.2-0.8-0.5-1.6-0.9-2.8c-8,14.6-20.1,23.5-35.5,28.5
		c1.6,3,3.1,5.9,5.1,8.4c0.1,0.3,0.2,0.6,0.4,0.9c5.1,7.8,11.1,14.8,18.4,20.7C223.6,313,225.9,314.5,228.1,316.1z M36.7,171.9
		c0.6,0.6,1.3,1.3,2,1.9c4.3,3.5,8.8,6.7,13.7,9.4c5.3,2.9,10.8,5.4,16.6,7c3,1.1,6.1,1.9,9.5,2.4c0.2-8,1.4-15.7,4.3-23
		c2.9-7.3,7.2-13.8,13.1-19.7c-1,0-1.5,0-1.9,0c-2.6,0.1-5.1,0.3-7.7,0.4c-8.6,0.5-17.1,1.8-25.6,3.6c-9.9,2.2-19.5,5.2-28.7,9.5
		c-0.8,0.4-1.7,0.6-2.4,1.4C31.9,167.5,34,170,36.7,171.9z M223.3,252.7c3-3.9,4.8-8.5,6-13.1c-3.6-13-18-45-22.4-50
		c-2.5,2.8-4.9,5.6-6.6,8.9c-2.1,2.9-3.6,6.2-5,9.4c-4.3,10-6.5,20.5-7.2,31.3c-0.7,11.3,0.8,22.2,5.1,32.6c0.2,0.6,0.6,1.1,0.8,1.7
		c9.2-2.8,17.3-7.2,23.9-14.1C220,257.4,221.9,255.3,223.3,252.7z M98.6,159.4c-0.8,1-1.8,2-2.5,3.1c-6.5,9.3-9.2,19.7-9.2,31
		c0,0.1,0.2,0.3,0.4,0.5c1.1,0.1,2.2,0.3,3.4,0.3c4.9,0.2,9.8,0,14.6-0.8c17.2-2.7,32.5-9.8,45.7-21c2.3-1.9,4.2-4.2,6.3-6.3
		c2.7-2.6,5.6-6.6,6.4-9.1c-17.8-4.2-35.8-6.6-54-7.1C105.4,152.4,101.6,155.5,98.6,159.4z M72.5,210.5c-0.2,0.3-0.4,0.5-0.5,0.7
		c-4,7.7-6.4,15.8-6.8,24.5c-0.5,10.7,1.9,20.8,6.7,30.3c9.6,18.8,29.3,35,49.8,41c9.2,2.7,18.6,3.4,28.1,1.6
		c11.7-2.2,21.7-7.6,30.5-15.4c0.4-0.4,0.8-0.8,1.2-1.3c-1.3-2.6-2.6-5.2-3.8-7.6c-23.5,3.2-44.6-2.1-63.4-16.2
		c-18.7-14.1-29.8-32.8-33.1-56.1C78.2,211.5,75.4,211,72.5,210.5z M274.9,291.9c0-1,0-1.7,0-2.3c-0.3-10.7-1.9-21.1-4.6-31.5
		c-4.2-16.1-10.5-31.2-18.7-45.7c-4.4-7.7-9.2-15-15-21.6c-1.9-2.2-4-4.2-6.3-6c-3.9-3.2-11-4.1-16.4-0.5
		c16.6,29.3,28.4,60.4,32.7,93.9C254.2,286.6,263.9,290.1,274.9,291.9z M166.8,149.1c0.2-0.3,0.4-0.4,0.4-0.6c1.2-6.5-1-12.5-6.6-16
		c-3.2-2-6.7-3.7-10.2-5.1c-17.1-6.7-34.8-10.1-53-11.4c-9-0.6-18.1-0.5-27.1,0.4c-7.4,0.7-14.8,2-22,4c-0.5,0.1-1,0.4-1.6,0.6
		c4.8,9.9,11,18.4,21.1,23C101.3,138.9,134.2,141.6,166.8,149.1z M179.7,197.2c-5.6-3.3-10.7-7.2-15.4-11.5
		c-12.3,10.7-26.3,18.1-41.7,22.9c0.3,2.6,1,4.9,1.8,7.2c3.5,9.5,9.9,16.6,18.4,21.8c6.3,3.9,13.2,6,20.7,6.4c2,0.1,3.9,0,5.9-0.5
		C169.7,227.4,172.9,212,179.7,197.2z"/>
	<path class="st1" d="M63.3,335.9c0.3,0,0.7,0.1,1,0.1C63.5,336.7,63.4,336.7,63.3,335.9z"/>
	<path class="st3" d="M72.5,210.5c2.8,0.5,5.7,1,8.7,1.5c3.3,23.3,14.4,42,33.1,56.1c18.8,14.1,39.9,19.4,63.4,16.2
		c1.2,2.4,2.5,5,3.8,7.6c-0.5,0.5-0.8,0.9-1.2,1.3c-8.8,7.9-18.8,13.2-30.5,15.4c-9.5,1.8-18.8,1.1-28.1-1.6
		c-20.5-6-40.2-22.2-49.8-41c-4.8-9.5-7.2-19.6-6.7-30.3c0.4-8.7,2.8-16.8,6.8-24.5C72.1,211,72.3,210.8,72.5,210.5z"/>
	<path class="st4" d="M274.9,291.9c-11-1.8-20.7-5.3-28.3-13.7c-4.3-33.5-16.2-64.5-32.7-93.9c5.4-3.6,12.5-2.8,16.4,0.5
		c2.2,1.8,4.3,3.9,6.3,6c5.9,6.6,10.7,14,15,21.6c8.2,14.4,14.5,29.6,18.7,45.7c2.7,10.3,4.2,20.8,4.6,31.5
		C274.9,290.2,274.9,290.9,274.9,291.9z"/>
	<path class="st4" d="M166.8,149.1c-32.6-7.5-65.6-10.3-99.1-4.9c-10.1-4.7-16.3-13.1-21.1-23c0.6-0.2,1.1-0.5,1.6-0.6
		c7.2-2,14.5-3.3,22-4c9-0.9,18.1-1,27.1-0.4c18.2,1.3,36,4.7,53,11.4c3.6,1.4,7,3.1,10.2,5.1c5.6,3.5,7.8,9.5,6.6,16
		C167.2,148.7,167,148.8,166.8,149.1z"/>
	<path class="st3" d="M179.7,197.2c-6.8,14.8-10,30.2-10.3,46.3c-2,0.5-3.9,0.6-5.9,0.5c-7.4-0.3-14.4-2.4-20.7-6.4
		c-8.5-5.3-14.9-12.3-18.4-21.8c-0.8-2.3-1.5-4.6-1.8-7.2c15.4-4.8,29.4-12.2,41.7-22.9C169,190,174,193.9,179.7,197.2z"/>
	<path class="st4" d="M157.3,166.1c-2.1,2.1-4.1,4.4-6.3,6.3c-13.3,11.3-28.5,18.3-45.7,21c-4.9,0.8-9.7,1-14.6,0.8
		c-1.2,0-2.3-0.2-3.4-0.3c-0.2-0.2-0.4-0.4-0.4-0.5c0-11.2,2.7-21.7,9.2-31c0.8-1.1,1.7-2,2.5-3.1c9.5,0,19,0.4,28.5,1.5
		c4.4,0.5,8.9,1,13.3,1.8C146,163.7,151.7,164.9,157.3,166.1z"/>
	<path class="st4" d="M223.3,252.7c-1.4,2.6-3.3,4.8-5.3,6.8c-6.6,6.8-14.7,11.3-23.9,14.1c-0.3-0.6-0.6-1.1-0.8-1.7
		c-4.3-10.5-5.8-21.4-5.1-32.6c0.6-10.9,2.9-21.3,7.2-31.3c1.4-3.3,2.9-6.5,5-9.4c0.4,0.5,0.8,1.1,1.1,1.6
		c6.7,11.9,12.4,24.3,16.9,37.2C220.1,242.4,221.6,247.6,223.3,252.7z"/>
	<path class="st5" d="M202.7,289.7c-2-2.5-3.5-5.4-5.1-8.4c15.4-5,27.6-13.9,35.5-28.5c0.3,1.1,0.7,1.9,0.9,2.8
		c2.2,9,3.9,18.2,4.8,27.4c0.6,6.4,1,12.7,0.8,19.1c-0.2,5.7-0.7,11.4-1.5,17.1c-0.1,0.6-0.3,1.1-0.4,1.7c-2.4-0.5-6-2.2-8.9-4.4
		c0-0.2,0-0.3-0.1-0.5c0.3-2.5,0.8-5.1,0.9-7.6c0.4-8.4,0.4-16.9-0.5-25.3c-0.2-2.3-0.6-4.5-1-7.2
		C220.4,282.4,212,286.8,202.7,289.7z"/>
	<path class="st5" d="M36.7,171.9c-2.7-2-4.8-4.5-7.1-7.1c0.7-0.8,1.6-1.1,2.4-1.4c9.2-4.2,18.8-7.3,28.7-9.5
		c8.4-1.8,17-3.1,25.6-3.6c2.6-0.2,5.1-0.3,7.7-0.4c0.5,0,0.9,0,1.9,0c-5.9,6-10.2,12.4-13.1,19.7c-2.9,7.3-4.1,15-4.3,23
		c-3.4-0.5-6.5-1.3-9.5-2.4c0-1.1,0-2.2,0.1-3.2c0.3-2.9,0.5-5.8,0.9-8.6c0.7-5.3,2.3-10.3,4.3-15.2c0.2-0.5,0.2-1,0.4-1.7
		c-0.8,0.1-1.4,0.1-2,0.1c-7.8,1.3-15.6,2.9-23.2,5.4C45.2,168.4,40.8,169.8,36.7,171.9z"/>
	<path class="st4" d="M202.7,289.7c9.3-2.8,17.7-7.3,25.4-13.8c0.4,2.7,0.7,4.9,1,7.2c0.9,8.4,0.9,16.9,0.5,25.3
		c-0.1,2.6-0.6,5.1-0.9,7.6c-0.2,0-0.4,0.1-0.6,0.1c-2.2-1.6-4.5-3-6.6-4.7c-7.2-5.9-13.2-13-18.4-20.7
		C202.9,290.3,202.8,290,202.7,289.7z"/>
	<path class="st4" d="M36.7,171.9c4.1-2.1,8.5-3.5,12.9-5c7.6-2.5,15.3-4.1,23.2-5.4c0.6-0.1,1.1-0.1,2-0.1
		c-0.2,0.7-0.2,1.2-0.4,1.7c-2,4.9-3.6,10-4.3,15.2c-0.4,2.9-0.6,5.7-0.9,8.6c-0.1,1.1-0.1,2.1-0.1,3.2c-5.9-1.6-11.3-4.2-16.6-7
		c-4.9-2.7-9.4-5.8-13.7-9.4C38,173.2,37.3,172.6,36.7,171.9z"/>
	<path class="st5" d="M223.3,252.7c-1.7-5.1-3.2-10.3-5-15.3c-4.5-12.9-10.2-25.3-16.9-37.2c-0.3-0.6-0.7-1.1-1.1-1.6
		c1.7-3.3,4.1-6.2,6.6-8.9c4.5,5.1,18.8,37,22.4,50C228.1,244.2,226.3,248.7,223.3,252.7z"/>
	<path class="st5" d="M157.3,166.1c-5.7-1.1-11.3-2.4-17-3.4c-4.4-0.8-8.8-1.3-13.3-1.8c-9.5-1.1-18.9-1.5-28.5-1.5
		c3-4,6.8-7,11.1-9.5c18.2,0.6,36.2,3,54,7.1C162.9,159.5,160,163.5,157.3,166.1z"/>
	<path class="st4" d="M272.7,309.2c-1.7,8.7-8.5,14.6-17.3,15.2c-3.2,0.2-6.4-0.1-9.7-0.8c0.3-2.5,0.7-4.8,1-7.2
		c0.4-4.2,0.7-8.4,1-12.6c0-0.4,0.1-0.8,0.1-1.2c0.5,0.2,0.9,0.4,1.4,0.6C256.7,306.6,264.5,308.6,272.7,309.2z"/>
	<path class="st4" d="M44.2,149.8c-2.4,0.9-4.8,1.8-7.2,2.7c-3.4,1.4-6.7,2.8-10,4.3c-0.7,0.3-1.5,0.7-2.3,1
		c-3.1-5.5-5.2-11.1-3.8-17.4c0.6-2.7,1.8-5.1,3.6-7.3c1.8-2.1,3.7-4,6.2-5.2c1.5,4.2,3.5,8.1,5.9,11.9
		C38.7,143.4,41.1,146.9,44.2,149.8z"/>
	<path class="st5" d="M272.7,309.2c-8.2-0.6-16-2.6-23.5-6.1c-0.4-0.2-0.9-0.4-1.4-0.6c0-3.8-0.1-7.6-0.1-11.4c0.3,0,0.7,0,1-0.1
		c7.8,5.1,16.4,7.9,25.5,9.2C274.5,302.5,273.8,306.3,272.7,309.2z"/>
	<path class="st5" d="M44.2,149.8c-3.1-2.9-5.5-6.3-7.7-9.9c-2.3-3.8-4.4-7.7-5.9-11.9c2.3-1.9,5.1-3,8.1-4.2
		c4,8.8,9.2,16.6,17,22.9c-2.3,0.6-4.2,1.2-6,1.7C47.9,148.8,46,149.3,44.2,149.8z"/>
	<path class="st6" d="M248.7,291c-0.3,0-0.7,0-1,0.1c0.1-0.2,0.2-0.4,0.3-0.5C248.2,290.7,248.4,290.9,248.7,291z"/>
	<path class="st7" d="M228.1,316.1c0.2,0,0.4-0.1,0.6-0.1c0,0.2,0,0.3,0.1,0.5C228.6,316.3,228.3,316.2,228.1,316.1z"/>
	<g>
		<path class="st0" d="M641.8,149.3c2.9,0.9,6,1.5,8.8,2.7c12.3,4.9,20.5,13.7,24.3,26.3c3.4,11.1,3.2,22.3-0.4,33.3
			c-3.8,11.7-11.7,19.9-22.5,25.4c-6.3,3.2-13,5-19.9,6.1c-5.4,0.8-10.9,1.1-16.4,1.1c-28.8,0-57.6,0-86.5,0.1
			c-0.7,0-1.5-0.1-2.4-0.1c0-17.1,0-34.1,0-51c-0.1,0-0.3-0.1-0.4-0.1c-0.3,0.4-0.5,0.7-0.8,1.1c-7.2,11.9-17.4,20.8-28.8,28.5
			c-12.6,8.5-26.4,14.2-41.3,17.3c-16.7,3.4-32.9,1.9-48.4-5.3c-12.7-5.9-22.1-15.4-28.9-27.6c-5.4-9.7-8.4-20.1-9.2-31.2
			c-0.9-12.9,0.3-25.4,5.2-37.4c8.9-21.6,23.2-38.3,44-49.3c7-3.7,14.3-6.1,22.2-6.8c9.8-0.9,19.2,0.6,27.8,5.9
			c4.9,3,8.9,6.9,11.8,11.9c3.2,5.5,4.2,11.4,3.5,17.7c-0.7,6.8-3.3,12.8-7.1,18.4c-4.9,7.1-10.8,13.3-17.5,18.7
			c-16.1,13.1-34.4,21.7-54.7,26.2c-2.1,0.5-4.2,0.8-6.4,1.2c-0.9,0.2-1.8,0.2-2.6,1.1c0.1,0.5,0.1,1.2,0.3,1.8
			c1.2,4.1,2.9,8.1,5.1,11.9c5.9,10.1,14.7,16.2,26,19.1c10.2,2.6,20.4,2,30.5-0.8c12.6-3.4,23.8-9.5,34.3-17.1
			c14-10.2,25.4-22.8,35.3-37.4c0-32.6,0-65.5,0-98.5c0.7-0.1,1.3-0.2,1.8-0.2c29.2,0,58.5,0,87.7,0.1c9.8,0,19.4,1.5,28.4,5.5
			c9,3.9,16.2,9.7,20.8,18.5c2.9,5.3,4.3,11.1,4.9,17.1c0.6,6.3,0.1,12.4-1.6,18.5c-3,10.5-9.4,18.2-19,23.2c-2.6,1.3-5.3,2.3-8,3.5
			c-0.4,0.2-0.8,0.3-1.3,0.5c0.3,0.2,0.4,0.4,0.5,0.4C641.3,149.3,641.6,149.3,641.8,149.3z M393.7,164.2c0.8,0.1,1.3,0.2,1.7,0.1
			c0.7,0,1.5-0.1,2.2-0.2c15.4-2.7,29.6-8.4,42.6-17.2c7.1-4.8,13.5-10.5,18.8-17.3c2.1-2.8,4-5.7,5.1-9c0.8-2.3,1.2-4.7,0.6-7.1
			c-0.8-3.3-2.8-5.6-5.7-7.2c-4.4-2.6-9.2-3.3-14.2-2.6c-6.3,0.8-12,3.1-17.3,6.5c-8.9,5.7-16.4,13-22.2,21.9
			c-5.8,8.8-10.1,18.3-11.5,28.9C393.7,161.9,393.7,162.9,393.7,164.2z M569.7,207.9c0.5,0.1,0.6,0.1,0.8,0.1c13.4,0,26.9,0,40.3,0
			c2.8,0,5.6-0.5,8.3-1.4c6.3-2.2,10.3-6.4,12.1-12.8c0.9-3.2,1-6.4,0.6-9.6c-1-8.2-6.1-13.9-14.1-15.8c-2.6-0.6-5.2-1-7.9-1
			c-12.8-0.1-25.6,0-38.3,0c-0.6,0-1.1,0.1-1.8,0.1C569.7,180.9,569.7,194.4,569.7,207.9z M569.7,132.3c0.8,0,1.3,0,1.9,0
			c12.3,0,24.6,0,36.9,0c1.6,0,3.3-0.2,4.9-0.5c7.1-1.4,11.9-6.1,13.2-13.2c0.4-2.1,0.5-4.3,0.2-6.4c-0.7-6.7-4.7-11.3-11.2-13.2
			c-2.5-0.7-5-1-7.6-1c-12.2,0-24.4,0-36.6,0c-0.5,0-1.1,0.1-1.7,0.2C569.7,109.5,569.7,120.7,569.7,132.3z"/>
		<path class="st0" d="M744,244c-0.5,0-1,0.1-1.5,0.1c-13.3,0-26.6,0-39.9,0c-0.4,0-0.8,0-1.2,0c-0.1-0.2-0.2-0.2-0.2-0.3
			c-0.1-0.1-0.1-0.1-0.1-0.2c0-60.1,0-120.3,0-180.4c0-0.3,0.1-0.6,0.1-1.1c0.7,0,1.3-0.1,2-0.1c25.3,0,50.7,0,76,0
			c9.9,0,19.7,1,29.2,4c4.9,1.5,9.6,3.6,14,6.3c11.1,6.9,18.3,16.8,21.6,29.3c3.6,13.6,3.5,27.3-0.6,40.8
			c-5.3,17.6-16.9,29.3-34,35.7c-7,2.6-14.4,4.1-21.8,4.5c-4.6,0.3-9.1,0.4-13.7,0.4c-8.9,0.1-17.8,0-26.7,0c-0.8,0-1.6,0-2.7,0
			c0,1.1,0,2,0,2.8c0,18.3,0,36.5,0,54.8c0,0.9-0.1,1.8-0.1,2.7C744.3,243.7,744.2,243.8,744,244z M744.7,99.3
			c-0.4,7-0.2,44.4,0.2,46.5c0.4,0,0.8,0.1,1.2,0.1c10.6,0,21.3,0,31.9,0c2,0,4-0.2,5.9-0.6c8.1-1.6,13.9-6.1,16.3-14.3
			c1.6-5.4,1.7-11,0.3-16.5c-1.8-7.4-6.6-11.9-13.7-14c-3.2-0.9-6.5-1.2-9.9-1.2c-10,0-20.1,0-30.1,0
			C746.1,99.3,745.4,99.3,744.7,99.3z"/>
		<path class="st0" d="M997.7,100.4c-3.1,0-6.3,0.1-9.4,0.1c-24.8,0-49.7,0-74.5,0c-0.7,0-1.5,0.1-2.3,0.1c0,11.9,0,23.7,0,35.5
			c0,0,0.1,0.1,0.2,0.1c0.1,0,0.1,0.1,0.2,0.1c0.1,0,0.2,0,0.2,0c0.2,0,0.5,0,0.7,0c24.5,0,49,0,73.5,0.1c0.1,0,0.2,0,0.2,0
			c0.1,0,0.2,0,0.2,0c0.1,0,0.1,0.1,0.2,0.1c0.4,1.9,0.5,33.7,0.1,37.1c-25.1,0-50.2,0-75.1,0c-0.3,0.2-0.3,0.2-0.4,0.3
			c-0.1,0.1-0.1,0.1-0.1,0.2c0,23.2,0,46.3,0,69.6c-0.6,0.1-1.1,0.2-1.5,0.2c-13.5,0-26.9,0-40.4,0c-0.3,0-0.7-0.1-1-0.1
			c-0.1-0.2-0.3-0.3-0.4-0.5c0-0.8-0.1-1.7-0.1-2.5c0-58.7,0-117.5,0-176.2c0-0.8,0-1.6,0-2.3c0.2-0.2,0.3-0.2,0.3-0.3
			c0.1,0,0.1-0.1,0.2-0.1c0.7,0,1.5,0,2.2,0c42.3,0,84.7,0,127.2,0c0.1,0.5,0.2,0.9,0.2,1.3c0,12,0,23.9,0,35.9
			c0,0.2-0.1,0.5-0.1,0.7C998,100.1,997.8,100.3,997.7,100.4z"/>
		<path class="st8" d="M641.8,149.3c-0.2,0-0.5,0-0.7,0c-0.1,0-0.2-0.2-0.5-0.4c0.5-0.2,0.9-0.4,1.3-0.5
			C641.9,148.6,641.8,149,641.8,149.3z"/>
		<path class="st2" d="M744,244c0.2-0.2,0.3-0.3,0.5-0.5C744.3,243.7,744.2,243.8,744,244z"/>
		<path class="st2" d="M868.2,243.5c0.1,0.2,0.3,0.3,0.4,0.5C868.5,243.8,868.3,243.7,868.2,243.5z"/>
		<g>
			<path d="M369.8,282.4h39.7v8.5h-30.4v14.6h26.9v8.5h-26.9v21.7h-9.4V282.4z"/>
			<path d="M427.7,309.2v-0.2c0-15,11.6-27.6,28-27.6c16.4,0,27.8,12.4,27.8,27.5v0.1c0,15-11.6,27.6-28,27.6
				C439.1,336.7,427.7,324.3,427.7,309.2z M473.7,309.2v-0.2c0-10.4-7.6-18.9-18.2-18.9c-10.6,0-18,8.4-18,18.8v0.1
				c0,10.4,7.6,18.9,18.2,18.9C466.3,328,473.7,319.6,473.7,309.2z"/>
			<path d="M504.7,313.1v-30.7h9.4v30.4c0,9.9,5.1,15.2,13.5,15.2c8.3,0,13.4-5,13.4-14.8v-30.7h9.4v30.3c0,15.9-9,24-23,24
				C513.6,336.6,504.7,328.6,504.7,313.1z"/>
			<path d="M574,282.4h8.7l28.6,36.9v-36.9h9.2v53.4h-7.9l-29.4-38v38H574V282.4z"/>
			<path d="M644.9,282.4h19.9c16.8,0,28.4,11.5,28.4,26.5v0.1c0,15-11.6,26.7-28.4,26.7h-19.9V282.4z M654.3,290.9v36.3h10.5
				c11.2,0,18.5-7.6,18.5-18v-0.2c0-10.4-7.3-18.2-18.5-18.2H654.3z"/>
			<path d="M730.4,282h8.7l23.5,53.8h-9.9l-5.4-12.9H722l-5.5,12.9h-9.6L730.4,282z M743.8,314.6l-9.2-21.4l-9.2,21.4H743.8z"/>
			<path d="M788.7,291.1h-17v-8.7h43.4v8.7h-17v44.7h-9.4V291.1z"/>
			<path d="M836,282.4h9.4v53.4H836V282.4z"/>
			<path d="M868,309.2v-0.2c0-15,11.6-27.6,28-27.6s27.8,12.4,27.8,27.5v0.1c0,15-11.6,27.6-28,27.6S868,324.3,868,309.2z
				 M914,309.2v-0.2c0-10.4-7.6-18.9-18.2-18.9c-10.6,0-18,8.4-18,18.8v0.1c0,10.4,7.6,18.9,18.2,18.9
				C906.6,328,914,319.6,914,309.2z"/>
			<path d="M945.9,282.4h8.7l28.6,36.9v-36.9h9.2v53.4h-7.9l-29.4-38v38h-9.2V282.4z"/>
		</g>
	</g>
</g>
</svg>
