<?xml version="1.0" encoding="utf-8"?>
<!-- Generator: Adobe Illustrator 27.2.0, SVG Export Plug-In . SVG Version: 6.00 Build 0)  -->
<svg version="1.1" id="Layer_1" xmlns="http://www.w3.org/2000/svg" xmlns:xlink="http://www.w3.org/1999/xlink" x="0px" y="0px"
	 viewBox="0 0 1000 350" style="enable-background:new 0 0 1000 350;" xml:space="preserve">
<style type="text/css">
	.st0{fill:none;}
	.st1{fill:#FFFFFF;}
	.st2{fill:#5D5D5D;}
	.st3{fill:#FEE000;}
	.st4{fill:#D8F0FC;}
	.st5{fill:#01ADED;}
	.st6{fill:#0178A4;}
	.st7{fill:#9EDDF7;}
	.st8{fill:none;stroke:#FFFFFF;stroke-width:0;stroke-linecap:round;stroke-linejoin:round;}
</style>
<g>
	<path class="st0" d="M664.8,290.8h-10.5v0.1v36.3h10.5c11.2,0,18.5-7.6,18.5-18V309C683.3,298.6,676,290.8,664.8,290.8z"/>
	<path class="st0" d="M617.7,168.4c-2.6-0.6-5.2-1-7.9-1c-12.8-0.1-25.6,0-38.3,0c-0.6,0-1.1,0.1-1.8,0.1c0,13.4,0,26.9,0,40.4
		c0.5,0.1,0.6,0.1,0.8,0.1c13.4,0,26.9,0,40.3,0c2.8,0,5.6-0.5,8.3-1.4c6.3-2.2,10.3-6.4,12.1-12.8c0.9-3.2,1-6.4,0.6-9.6
		C630.8,176,625.7,170.3,617.7,168.4z"/>
	<polygon class="st0" points="725.4,314.6 743.8,314.6 734.6,293.2 	"/>
	<path class="st0" d="M316.7,80.5c-1.7,0.4-2.9,1.4-4.4,2.9c-12.6,12.6-27.8,21-45,24.8c-0.3,0.1-0.6,0.1-1,0.2
		c-1.5,0.4-3.3,0.8-5.1,0.6l-0.6-0.1l-0.4-0.5c-10.8-13.1-24.4-22.4-40.3-27.7l-0.9-0.3l-0.1-0.9c-0.1-1.2-0.3-2.4-0.4-3.6
		c-0.1-1.3-0.3-2.6-0.4-3.9c-0.7-6.9-0.4-14,0.9-21.7c1.7-10.2,5.1-19.8,10.4-29.5c0.5-0.9,0.9-1.8,1.2-2.7c0.7-2.6,0-5.3-1.9-7.3
		c-1.9-2-4.6-2.8-7.3-2.2c-2.5,0.6-4.3,2-5.7,4.7c-10.5,19.4-14.8,39.8-12.9,60.8l0,0.1V77h-3.9c-6.7-0.2-12.9,0.5-18.6,2
		c-15.6,4.3-26.7,12.9-33.9,26.2c-0.2,0.3-0.4,0.6-0.6,0.9c-0.1,0.1-0.1,0.2-0.2,0.2l-0.6,0.9l-1.1-0.4c-0.1,0-0.1,0-0.2,0
		c-0.2,0-0.4-0.1-0.6-0.2c-14.9-4.5-30.7-7.2-47.1-8c-13.6-0.7-26.9,0.1-39.6,2.4c-9.2,1.7-17,3.9-24.1,6.7
		c-8.1,3.3-14.3,7.3-19.2,12.5c-7.4,7.8-10.6,17.2-9.4,27.8c0.6,5.8,2.6,11.7,5.9,17.4c3.6,6.6,8.4,12.6,14.6,18.3
		c8.2,7.6,17.8,13.9,28.7,18.6c0.7,0.3,1.6,0.7,2.4,1.1l1.1,0.6l-0.4,1.2c-0.2,0.7-0.4,1.2-0.7,1.7c-3.6,8.4-5.7,16.4-6.6,24.4
		c-1.1,9.7-0.3,19.4,2.4,28.8c3.4,11.9,9.5,22.7,18.7,32.9l2.3,2.6L69.4,310c-0.8,4.4-1.6,8.7-2.4,13.1c-0.7,3.7-1.3,7.4-2,11.1
		c7.8-4,15.8-8,23.5-11.8l8.2-4.1c0.4-0.2,0.9-0.5,1.4-0.7c0.2-0.1,0.5-0.2,0.8-0.4l0.6-0.3l0.6,0.3c0.8,0.4,1.4,0.7,2,1
		c4.5,2.2,9,4,14,5.5c13.2,3.9,26.4,4.4,39.2,1.6c12.1-2.8,23.4-8.4,33.4-16.7c0.3-0.2,0.6-0.5,0.9-0.7c0.4-0.3,0.7-0.6,1.1-0.9
		l1.1-1l0.9,1.1c0.5,0.6,1,1.2,1.4,1.6c1.2,1.2,2.3,2.4,3.3,3.6c1.6,1.7,3.2,3.5,4.9,5.1c9.4,9.2,19.4,15.7,30.5,20.1
		c9.8,3.8,18.7,5,27,3.7c9.1-1.4,16.5-5.6,22-12.8c2.1-2.7,3.8-5.8,5.5-9.9c2.7-6.7,4.1-14.2,4.3-22.9c0.3-10.8-0.7-21.9-3.1-33.1
		c-4.8-23.3-13.9-45.5-27-66.2c-0.2-0.4-0.5-0.7-0.7-1.2c-0.2-0.3-0.4-0.6-0.6-1l-0.6-1l0.9-0.8c0.3-0.3,0.6-0.5,1-0.8
		c0.4-0.3,0.7-0.5,1-0.8c8.7-9.1,13.6-20.4,14.4-33.5c0.6-9.8-1.2-19.4-5.3-29.3l0-0.1c-0.1-0.4-0.3-0.9-0.5-1.3
		c-0.2-0.5-0.4-0.9-0.5-1.4l-0.5-1.4l1.4-0.4c1-0.3,1.7-0.5,2.4-0.7c19-4.9,35.7-14.5,49.6-28.6l0.1-0.1c0.4-0.4,0.9-0.8,1.2-1.4
		c1.9-2.6,1.9-6.2,0.1-8.9C323.2,80.9,319.9,79.7,316.7,80.5z M180.4,196l1.1,0.7l-0.5,1.2c-6.5,14.2-9.9,29.2-10.2,45.7l0,1.1
		l-1.1,0.3c-1.6,0.4-3.2,0.6-4.9,0.6c-0.5,0-0.9,0-1.4,0c-7.8-0.4-15-2.6-21.4-6.6c-9.2-5.6-15.6-13.2-19-22.5
		c-0.8-2.3-1.6-4.7-1.9-7.5l-0.1-1.2l1.1-0.4c15.9-5,29.4-12.4,41.2-22.6l1-0.8l1,0.9C170.1,189.1,175.2,192.9,180.4,196z
		 M105.5,194.9c-3.6,0.6-7.3,0.9-11.3,0.9c-1.2,0-2.4,0-3.6-0.1c0,0,0,0,0,0c-0.8,0-1.6-0.1-2.4-0.2c-0.3,0-0.7-0.1-1-0.1l-0.5,0
		l-0.4-0.4c-0.4-0.4-0.8-0.8-0.8-1.5c0-12.3,3.1-22.7,9.5-31.8c0.5-0.8,1.1-1.5,1.7-2.2c0.3-0.3,0.6-0.6,0.8-1
		c3-3.9,6.9-7.2,11.5-9.8l0.3-0.2l0.4,0c18.1,0.5,36.3,2.9,54.3,7.1l1.5,0.4l-0.5,1.5c-1,3-4.2,7.2-6.8,9.7c-0.7,0.7-1.3,1.4-2,2.1
		c-1.4,1.5-2.8,3-4.4,4.3C138.5,185,122.8,192.2,105.5,194.9z M46.2,119.6c0.2-0.1,0.4-0.2,0.6-0.2c0.3-0.1,0.7-0.3,1.1-0.4
		c7-1.9,14.5-3.3,22.2-4c8.9-0.9,18.1-1,27.3-0.4c19.8,1.4,37.3,5.2,53.4,11.5c3.8,1.5,7.4,3.3,10.4,5.2c5.9,3.7,8.6,10.2,7.3,17.4
		c-0.1,0.6-0.4,0.9-0.5,1.1c0,0-0.1,0.1-0.1,0.1l-0.6,0.8l-1-0.2c-35.3-8.1-67.5-9.8-98.5-5.1l-0.4,0.1l-0.4-0.2
		c-11.9-5.4-18.1-16.1-21.8-23.7l-0.7-1.5L46.2,119.6z M27.4,158.2c-0.7,0.3-1.3,0.6-2.2,1l-1.2,0.5l-0.6-1.2
		c-2.8-5.1-5.4-11.3-3.9-18.4c0.7-3,1.9-5.6,3.9-7.9c2-2.5,4.2-4.3,6.5-5.5c2.3-1.9,5-3,7.8-4.1l1.8-0.7l0.6,1.3
		c4.3,9.5,9.6,16.6,16.6,22.4l2.1,1.7L56,148c-2.1,0.6-3.9,1.1-6.1,1.7c-0.9,0.2-1.8,0.5-2.7,0.7c-0.9,0.2-1.8,0.5-2.7,0.7
		c-0.8,0.3-1.6,0.6-2.4,0.9c-1.6,0.6-3.2,1.1-4.7,1.8c-1.6,0.7-3.3,1.4-5,2.1C30.8,156.7,29.1,157.4,27.4,158.2L27.4,158.2z
		 M51.7,184.5c-4.6-2.5-9.1-5.6-13.9-9.5c-0.7-0.6-1.4-1.3-2-1.9c-2.7-1.9-4.8-4.4-7.1-7.1l-1-1.2l0.8-0.9c0.7-0.8,1.6-1.2,2.3-1.5
		c0.2-0.1,0.4-0.2,0.6-0.2c8.7-4.1,18.2-7.2,29-9.6c9.3-2,17.8-3.2,25.8-3.6c1.3-0.1,2.6-0.1,3.9-0.2c1.3-0.1,2.6-0.2,3.9-0.2l5.5,0
		l-2.5,2.5c-5.7,5.7-9.9,12-12.8,19.2c-2.6,6.6-4,13.9-4.2,22.5l0,1.6l-1.6-0.2c-3.4-0.5-6.6-1.3-9.7-2.5
		C63.3,190.1,57.8,187.8,51.7,184.5z M182.6,292.8c-0.4,0.6-0.9,1-1.3,1.4c-9.6,8.5-19.8,13.6-31.3,15.8c-3.6,0.7-7.2,1-10.9,1
		c-5.9,0-11.9-0.9-17.9-2.6c-21-6.1-40.9-22.5-50.7-41.7c-5-10-7.4-20.4-6.9-31c0.4-8.6,2.7-16.8,7-25.1c0.1-0.2,0.3-0.4,0.4-0.6
		c0.1-0.1,0.1-0.2,0.2-0.3l0.5-0.8l3.8,0.7c1.9,0.3,3.8,0.7,5.8,1l1,0.2l0.1,1.1c3.2,22.7,14.2,41.3,32.5,55.1
		c18.3,13.7,39.2,19.1,62.3,15.9l1-0.1l4.7,9.4L182.6,292.8z M193.1,275.3l-0.4-1.3c-0.1-0.2-0.2-0.4-0.3-0.6
		c-0.2-0.3-0.3-0.6-0.5-1c-4.2-10.1-5.9-21.3-5.2-33.2c0.8-11.7,3.2-22.1,7.3-31.8c1.5-3.4,3-6.6,5.1-9.6c1.8-3.4,4.2-6.2,6.8-9.1
		l1.1-1.2l1.1,1.2c4.6,5.3,19.1,37.4,22.7,50.6l0.1,0.4l-0.1,0.4c-1.4,5.5-3.5,10-6.2,13.5c-1.6,2.9-3.7,5.2-5.6,7
		c-6.3,6.6-14.3,11.4-24.5,14.4L193.1,275.3z M241,302.1c-0.1,5-0.6,10.5-1.5,17.3c-0.1,0.4-0.2,0.8-0.3,1.2
		c-0.1,0.2-0.1,0.4-0.1,0.6l-0.3,1.4l-1.4-0.3c-2.6-0.5-6.2-2.3-9.4-4.6c-0.1-0.1-0.2-0.1-0.3-0.2c-0.1-0.1-0.2-0.1-0.3-0.1
		l-0.2-0.1c-0.7-0.5-1.5-1-2.2-1.6c-1.5-1-3-2.1-4.5-3.3c-7.1-5.7-13.2-12.6-18.7-21c-0.2-0.4-0.4-0.7-0.5-1
		c-1.9-2.4-3.3-5.1-4.8-7.9l-1.1-2.1l1.6-0.5c15.9-5.2,27.3-14.3,34.7-27.8l1.6-2.9l1.3,4c0.3,0.8,0.5,1.4,0.6,2
		c2.4,9.9,4,18.9,4.8,27.6C241,290.5,241.2,296.6,241,302.1z M274.1,309.5c-1.9,9.2-9.1,15.6-18.6,16.2c-0.8,0.1-1.6,0.1-2.4,0.1
		c-2.7,0-5.3-0.3-7.8-0.9l-1.3-0.3l0.4-2.3c0.3-2.1,0.7-4.1,0.8-6.1c0.4-4.2,0.7-8.4,1-12.5c0-0.2,0-0.5,0.1-0.7c0-0.1,0-0.3,0-0.4
		c0-1.9,0-3.8,0-5.7c0-1.9-0.1-3.8-0.1-5.7v-0.3l0.2-0.3c0.1-0.1,0.1-0.3,0.2-0.5l0.7-2.2l1.7,1.6c0,0,0,0,0.1,0
		c0.1,0.1,0.3,0.2,0.5,0.3c7.1,4.6,15.2,7.5,24.8,8.9l1.1,0.2l0.1,1.1C276,302.7,275.1,306.7,274.1,309.5z M271.7,257.7
		c2.8,10.9,4.4,21.3,4.6,31.8l0,4l-1.7-0.3c-13.3-2.2-22.2-6.5-29.1-14.2l-0.3-0.3l-0.1-0.5c-4-31.3-14.7-61.8-32.5-93.4l-0.7-1.2
		l1.1-0.7c6.2-4.2,14-2.8,18.1,0.6c2.3,1.8,4.5,3.9,6.5,6.2c5.2,6,10.1,12.9,15.2,21.8C261.4,226.8,267.6,241.8,271.7,257.7z"/>
	<path class="st0" d="M608.5,132.3c1.6,0,3.3-0.2,4.9-0.5c7.1-1.4,11.9-6.1,13.2-13.2c0.4-2.1,0.5-4.3,0.2-6.4
		c-0.7-6.7-4.7-11.3-11.2-13.2c-2.5-0.7-5-1-7.6-1c-12.2,0-24.4,0-36.6,0c-0.5,0-1.1,0.1-1.7,0.2c0,11.3,0,22.5,0,34.1
		c0.8,0,1.3,0,1.9,0C583.9,132.3,596.2,132.3,608.5,132.3z"/>
	<path class="st0" d="M455.5,290.1c-10.6,0-18,8.4-18,18.8v0.1c0,10.4,7.6,18.9,18.2,18.9c10.6,0.1,18-8.3,18-18.7V309
		C473.7,298.6,466.1,290.1,455.5,290.1z"/>
	<path class="st0" d="M397.6,164.1c15.4-2.7,29.6-8.4,42.6-17.2c7.1-4.8,13.5-10.5,18.8-17.3c2.1-2.8,4-5.7,5.1-9
		c0.8-2.3,1.2-4.7,0.6-7.1c-0.8-3.3-2.8-5.6-5.7-7.2c-4.4-2.6-9.2-3.3-14.2-2.6c-6.3,0.8-12,3.1-17.3,6.5
		c-8.9,5.7-16.4,13-22.2,21.9c-5.8,8.8-10.1,18.3-11.5,28.9c-0.1,0.9-0.1,1.9-0.1,3.2c0.8,0.1,1.3,0.2,1.7,0.1
		C396.1,164.3,396.9,164.2,397.6,164.1z"/>
	<path class="st0" d="M640.8,149.1c-0.1,0-0.3,0.1-0.4,0.1c0.3,0.2,0.4,0.4,0.5,0.4c0.4-0.3,0.7-0.3,0.9-0.3c-0.2,0-0.5,0-0.7,0
		C641,149.3,641,149.2,640.8,149.1z"/>
	<path class="st0" d="M204.1,289.2c8.8-2.8,16.7-7.2,24-13.3C220.8,282.1,212.8,286.3,204.1,289.2L204.1,289.2
		C204.1,289.2,204.1,289.2,204.1,289.2z"/>
	<path class="st0" d="M271.2,309.1L271.2,309.1c-7.7-0.7-15-2.7-22-6c0,0,0,0.1,0,0.1c0,0,0,0,0,0
		C256.2,306.4,263.6,308.3,271.2,309.1z"/>
	<path class="st0" d="M895.8,290.1c-10.6,0-18,8.4-18,18.8v0.1c0,10.4,7.6,18.9,18.2,18.9c10.6,0.1,18-8.3,18-18.7V309
		C914,298.6,906.4,290.1,895.8,290.1z"/>
	<path class="st0" d="M228.1,275.9c0.4,2.7,0.7,4.9,1,7.2C228.9,280.8,228.5,278.6,228.1,275.9z"/>
	<path class="st0" d="M786.8,100.5c-3.2-0.9-6.5-1.2-9.9-1.2c-10,0-20.1,0-30.1,0c-0.7,0-1.4,0-2.1,0c-0.4,7-0.2,44.4,0.2,46.5
		c0.4,0,0.8,0.1,1.2,0.1c10.6,0,21.3,0,31.9,0c2,0,4-0.2,5.9-0.6c8.1-1.6,13.9-6.1,16.3-14.3c1.6-5.4,1.7-11,0.3-16.5
		C798.7,107.1,793.9,102.6,786.8,100.5z"/>
	<path class="st1" d="M177.5,282.9c-23.1,3.1-44.1-2.2-62.3-15.9c-18.4-13.9-29.3-32.4-32.5-55.1l-0.1-1.1l-1-0.2
		c-2-0.3-3.9-0.7-5.8-1l-3.8-0.7l-0.5,0.8c-0.1,0.1-0.1,0.2-0.2,0.3c-0.1,0.2-0.3,0.4-0.4,0.6c-4.3,8.3-6.6,16.5-7,25.1
		c-0.5,10.6,1.8,21,6.9,31c9.8,19.2,29.7,35.6,50.7,41.7c6,1.8,12,2.6,17.9,2.6c3.7,0,7.3-0.3,10.9-1c11.5-2.2,21.7-7.3,31.3-15.8
		c0.4-0.4,0.9-0.9,1.3-1.4l0.6-0.7l-4.7-9.4L177.5,282.9z M180.3,293.2c-8.8,7.9-18.8,13.2-30.5,15.4c-9.5,1.8-18.8,1.1-28.1-1.6
		c-20.5-6-40.2-22.2-49.8-41c-4.8-9.5-7.2-19.6-6.7-30.3c0.4-8.7,2.8-16.8,6.8-24.5c0.1-0.2,0.3-0.4,0.5-0.7c2.8,0.5,5.7,1,8.7,1.5
		c3.3,23.3,14.4,42,33.1,56.1c18.8,14.1,39.9,19.4,63.4,16.2c1.2,2.4,2.5,5,3.8,7.6C181,292.4,180.7,292.8,180.3,293.2z"/>
	<path class="st1" d="M224.5,253.5c2.7-3.6,4.7-8,6.2-13.5l0.1-0.4l-0.1-0.4c-3.6-13.2-18.1-45.3-22.7-50.6l-1.1-1.2l-1.1,1.2
		c-2.6,2.9-5,5.7-6.8,9.1c-2.1,3-3.6,6.2-5.1,9.6c-4.2,9.7-6.6,20.1-7.3,31.8c-0.7,11.9,1,23.1,5.2,33.2c0.1,0.4,0.3,0.7,0.5,1
		c0.1,0.2,0.2,0.4,0.3,0.6l0.4,1.3l1.3-0.4c10.1-3.1,18.1-7.8,24.5-14.4C220.8,258.7,222.9,256.4,224.5,253.5z M194.1,273.6
		c-0.3-0.6-0.6-1.1-0.8-1.7c-4.3-10.5-5.8-21.4-5.1-32.6c0.6-10.9,2.9-21.3,7.2-31.3c1.4-3.3,2.9-6.4,5-9.3c0,0,0,0-0.1-0.1
		c1.7-3.3,4.1-6.2,6.6-8.9c4.5,5.1,18.8,37,22.4,50c-1.2,4.5-3,9-6,13c-1.4,2.6-3.3,4.8-5.3,6.8
		C211.4,266.3,203.3,270.8,194.1,273.6z"/>
	<polygon class="st1" points="228.7,316 228.7,316 228.7,316 	"/>
	<path class="st1" d="M228.7,316c0,0.2,0,0.3,0.1,0.5C228.8,316.3,228.8,316.2,228.7,316z"/>
	<path class="st1" d="M78.3,194l1.6,0.2l0-1.6c0.2-8.6,1.6-15.9,4.2-22.5c2.9-7.2,7-13.5,12.8-19.2l2.5-2.5l-5.5,0
		c-1.3,0.1-2.6,0.1-3.9,0.2c-1.3,0.1-2.5,0.1-3.9,0.2c-8,0.5-16.5,1.7-25.8,3.6c-10.8,2.4-20.3,5.6-29,9.6c-0.2,0.1-0.4,0.2-0.6,0.2
		c-0.7,0.3-1.5,0.7-2.3,1.5l-0.8,0.9l1,1.2c2.2,2.6,4.4,5.1,7.1,7.1c0.6,0.6,1.3,1.3,2,1.9c4.8,3.9,9.4,7,13.9,9.5
		c6.1,3.3,11.6,5.7,16.9,7.1C71.7,192.7,74.9,193.5,78.3,194z M38.8,173.7c-0.8-0.5-1.5-1.1-2.1-1.8c-2.7-2-4.8-4.5-7.1-7.1
		c0.7-0.8,1.6-1.1,2.4-1.4c9.2-4.2,18.8-7.3,28.7-9.5c8.4-1.8,17-3.1,25.6-3.6c2.6-0.2,5.1-0.3,7.7-0.4c0.5,0,0.9,0,1.9,0
		c-5.9,6-10.2,12.4-13.1,19.7c-2.9,7.3-4.1,15-4.3,23c-3.4-0.5-6.5-1.3-9.5-2.4c0,0,0-0.1,0-0.1c-5.9-1.6-11.2-4.2-16.5-7
		C47.6,180.4,43.1,177.3,38.8,173.7z"/>
	<path class="st1" d="M156.3,169.3c0.7-0.7,1.3-1.4,2-2.1c2.6-2.5,5.8-6.7,6.8-9.7l0.5-1.5l-1.5-0.4c-18-4.2-36.2-6.6-54.3-7.1
		l-0.4,0l-0.3,0.2c-4.7,2.6-8.5,5.9-11.5,9.8c-0.3,0.3-0.5,0.6-0.8,1c-0.6,0.7-1.2,1.4-1.7,2.2c-6.4,9.1-9.5,19.5-9.5,31.8
		c0,0.7,0.4,1.1,0.8,1.5l0.4,0.4l0.5,0c0.3,0,0.7,0.1,1,0.1c0.8,0.1,1.6,0.2,2.4,0.2c0,0,0,0,0,0c1.2,0,2.4,0.1,3.6,0.1
		c4,0,7.7-0.3,11.3-0.9c17.3-2.7,32.9-9.9,46.4-21.3C153.5,172.3,154.9,170.8,156.3,169.3z M105.3,193.4c-4.9,0.8-9.7,1-14.6,0.8
		c-1.2,0-2.3-0.2-3.4-0.3c-0.2-0.2-0.4-0.4-0.4-0.5c0-11.2,2.7-21.7,9.2-31c0.8-1.1,1.6-1.9,2.4-3c0,0,0,0,0,0c3-4,6.8-7,11.1-9.5
		c18.2,0.6,36.2,3,54,7.1c-0.7,2.5-3.6,6.5-6.3,9.1c-2.1,2.1-4.1,4.4-6.3,6.3C137.7,183.7,122.5,190.7,105.3,193.4z"/>
	<path class="st1" d="M164.3,183.8l-1,0.8c-11.8,10.2-25.3,17.6-41.2,22.6l-1.1,0.4l0.1,1.2c0.3,2.8,1.1,5.3,1.9,7.5
		c3.4,9.3,9.8,16.9,19,22.5c6.4,4,13.6,6.2,21.4,6.6c0.5,0,0.9,0,1.4,0c1.8,0,3.4-0.2,4.9-0.6l1.1-0.3l0-1.1
		c0.3-16.5,3.6-31.5,10.2-45.7l0.5-1.2l-1.1-0.7c-5.2-3.1-10.3-6.9-15.2-11.3L164.3,183.8z M169.4,243.5c-2,0.5-3.9,0.6-5.9,0.5
		c-7.4-0.3-14.4-2.4-20.7-6.4c-8.5-5.3-14.9-12.3-18.4-21.8c-0.8-2.3-1.5-4.6-1.8-7.2c15.4-4.8,29.4-12.2,41.7-22.9
		c4.7,4.3,9.7,8.2,15.4,11.5C172.9,212,169.7,227.4,169.4,243.5z"/>
	<path class="st1" d="M67.2,145.3l0.4,0.2l0.4-0.1c30.9-4.7,63.1-3,98.5,5.1l1,0.2l0.6-0.8c0,0,0.1-0.1,0.1-0.1
		c0.2-0.2,0.5-0.5,0.5-1.1c1.3-7.2-1.4-13.7-7.3-17.4c-3.1-1.9-6.6-3.7-10.4-5.2c-16.1-6.3-33.6-10.1-53.4-11.5
		c-9.3-0.6-18.5-0.5-27.3,0.4c-7.7,0.7-15.2,2.1-22.2,4c-0.4,0.1-0.8,0.3-1.1,0.4c-0.2,0.1-0.4,0.2-0.6,0.2l-1.6,0.5l0.7,1.5
		C49.1,129.2,55.3,139.9,67.2,145.3z M48.2,120.6c7.2-2,14.5-3.3,22-4c9-0.9,18.1-1,27.1-0.4c18.2,1.3,36,4.7,53,11.4
		c3.6,1.4,7,3.1,10.2,5.1c5.6,3.5,7.8,9.5,6.6,16c0.1,0-0.1,0.1-0.3,0.4c-32.6-7.5-65.6-10.3-99.1-4.9c-10.1-4.7-16.3-13.1-21.1-23
		C47.2,121,47.7,120.7,48.2,120.6z"/>
	<path class="st1" d="M37.5,153.8c1.6-0.7,3.2-1.2,4.7-1.8c0.8-0.3,1.6-0.6,2.4-0.9c0.9-0.2,1.8-0.5,2.7-0.7
		c0.9-0.2,1.9-0.5,2.7-0.7c2.2-0.6,4-1.1,6.1-1.7l2.6-0.8l-2.1-1.7c-7-5.7-12.3-12.8-16.6-22.4l-0.6-1.3l-1.8,0.7
		c-2.8,1.2-5.4,2.2-7.8,4.1c-2.3,1.2-4.5,3-6.5,5.5c-2,2.3-3.3,4.9-3.9,7.9c-1.5,7.1,1.2,13.3,3.9,18.4l0.6,1.2l1.2-0.5
		c0.9-0.4,1.5-0.7,2.2-1l0.1,0c1.7-0.7,3.3-1.4,5-2.2C34.2,155.3,35.8,154.5,37.5,153.8z M27,156.8c-0.7,0.3-1.5,0.7-2.3,1
		c-3.1-5.5-5.2-11.1-3.8-17.4c0.6-2.7,1.8-5.1,3.6-7.3c1.8-2.1,3.7-4,6.2-5.2c0,0,0,0,0,0c2.3-1.8,5-2.9,8-4.1
		c4,8.8,9.2,16.6,17,22.9c-2.3,0.6-4.2,1.2-6,1.7c-1.8,0.4-3.7,0.9-5.5,1.4c-2.4,0.9-4.8,1.8-7.2,2.7
		C33.6,153.9,30.3,155.3,27,156.8z"/>
	<path class="st1" d="M204.1,289.2L204.1,289.2c-0.5,0.1-0.9,0.3-1.4,0.5C203.2,289.6,203.6,289.4,204.1,289.2
		C204.1,289.2,204.1,289.2,204.1,289.2z"/>
	<path class="st1" d="M316,77.7c-2.5,0.6-4.3,2.2-5.8,3.7c-12.2,12.2-26.9,20.3-43.6,24c-0.3,0.1-0.7,0.2-1,0.2
		c-1.2,0.3-2.5,0.6-3.6,0.6c-10.9-13-24.5-22.4-40.4-27.9c-0.1-0.9-0.2-1.8-0.3-2.6c-0.1-1.3-0.3-2.6-0.4-3.9
		c-0.7-6.7-0.4-13.5,0.9-20.9c1.6-9.9,4.9-19.2,10.1-28.6c0.5-1,1.1-2.1,1.4-3.3c1-3.6,0-7.4-2.6-10.1c-2.6-2.7-6.4-3.9-10-3.1
		c-3.4,0.7-5.8,2.7-7.7,6.1c-10.7,19.8-15.2,40.8-13.3,62.2l-1,0c-6.9-0.2-13.4,0.5-19.4,2.2c-16.2,4.4-28.2,13.7-35.7,27.6
		c-15.1-4.6-31.1-7.3-47.6-8.1c-13.9-0.7-27.4,0.1-40.2,2.4c-9.3,1.7-17.4,3.9-24.7,6.9c-8.5,3.4-15.1,7.7-20.2,13.1
		c-8,8.4-11.4,18.6-10.2,30.2c0.7,6.2,2.8,12.5,6.3,18.5c3.8,6.9,8.7,13.1,15.2,19c8.4,7.8,18.3,14.2,29.5,19.2
		c0.3,0.1,0.7,0.3,1,0.5c0,0.1-0.1,0.1-0.1,0.2c-3.7,8.8-6,17-6.8,25.3c-1.1,10.1-0.3,20.1,2.4,29.9c3.5,12.4,9.8,23.5,19.3,34
		l1.4,1.6l-2.3,12.8c-0.8,4.4-1.6,8.7-2.4,13.1c-0.8,4.4-1.5,8.7-2.3,13.1l-0.3,1.7h1.5l0.3,0.6l1.2-0.4c0.2-0.1,0.4-0.2,0.6-0.3
		c0.1,0,0.2-0.1,0.3-0.1l0.2-0.1c8.1-4.1,16.3-8.2,24.3-12.2l8.3-4.1c0.4-0.2,0.9-0.5,1.3-0.7c0.1,0,0.1,0,0.2-0.1
		c0.5,0.3,1,0.5,1.5,0.7c4.5,2.3,9.2,4.1,14.3,5.7c13.7,4,27.4,4.6,40.6,1.6c12.6-2.9,24.2-8.7,34.6-17.3c0.2-0.2,0.5-0.4,0.8-0.6
		c0,0,0.1,0,0.1-0.1c0.2,0.2,0.4,0.5,0.6,0.7c1.1,1.2,2.2,2.3,3.3,3.5c1.6,1.7,3.2,3.5,5,5.2c9.7,9.4,20,16.2,31.5,20.7
		c7.6,3,14.7,4.4,21.5,4.4c2.4,0,4.7-0.2,7.1-0.5c9.8-1.5,17.9-6.1,23.8-13.8c2.2-2.9,4.1-6.2,5.9-10.5c2.8-7,4.3-14.8,4.5-23.9
		c0.3-11-0.8-22.4-3.1-33.7c-4.8-23.6-14.1-46.2-27.4-67.2c-0.2-0.3-0.4-0.6-0.6-1c0.4-0.3,0.8-0.6,1.2-1
		c9.3-9.7,14.4-21.5,15.2-35.3c0.6-10.2-1.2-20.2-5.5-30.5c-0.1-0.4-0.3-0.8-0.5-1.2c0.3-0.1,0.6-0.2,0.9-0.2
		c19.5-5,36.6-14.9,50.8-29.3c0.6-0.5,1.2-1.2,1.7-1.9c2.5-3.5,2.6-8.4,0.1-12.1C325,78.3,320.4,76.6,316,77.7z M63.3,335.9
		c0.3,0,0.7,0.1,1,0.1C63.5,336.7,63.4,336.7,63.3,335.9z M325,92.6c-0.4,0.6-0.8,1-1.2,1.4l-0.1,0.1
		c-13.9,14.1-30.6,23.7-49.6,28.6c-0.7,0.2-1.4,0.4-2.4,0.7l-1.4,0.4l0.5,1.4c0.2,0.5,0.3,0.9,0.5,1.4c0.2,0.4,0.3,0.9,0.5,1.3
		l0,0.1c4.1,9.9,5.9,19.5,5.3,29.3c-0.8,13.1-5.6,24.3-14.4,33.5c-0.3,0.3-0.6,0.5-1,0.8c-0.3,0.2-0.6,0.5-1,0.8l-0.9,0.8l0.6,1
		c0.2,0.4,0.4,0.7,0.6,1c0.3,0.5,0.5,0.8,0.7,1.2c13.1,20.7,22.2,43,27,66.2c2.3,11.1,3.4,22.3,3.1,33.1c-0.2,8.7-1.6,16.2-4.3,22.9
		c-1.7,4.1-3.4,7.2-5.5,9.9c-5.5,7.1-12.9,11.4-22,12.8c-8.4,1.3-17.2,0.1-27-3.7c-11.2-4.3-21.1-10.9-30.5-20.1
		c-1.7-1.6-3.3-3.4-4.9-5.1c-1.1-1.2-2.2-2.4-3.3-3.6c-0.4-0.4-0.9-1-1.4-1.6l-0.9-1.1l-1.1,1c-0.4,0.3-0.8,0.6-1.1,0.9
		c-0.3,0.2-0.6,0.5-0.9,0.7c-10,8.3-21.2,13.9-33.4,16.7c-12.8,2.9-26,2.3-39.2-1.6c-5-1.5-9.5-3.3-14-5.5c-0.7-0.3-1.2-0.6-2-1
		l-0.6-0.3l-0.6,0.3c-0.3,0.1-0.5,0.3-0.8,0.4c-0.5,0.2-1,0.5-1.4,0.7l-8.2,4.1c-7.7,3.9-15.7,7.8-23.5,11.8c0.7-3.7,1.3-7.4,2-11.1
		c0.8-4.4,1.5-8.7,2.4-13.1l2.5-14.2l-2.3-2.6c-9.2-10.2-15.3-21-18.7-32.9c-2.6-9.4-3.4-19.1-2.4-28.8c0.8-8,3-16,6.6-24.4
		c0.2-0.5,0.5-1,0.7-1.7l0.4-1.2l-1.1-0.6c-0.8-0.4-1.6-0.8-2.4-1.1c-10.9-4.8-20.5-11.1-28.7-18.6c-6.2-5.7-11-11.7-14.6-18.3
		c-3.3-5.8-5.3-11.6-5.9-17.4c-1.2-10.7,2-20.1,9.4-27.8c4.8-5.1,11.1-9.2,19.2-12.5c7.1-2.9,15-5.1,24.1-6.7
		c12.6-2.3,25.9-3.1,39.6-2.4c16.3,0.8,32.2,3.5,47.1,8c0.2,0.1,0.5,0.1,0.6,0.2c0.1,0,0.1,0,0.2,0l1.1,0.4l0.6-0.9
		c0.1-0.1,0.1-0.2,0.2-0.2c0.2-0.2,0.4-0.5,0.6-0.9c7.2-13.3,18.3-21.9,33.9-26.2c5.7-1.6,12-2.3,18.6-2h3.9v-2.8l0-0.1
		c-1.9-21,2.4-41.4,12.9-60.8c1.4-2.7,3.2-4.1,5.7-4.7c2.6-0.6,5.4,0.2,7.3,2.2c1.9,2,2.6,4.7,1.9,7.3c-0.3,0.9-0.7,1.8-1.2,2.7
		c-5.3,9.6-8.7,19.3-10.4,29.5c-1.3,7.7-1.6,14.8-0.9,21.7c0.2,1.3,0.3,2.6,0.4,3.9c0.1,1.2,0.2,2.4,0.4,3.6l0.1,0.9l0.9,0.3
		c16,5.4,29.5,14.7,40.3,27.7l0.4,0.5l0.6,0.1c1.8,0.2,3.6-0.2,5.1-0.6c0.3-0.1,0.6-0.2,1-0.2c17.2-3.8,32.4-12.1,45-24.8
		c1.5-1.6,2.8-2.5,4.4-2.9c3.3-0.8,6.6,0.4,8.4,3.2C326.9,86.4,326.8,90,325,92.6z"/>
	<path class="st1" d="M237.7,189.9c-2-2.3-4.1-4.3-6.5-6.2c-4.1-3.4-11.9-4.7-18.1-0.6l-1.1,0.7l0.7,1.2
		c17.9,31.5,28.5,62.1,32.5,93.4l0.1,0.5l0.3,0.3c6.9,7.6,15.9,12,29.1,14.2l1.7,0.3l0-4c-0.3-10.5-1.8-20.9-4.6-31.8
		c-4.1-15.9-10.3-31-18.8-46.1C247.8,202.8,242.9,195.8,237.7,189.9z M274.9,289.6c0,0.6,0,1.3,0,2.3c-11-1.8-20.7-5.3-28.3-13.7
		c-4.3-33.5-16.2-64.5-32.7-93.9c5.4-3.6,12.5-2.8,16.4,0.5c2.2,1.8,4.3,3.9,6.3,6c5.9,6.6,10.7,14,15,21.6
		c8.2,14.4,14.5,29.6,18.7,45.7C273,268.4,274.5,278.9,274.9,289.6z"/>
	<path class="st1" d="M247.7,291.1c0.3,0,0.7,0,1-0.1C248.4,291,248,291,247.7,291.1z"/>
	<path class="st1" d="M271.2,309.1c0.5,0,1,0.1,1.5,0.1C272.2,309.2,271.7,309.1,271.2,309.1L271.2,309.1z"/>
	<path class="st1" d="M235.4,255.2c-0.2-0.6-0.4-1.3-0.6-2l-1.3-4l-1.6,2.9c-7.4,13.6-18.8,22.7-34.7,27.8l-1.6,0.5l1.1,2.1
		c1.5,2.8,2.9,5.5,4.8,7.9c0.1,0.3,0.2,0.6,0.5,1c5.5,8.4,11.6,15.3,18.7,21c1.4,1.2,3,2.2,4.5,3.3c0.7,0.5,1.5,1,2.2,1.6l0.2,0.1
		c0.1,0,0.2,0.1,0.3,0.1c0.1,0.1,0.2,0.1,0.3,0.2c3.2,2.3,6.8,4.1,9.4,4.6l1.4,0.3l0.3-1.4c0-0.2,0.1-0.4,0.1-0.6
		c0.1-0.4,0.2-0.8,0.3-1.2c0.9-6.7,1.4-12.2,1.5-17.3c0.2-5.6-0.1-11.7-0.8-19.3C239.4,274.1,237.8,265.1,235.4,255.2z M239.6,302.1
		c-0.2,5.7-0.7,11.4-1.5,17.1c-0.1,0.6-0.3,1.1-0.4,1.7c-2.4-0.5-6-2.2-8.9-4.4c0,0,0,0,0,0c-0.2-0.2-0.5-0.3-0.7-0.4c0,0,0,0,0,0
		c-2.2-1.6-4.5-3-6.6-4.7c-7.2-5.9-13.2-13-18.4-20.7c-0.2-0.4-0.3-0.7-0.4-1c-2-2.5-3.5-5.4-5.1-8.4c15.4-5,27.6-13.9,35.5-28.5
		c0.3,1.1,0.7,1.9,0.9,2.8c2.2,9,3.9,18.2,4.8,27.4C239.4,289.4,239.8,295.7,239.6,302.1z"/>
	<path class="st1" d="M275.5,298.8l-1.1-0.2c-9.6-1.4-17.7-4.3-24.8-8.9c-0.2-0.2-0.4-0.3-0.5-0.3c0,0-0.1,0-0.1,0l-1.7-1.6
		l-0.7,2.2c-0.1,0.2-0.1,0.4-0.2,0.5l-0.2,0.3v0.3c0,1.9,0,3.8,0.1,5.7c0,1.9,0,3.8,0,5.7c0,0.1,0,0.3,0,0.4c0,0.3-0.1,0.5-0.1,0.7
		c-0.3,4.1-0.6,8.3-1,12.5c-0.2,2-0.5,4-0.8,6.1l-0.4,2.3l1.3,0.3c2.5,0.6,5.1,0.9,7.8,0.9c0.8,0,1.6,0,2.4-0.1
		c9.5-0.6,16.7-7,18.6-16.2c1-2.8,1.9-6.8,1.5-9.6L275.5,298.8z M272.7,309.2c-1.7,8.7-8.5,14.6-17.3,15.2c-3.2,0.2-6.4-0.1-9.7-0.8
		c0.3-2.5,0.7-4.8,1-7.2c0.4-4.2,0.7-8.4,1-12.6c0-0.4,0.1-0.8,0.1-1.2c0.5,0.2,0.9,0.4,1.4,0.6c0,0,0-0.1,0-0.1c0,0,0,0,0,0
		c-0.4-0.2-0.9-0.4-1.4-0.6c0-3.8-0.1-7.6-0.1-11.4c0.1-0.2,0.2-0.4,0.3-0.5c0.2,0.1,0.4,0.3,0.7,0.4c7.8,5.1,16.4,7.9,25.5,9.2
		C274.5,302.5,273.8,306.3,272.7,309.2z"/>
	<path class="st2" d="M64.3,336c-0.3,0-0.7-0.1-1-0.1C63.4,336.7,63.5,336.7,64.3,336z"/>
	<path class="st3" d="M114.3,268.1C95.6,254,84.5,235.3,81.2,212c-3-0.5-5.9-1-8.7-1.5c-0.2,0.3-0.4,0.5-0.5,0.7
		c-4,7.7-6.4,15.8-6.8,24.5c-0.5,10.7,1.9,20.8,6.7,30.3c9.6,18.8,29.3,35,49.8,41c9.3,2.7,18.6,3.4,28.1,1.6
		c11.7-2.2,21.7-7.5,30.5-15.4c0.4-0.4,0.7-0.8,1.2-1.3c-1.3-2.6-2.6-5.2-3.8-7.6C154.2,287.5,133.1,282.2,114.3,268.1z"/>
	<path class="st4" d="M236.6,190.8c-2-2.1-4.1-4.2-6.3-6c-3.9-3.3-11-4.1-16.4-0.5c16.5,29.4,28.4,60.4,32.7,93.9
		c7.6,8.4,17.3,11.9,28.3,13.7c0-1,0-1.7,0-2.3c-0.4-10.7-1.9-21.2-4.6-31.5c-4.2-16.1-10.5-31.3-18.7-45.7
		C247.3,204.8,242.5,197.4,236.6,190.8z"/>
	<path class="st4" d="M67.7,144.2c33.5-5.4,66.5-2.6,99.1,4.9c0.2-0.3,0.4-0.4,0.3-0.4c1.2-6.5-1-12.5-6.6-16
		c-3.2-2-6.6-3.7-10.2-5.1c-17-6.7-34.8-10.1-53-11.4c-9-0.6-18.1-0.5-27.1,0.4c-7.5,0.7-14.8,2-22,4c-0.5,0.1-1,0.4-1.6,0.6
		C51.4,131.1,57.6,139.5,67.7,144.2z"/>
	<path class="st3" d="M122.6,208.6c0.3,2.6,1,4.9,1.8,7.2c3.5,9.5,9.9,16.5,18.4,21.8c6.3,4,13.3,6.1,20.7,6.4c2,0.1,3.9,0,5.9-0.5
		c0.3-16.1,3.5-31.5,10.3-46.3c-5.7-3.3-10.7-7.2-15.4-11.5C152,196.4,138,203.8,122.6,208.6z"/>
	<path class="st4" d="M157.3,166.1c-5.7-1.1-11.3-2.4-17-3.4c-4.4-0.8-8.8-1.3-13.3-1.8c-9.5-1.1-18.9-1.5-28.5-1.5
		c-0.8,1.1-1.6,1.9-2.4,3c-6.5,9.3-9.2,19.8-9.2,31c0,0.1,0.2,0.3,0.4,0.5c1.1,0.1,2.2,0.3,3.4,0.3c4.9,0.2,9.7,0,14.6-0.8
		c17.2-2.7,32.4-9.7,45.7-21C153.2,170.5,155.2,168.2,157.3,166.1z"/>
	<path class="st4" d="M218.3,237.4c-4.5-12.9-10.2-25.3-16.9-37.2c-0.3-0.6-0.7-1.1-1-1.5c-2.1,2.9-3.6,6.1-5,9.3
		c-4.3,10-6.6,20.4-7.2,31.3c-0.7,11.2,0.8,22.1,5.1,32.6c0.2,0.6,0.5,1.1,0.8,1.7c9.2-2.8,17.3-7.3,23.9-14.1c2-2,3.9-4.2,5.3-6.8
		C221.6,247.6,220.1,242.4,218.3,237.4z"/>
	<path class="st5" d="M234,255.6c-0.2-0.9-0.6-1.7-0.9-2.8c-7.9,14.6-20.1,23.5-35.5,28.5c1.6,3,3.1,5.9,5.1,8.4
		c0.5-0.1,0.9-0.3,1.4-0.5c8.8-2.9,16.7-7.2,24-13.3c0.4,2.7,0.8,4.9,1,7.2c0.3,3.2,0.5,6.3,0.7,9.5c0.1,2.1,0.1,4.2,0.1,6.3
		c0,3.2-0.1,6.3-0.3,9.5c-0.1,2.6-0.6,5.1-0.9,7.6c0,0,0,0,0,0l0,0c0.1,0.2,0.1,0.3,0.1,0.5c0,0,0,0,0,0l0,0c0,0,0,0,0,0
		c2.9,2.2,6.5,3.9,8.9,4.4c0.1-0.6,0.3-1.1,0.4-1.7c0.8-5.7,1.3-11.4,1.5-17.1c0.2-6.4-0.2-12.7-0.8-19.1
		C237.9,273.8,236.2,264.6,234,255.6z"/>
	<path class="st5" d="M49.6,166.9c7.6-2.5,15.3-4.1,23.2-5.4c0.6-0.1,1.1-0.1,2-0.1c-0.2,0.7-0.2,1.2-0.4,1.7
		c-2,4.9-3.6,10-4.3,15.2c-0.4,2.9-0.6,5.7-0.9,8.6c-0.1,1.1-0.1,2.1-0.1,3.2c0,0-0.1,0-0.1,0c0,0,0,0.1,0,0.1
		c3,1.1,6.1,1.9,9.5,2.4c0.2-8,1.4-15.7,4.3-23c2.9-7.3,7.2-13.7,13.1-19.7c-1,0-1.4,0-1.9,0c-2.6,0.1-5.1,0.2-7.7,0.4
		c-8.6,0.5-17.2,1.8-25.6,3.6c-9.9,2.2-19.5,5.3-28.7,9.5c-0.8,0.3-1.7,0.6-2.4,1.4c2.3,2.6,4.4,5.1,7.1,7.1
		C40.8,169.8,45.2,168.4,49.6,166.9z"/>
	<path class="st4" d="M228.4,316c0.1,0,0.2,0,0.3,0c0,0,0,0,0,0c0.3-2.5,0.8-5,0.9-7.6c0.2-3.1,0.2-6.3,0.3-9.5c0-2.1,0-4.2-0.1-6.3
		c-0.1-3.2-0.3-6.3-0.7-9.5c-0.3-2.3-0.6-4.5-1-7.2c-7.3,6.2-15.3,10.5-24,13.3c-0.5,0.1-0.9,0.3-1.4,0.5c0.1,0.3,0.2,0.6,0.4,1
		c5.2,7.7,11.2,14.8,18.4,20.7c2.1,1.7,4.4,3.1,6.6,4.7c0,0,0,0,0,0l0,0C228.2,316.1,228.3,316.1,228.4,316z"/>
	<path class="st4" d="M69.1,190.1c0-1.1,0-2.1,0.1-3.2c0.3-2.9,0.5-5.7,0.9-8.6c0.7-5.2,2.3-10.3,4.3-15.2c0.2-0.5,0.2-1,0.4-1.7
		c-0.9,0-1.4,0-2,0.1c-7.9,1.3-15.6,2.9-23.2,5.4c-4.4,1.5-8.8,2.9-12.9,5c0.6,0.7,1.3,1.3,2.1,1.8c4.3,3.6,8.8,6.7,13.7,9.4
		C57.8,185.9,63.1,188.5,69.1,190.1C69,190.1,69.1,190.1,69.1,190.1z"/>
	<path class="st5" d="M201.4,200.2c6.7,11.9,12.4,24.3,16.9,37.2c1.8,5,3.3,10.2,5,15.3c3-4,4.8-8.5,6-13c-3.6-13-17.9-44.9-22.4-50
		c-2.5,2.7-4.9,5.6-6.6,8.9c0,0,0,0,0.1,0.1C200.7,199.1,201.1,199.6,201.4,200.2z"/>
	<path class="st5" d="M127,160.9c4.5,0.5,8.9,1,13.3,1.8c5.7,1,11.3,2.3,17,3.4c2.7-2.6,5.6-6.6,6.3-9.1c-17.8-4.1-35.8-6.5-54-7.1
		c-4.3,2.5-8.1,5.5-11.1,9.5c0,0,0,0,0,0C108.1,159.4,117.5,159.8,127,160.9z"/>
	<path class="st4" d="M249.2,303.2C249.2,303.2,249.2,303.2,249.2,303.2c-0.5-0.2-0.9-0.4-1.4-0.6c0,0.4-0.1,0.8-0.1,1.2
		c-0.3,4.2-0.6,8.4-1,12.6c-0.3,2.4-0.7,4.7-1,7.2c3.3,0.7,6.5,1,9.7,0.8c8.8-0.6,15.6-6.5,17.3-15.2c-0.5,0-1-0.1-1.5-0.1
		C263.6,308.3,256.2,306.4,249.2,303.2z"/>
	<path class="st4" d="M44.2,149.8c-3.1-2.9-5.5-6.3-7.7-9.9c-2.3-3.8-4.4-7.7-5.9-11.9c0,0,0.1-0.1,0.1-0.1c0,0,0,0,0,0
		c-2.5,1.2-4.4,3.1-6.2,5.2c-1.8,2.2-3,4.6-3.6,7.3c-1.4,6.3,0.7,11.9,3.8,17.4c0.8-0.3,1.6-0.7,2.3-1c3.3-1.5,6.6-2.9,10-4.3
		C39.4,151.6,41.8,150.7,44.2,149.8z"/>
	<path class="st5" d="M248.7,291c-0.3,0.1-0.7,0.1-1,0.1c0,3.8,0.1,7.6,0.1,11.4c0.5,0.2,1,0.4,1.4,0.6c0,0,0,0,0,0
		c7,3.3,14.4,5.2,22,6c0.5,0,1,0.1,1.5,0.1c1.1-2.9,1.8-6.7,1.5-9C265.1,298.9,256.5,296.1,248.7,291z"/>
	<path class="st5" d="M36.5,139.9c2.2,3.6,4.6,7,7.7,9.9c1.8-0.5,3.7-1,5.5-1.4c1.8-0.5,3.7-1.1,6-1.7c-7.8-6.3-13-14.1-17-22.9
		c-3,1.2-5.7,2.3-8,4.1c0,0-0.1,0.1-0.1,0.1C32.1,132.2,34.2,136.1,36.5,139.9z"/>
	<path class="st6" d="M248,290.6c-0.1,0.1-0.2,0.3-0.3,0.5c0.3-0.1,0.7-0.1,1-0.1C248.4,290.9,248.2,290.7,248,290.6z"/>
	<path class="st7" d="M228.8,316.5c-0.1-0.2-0.1-0.3-0.1-0.5l0,0v0c-0.1,0-0.2,0-0.3,0c-0.1,0-0.2,0-0.3,0l0,0
		C228.3,316.2,228.6,316.3,228.8,316.5L228.8,316.5C228.8,316.5,228.8,316.5,228.8,316.5z"/>
	<path class="st1" d="M674.5,211.6c3.6-11,3.8-22.2,0.4-33.3c-3.8-12.6-12-21.4-24.3-26.3c-2.8-1.2-5.9-1.8-8.8-2.7
		c-0.2,0-0.5,0-0.9,0.3c-0.1,0-0.2-0.2-0.5-0.4c0.1-0.1,0.3-0.1,0.4-0.1c0.2,0.1,0.2,0.2,0.3,0.2c0.2,0,0.5,0,0.7,0
		c0-0.2,0-0.5,0.1-0.7c2.6-1.2,5.3-2.2,7.8-3.4c9.6-5,16-12.7,19-23.2c1.7-6.1,2.2-12.2,1.6-18.5c-0.6-6-2-11.8-4.9-17.1
		c-4.6-8.8-11.8-14.6-20.8-18.5c-9-4-18.6-5.5-28.4-5.5c-29.2-0.1-58.5-0.1-87.7-0.1c-0.5,0-1.1,0.1-1.8,0.2c0,33,0,65.9,0,98.5
		c-9.9,14.6-21.3,27.2-35.3,37.4c-10.5,7.6-21.7,13.7-34.3,17.1c-10.1,2.8-20.3,3.4-30.5,0.8c-11.3-2.9-20.1-9-26-19.1
		c-2.2-3.8-3.9-7.8-5.1-11.9c-0.2-0.6-0.2-1.3-0.3-1.8c0.8-0.9,1.7-0.9,2.6-1.1c2.2-0.4,4.3-0.7,6.4-1.2
		c20.3-4.5,38.6-13.1,54.7-26.2c6.7-5.4,12.6-11.6,17.5-18.7c3.8-5.6,6.4-11.6,7.1-18.4c0.7-6.3-0.3-12.2-3.5-17.7
		c-2.9-5-6.9-8.9-11.8-11.9c-8.6-5.3-18-6.8-27.8-5.9c-7.9,0.7-15.2,3.1-22.2,6.8c-20.8,11-35.1,27.7-44,49.3
		c-4.9,12-6.1,24.5-5.2,37.4c0.8,11.1,3.8,21.5,9.2,31.2c6.8,12.2,16.2,21.7,28.9,27.6c15.5,7.2,31.7,8.7,48.4,5.3
		c14.9-3.1,28.7-8.8,41.3-17.3c11.4-7.7,21.6-16.6,28.8-28.5c0.3-0.4,0.5-0.7,0.8-1.1c0.1,0,0.3,0.1,0.4,0.1c0,16.9,0,33.9,0,51
		c0.9,0,1.7,0.1,2.4,0.1c28.9-0.1,57.7-0.1,86.5-0.1c5.5,0,11-0.3,16.4-1.1c6.9-1.1,13.6-2.9,19.9-6.1
		C662.8,231.5,670.7,223.3,674.5,211.6z M393.7,164.2c0-1.3,0-2.3,0.1-3.2c1.4-10.6,5.7-20.1,11.5-28.9c5.8-8.9,13.3-16.2,22.2-21.9
		c5.3-3.4,11-5.7,17.3-6.5c5-0.7,9.8,0,14.2,2.6c2.9,1.6,4.9,3.9,5.7,7.2c0.6,2.4,0.2,4.8-0.6,7.1c-1.1,3.3-3,6.2-5.1,9
		c-5.3,6.8-11.7,12.5-18.8,17.3c-13,8.8-27.2,14.5-42.6,17.2c-0.7,0.1-1.5,0.2-2.2,0.2C395,164.4,394.5,164.3,393.7,164.2z
		 M569.7,98.2c0.6-0.1,1.2-0.2,1.7-0.2c12.2,0,24.4,0,36.6,0c2.6,0,5.1,0.3,7.6,1c6.5,1.9,10.5,6.5,11.2,13.2
		c0.3,2.1,0.2,4.3-0.2,6.4c-1.3,7.1-6.1,11.8-13.2,13.2c-1.6,0.3-3.3,0.5-4.9,0.5c-12.3,0-24.6,0-36.9,0c-0.6,0-1.1,0-1.9,0
		C569.7,120.7,569.7,109.5,569.7,98.2z M631.2,193.8c-1.8,6.4-5.8,10.6-12.1,12.8c-2.7,0.9-5.5,1.4-8.3,1.4c-13.4,0-26.9,0-40.3,0
		c-0.2,0-0.3,0-0.8-0.1c0-13.5,0-27,0-40.4c0.7,0,1.2-0.1,1.8-0.1c12.7,0,25.5-0.1,38.3,0c2.7,0,5.3,0.4,7.9,1
		c8,1.9,13.1,7.6,14.1,15.8C632.2,187.4,632.1,190.6,631.2,193.8z"/>
	<path class="st1" d="M822.4,72.3c-4.4-2.7-9.1-4.8-14-6.3c-9.5-3-19.3-4-29.2-4c-25.3,0-50.7,0-76,0c-0.7,0-1.3,0.1-2,0.1
		c0,0.5-0.1,0.8-0.1,1.1c0,60.1,0,120.3,0,180.4c0,0.1,0,0.1,0.1,0.2c0,0.1,0.1,0.1,0.2,0.3c0.4,0,0.8,0,1.2,0c13.3,0,26.6,0,39.9,0
		c0.5,0,1-0.1,1.5-0.1c0.2-0.2,0.3-0.3,0.4-0.7c0-0.9,0.1-1.8,0.1-2.7c0-18.3,0-36.5,0-54.8c0-0.8,0-1.7,0-2.8c1.1,0,1.9,0,2.7,0
		c8.9,0,17.8,0.1,26.7,0c4.6,0,9.1-0.1,13.7-0.4c7.4-0.4,14.8-1.9,21.8-4.5c17.1-6.4,28.7-18.1,34-35.7c4.1-13.5,4.2-27.2,0.6-40.8
		C840.7,89.1,833.5,79.2,822.4,72.3z M800.2,131c-2.4,8.2-8.2,12.7-16.3,14.3c-1.9,0.4-3.9,0.6-5.9,0.6c-10.6,0-21.3,0-31.9,0
		c-0.4,0-0.8-0.1-1.2-0.1c-0.4-2.1-0.6-39.5-0.2-46.5c0.7,0,1.4,0,2.1,0c10,0,20.1,0,30.1,0c3.4,0,6.7,0.3,9.9,1.2
		c7.1,2.1,11.9,6.6,13.7,14C801.9,120,801.8,125.6,800.2,131z"/>
	<path class="st1" d="M997.9,61.9c-42.5,0-84.9,0-127.2,0c-0.7,0-1.5,0-2.2,0c-0.1,0-0.1,0.1-0.2,0.1c0,0.1-0.1,0.1-0.3,0.3
		c0,0.7,0,1.5,0,2.3c0,58.7,0,117.5,0,176.2c0,0.8,0.1,1.7,0.1,2.5c0.1,0.2,0.3,0.3,0.4,0.5c0.3,0,0.7,0.1,1,0.1
		c13.5,0,26.9,0,40.4,0c0.4,0,0.9-0.1,1.5-0.2c0-23.3,0-46.4,0-69.6c0-0.1,0-0.1,0.1-0.2c0.1-0.1,0.1-0.1,0.4-0.3
		c24.9,0,50,0,75.1,0c0.4-3.4,0.3-35.2-0.1-37.1c-0.1,0-0.1-0.1-0.2-0.1c0,0-0.1,0-0.2,0c0,0-0.1,0-0.2,0c-24.5-0.1-49-0.1-73.5-0.1
		c-0.2,0-0.5,0-0.7,0c0,0-0.1,0-0.2,0c-0.1,0-0.1-0.1-0.2-0.1c-0.1,0-0.2-0.1-0.2-0.1c0-11.8,0-23.6,0-35.5c0.8,0,1.6-0.1,2.3-0.1
		c24.8,0,49.7,0,74.5,0c3.1,0,6.3-0.1,9.4-0.1c0.1-0.1,0.3-0.3,0.3-0.6c0-0.2,0.1-0.5,0.1-0.7c0-12,0-23.9,0-35.9
		C998.1,62.8,998,62.4,997.9,61.9z"/>
	<path class="st8" d="M744,244c0.2-0.2,0.3-0.3,0.5-0.5"/>
	<path class="st8" d="M868.6,244c-0.1-0.2-0.3-0.3-0.4-0.5"/>
	<polygon class="st1" points="369.7,282.4 369.7,335.7 379.1,335.7 379.1,314 406,314 406,305.5 379.1,305.5 379.1,290.9 
		409.5,290.9 409.5,282.4 369.8,282.4 	"/>
	<path class="st1" d="M455.7,281.4c-16.4,0-28,12.6-28,27.6v0.2c0,15.1,11.4,27.5,27.8,27.4c16.4,0,28-12.6,28-27.6v-0.1
		C483.5,293.8,472.1,281.4,455.7,281.4z M473.7,309.2c0,10.4-7.4,18.8-18,18.7c-10.6,0-18.2-8.5-18.2-18.9v-0.1
		c0-10.4,7.4-18.8,18-18.8c10.6,0,18.2,8.5,18.2,18.9V309.2z"/>
	<path class="st1" d="M541,313.2c0,9.8-5.1,14.8-13.4,14.8c-8.4,0-13.5-5.3-13.5-15.2v-30.4h-9.4v30.7c0,15.5,8.9,23.5,22.7,23.7
		c14,0,23-8.1,23-24v-30.3H541V313.2z"/>
	<polygon class="st1" points="611.3,319.3 582.7,282.4 574,282.4 574,335.8 583.2,335.8 583.2,297.8 612.6,335.8 620.5,335.8 
		620.5,282.4 611.3,282.4 	"/>
	<path class="st1" d="M664.8,282.4h-19.9v53.3h19.9c16.8,0,28.4-11.7,28.4-26.7v-0.1C693.2,293.9,681.6,282.4,664.8,282.4z
		 M683.3,309.2c0,10.4-7.3,18-18.5,18h-10.5v-36.3v-0.1h10.5c11.2,0,18.5,7.8,18.5,18.2V309.2z"/>
	<path class="st1" d="M730.4,282l-23.5,53.8h9.6l5.5-12.9h25.3l5.4,12.9h9.9L739.1,282H730.4z M725.4,314.6l9.2-21.4l9.2,21.4H725.4
		z"/>
	<polygon class="st1" points="771.7,291.1 788.7,291.1 788.7,335.8 798.1,335.8 798.1,291.1 815.1,291.1 815.1,282.4 771.7,282.4 	
		"/>
	<rect x="836" y="282.4" class="st1" width="9.4" height="53.4"/>
	<path class="st1" d="M896,281.4c-16.4,0-28,12.6-28,27.6v0.2c0,15.1,11.4,27.4,27.8,27.4s28-12.6,28-27.6v-0.1
		C923.8,293.8,912.4,281.4,896,281.4z M914,309.2c0,10.4-7.4,18.8-18,18.7c-10.6,0-18.2-8.5-18.2-18.9v-0.1c0-10.4,7.4-18.8,18-18.8
		c10.6,0,18.2,8.5,18.2,18.9V309.2z"/>
	<polygon class="st1" points="983.2,319.3 954.6,282.4 945.9,282.4 945.9,282.4 945.9,335.8 955.1,335.8 955.1,297.8 984.5,335.8 
		992.4,335.8 992.4,282.4 983.2,282.4 	"/>
</g>
</svg>
