<svg id="glyph_copy_5" viewBox="0 0 64 64" xmlns="http://www.w3.org/2000/svg" xmlns:xlink="http://www.w3.org/1999/xlink" data-name="glyph copy 5"><linearGradient id="linear-gradient" gradientUnits="userSpaceOnUse" x1="2" x2="62" y1="32" y2="32"><stop offset="0" stop-color="#70CFFB"/><stop offset="1" stop-color="#54BAB9"/></linearGradient><path d="m32 2a30 30 0 1 0 30 30 30.03661 30.03661 0 0 0 -30-30zm-1.37 42.71a.79345.79345 0 0 1 -.39.69l-9.53 5.5a.7817.7817 0 0 1 -.39.1.79243.79243 0 0 1 -.4-.1l-9.53-5.5a.79345.79345 0 0 1 -.39-.69v-11a.78939.78939 0 0 1 .39-.68l9.53-5.5a.84884.84884 0 0 1 .79 0l9.53 5.5a.78939.78939 0 0 1 .39.68zm1.37-14.14a.7817.7817 0 0 1 -.39-.1l-9.53-5.5a.782.782 0 0 1 -.4-.69v-11a.778.778 0 0 1 .4-.68l9.53-5.5a.82873.82873 0 0 1 .78 0l9.53 5.5a.778.778 0 0 1 .4.68v11a.782.782 0 0 1 -.4.69l-9.53 5.5a.7817.7817 0 0 1 -.39.1zm21.61 14.83-9.53 5.5a.79243.79243 0 0 1 -.4.1.7817.7817 0 0 1 -.39-.1l-9.53-5.5a.79345.79345 0 0 1 -.39-.69v-11a.78939.78939 0 0 1 .39-.68l9.53-5.5a.84884.84884 0 0 1 .79 0l9.53 5.5a.78939.78939 0 0 1 .39.68v11a.79345.79345 0 0 1 -.39.69z" fill="url(#linear-gradient)"/><path d="m47.86 40.9a.79168.79168 0 0 1 -.79.79h-6.77a.785.785 0 1 1 0-1.57h6.77a.78958.78958 0 0 1 .79.78zm1.69-3.38a.79169.79169 0 0 1 -.79.79h-10.15a.79168.79168 0 0 1 -.79-.79.7831.7831 0 0 1 .79-.78h10.15a.7831.7831 0 0 1 .79.78z" fill="#002A58"/><path d="m24.49 40.9a.78533.78533 0 0 1 -.79.79h-6.77a.785.785 0 1 1 0-1.57h6.77a.78315.78315 0 0 1 .79.78zm1.69-3.38a.79168.79168 0 0 1 -.79.79h-10.15a.78321.78321 0 0 1 -.78-.79.77461.77461 0 0 1 .78-.78h10.15a.7831.7831 0 0 1 .79.78z" fill="#002A58"/><path d="m36.18 20.47a.7832.7832 0 0 1 -.78.79h-6.78a.785.785 0 0 1 0-1.57h6.78a.781.781 0 0 1 .78.78zm1.69-3.37a.781.781 0 0 1 -.78.78h-10.16a.785.785 0 0 1 0-1.57h10.16a.78315.78315 0 0 1 .78.79z" fill="#002A58"/></svg>
