<svg id="Layer_3" height="512" viewBox="0 0 64 64" width="512" xmlns="http://www.w3.org/2000/svg" data-name="Layer 3"><rect fill="#5e87ca" height="42" rx="2" width="60" x="2" y="2"/><path d="m10 40h44a4 4 0 0 1 4-4v-26a4 4 0 0 1 -4-4h-44a4 4 0 0 1 -4 4v26a4 4 0 0 1 4 4z" fill="#f2f2f2"/><path d="m54.09 6.835a4.03 4.03 0 0 1 -.09-.835h-44a4 4 0 0 1 -4 4v26a3.982 3.982 0 0 1 2.8 1.147h43.29a2 2 0 0 0 2-2z" fill="#fff"/><path d="m34 45.459v9.541l-4-4-4 4v-11.165a3.98 3.98 0 0 0 1.611.4 2.825 2.825 0 0 1 1.75.764 3.972 3.972 0 0 0 4.639.461z" fill="#f9d266"/><path d="m38 43.835v18.165l-4-4-4 4v-11l4 4v-9.54a3.964 3.964 0 0 0 .639-.46 2.825 2.825 0 0 1 1.75-.764 3.98 3.98 0 0 0 1.611-.4z" fill="#f0ae42"/><path d="m23 38.639a2.825 2.825 0 0 1 .764 1.75 3.971 3.971 0 0 0 3.843 3.843 2.825 2.825 0 0 1 1.75.764 3.97 3.97 0 0 0 5.278 0 2.825 2.825 0 0 1 1.75-.764 3.971 3.971 0 0 0 3.843-3.843 2.825 2.825 0 0 1 .772-1.75 3.97 3.97 0 0 0 0-5.278 2.825 2.825 0 0 1 -.764-1.75 3.971 3.971 0 0 0 -3.843-3.843 2.825 2.825 0 0 1 -1.754-.768 3.97 3.97 0 0 0 -5.278 0 2.825 2.825 0 0 1 -1.75.764 3.971 3.971 0 0 0 -3.843 3.843 2.825 2.825 0 0 1 -.768 1.754 3.97 3.97 0 0 0 0 5.278z" fill="#d5883e"/><circle cx="32" cy="36" fill="#f9d266" r="5"/><path d="m27 36a4.95 4.95 0 0 0 .625 2.375 4.95 4.95 0 0 0 2.375.625 5 5 0 0 0 5-5 4.95 4.95 0 0 0 -.625-2.375 4.95 4.95 0 0 0 -2.375-.625 5 5 0 0 0 -5 5z" fill="#fce797"/><g fill="#c0dafc"><path d="m23 9h18v2h-18z"/><path d="m17 13h30v2h-30z"/><path d="m13 17h38v2h-38z"/></g><path d="m45 35h6v2h-6z" fill="#78a0d4"/><path d="m13 35h6v2h-6z" fill="#78a0d4"/></svg>