<svg width="34" height="35" viewBox="0 0 34 35" fill="none" xmlns="http://www.w3.org/2000/svg">
<path d="M10.4565 14.774C10.4565 15.1504 10.4972 15.4556 10.5684 15.6794C10.6498 15.9033 10.7515 16.1474 10.8939 16.4119C10.9448 16.4933 10.9652 16.5747 10.9652 16.6459C10.9652 16.7477 10.9041 16.8494 10.7719 16.9511L10.1309 17.3784C10.0394 17.4395 9.9478 17.47 9.86641 17.47C9.76467 17.47 9.66294 17.4191 9.5612 17.3276C9.41877 17.175 9.29669 17.0122 9.19495 16.8494C9.09322 16.6765 8.99148 16.4832 8.87957 16.2492C8.08603 17.1851 7.08901 17.6531 5.88852 17.6531C5.03394 17.6531 4.35231 17.409 3.8538 16.9206C3.35529 16.4323 3.10095 15.7812 3.10095 14.9673C3.10095 14.1025 3.40616 13.4006 4.02675 12.8715C4.64734 12.3425 5.47141 12.078 6.51929 12.078C6.86519 12.078 7.22127 12.1085 7.59769 12.1594C7.97412 12.2102 8.36071 12.2916 8.76766 12.3832V11.6405C8.76766 10.8673 8.60488 10.3281 8.2895 10.0127C7.96394 9.69735 7.41457 9.54475 6.6312 9.54475C6.27512 9.54475 5.90887 9.58544 5.53245 9.67701C5.15602 9.76857 4.78977 9.88048 4.4337 10.0229C4.27092 10.0941 4.14884 10.1348 4.07762 10.1552C4.0064 10.1755 3.95554 10.1857 3.91484 10.1857C3.77241 10.1857 3.7012 10.084 3.7012 9.8703V9.3718C3.7012 9.20902 3.72154 9.08694 3.77241 9.01572C3.82328 8.94451 3.91484 8.87329 4.05727 8.80207C4.41335 8.61895 4.84064 8.46634 5.33915 8.34426C5.83766 8.212 6.36668 8.15096 6.92623 8.15096C8.13689 8.15096 9.022 8.42565 9.59172 8.97503C10.1513 9.5244 10.4361 10.3586 10.4361 11.4777V14.774H10.4565ZM6.32599 16.3204C6.66172 16.3204 7.00762 16.2593 7.37387 16.1373C7.74012 16.0152 8.06568 15.7914 8.34037 15.4861C8.50314 15.2928 8.62523 15.0792 8.68627 14.835C8.74731 14.5909 8.78801 14.2958 8.78801 13.9499V13.5226C8.49297 13.4514 8.17759 13.3904 7.85203 13.3497C7.52648 13.309 7.2111 13.2886 6.89571 13.2886C6.21408 13.2886 5.71557 13.4209 5.37984 13.6956C5.04411 13.9703 4.88134 14.3569 4.88134 14.8656C4.88134 15.3437 5.00342 15.6998 5.25776 15.944C5.50193 16.1983 5.858 16.3204 6.32599 16.3204V16.3204ZM14.4954 17.4191C14.3123 17.4191 14.1902 17.3886 14.1088 17.3174C14.0274 17.2564 13.9562 17.1139 13.8952 16.9206L11.5044 9.05641C11.4433 8.85294 11.4128 8.72069 11.4128 8.64947C11.4128 8.48669 11.4942 8.39513 11.657 8.39513H12.654C12.8473 8.39513 12.9795 8.42565 13.0508 8.49687C13.1321 8.55791 13.1932 8.70034 13.2542 8.89364L14.9634 15.6286L16.5505 8.89364C16.6013 8.69016 16.6624 8.55791 16.7438 8.49687C16.8252 8.43582 16.9676 8.39513 17.1507 8.39513H17.9646C18.1579 8.39513 18.2902 8.42565 18.3716 8.49687C18.4529 8.55791 18.5242 8.70034 18.5649 8.89364L20.1723 15.71L21.9323 8.89364C21.9934 8.69016 22.0646 8.55791 22.1358 8.49687C22.2172 8.43582 22.3494 8.39513 22.5326 8.39513H23.4787C23.6415 8.39513 23.7331 8.47652 23.7331 8.64947C23.7331 8.70034 23.7229 8.75121 23.7127 8.81225C23.7025 8.87329 23.6822 8.95468 23.6415 9.06659L21.1896 16.9308C21.1286 17.1343 21.0574 17.2665 20.976 17.3276C20.8946 17.3886 20.7624 17.4293 20.5894 17.4293H19.7145C19.5212 17.4293 19.3889 17.3988 19.3075 17.3276C19.2261 17.2564 19.1549 17.1241 19.1142 16.9206L17.5373 10.3586L15.9706 16.9105C15.9197 17.1139 15.8587 17.2462 15.7773 17.3174C15.6959 17.3886 15.5535 17.4191 15.3703 17.4191H14.4954ZM27.5685 17.6938C27.0395 17.6938 26.5105 17.6328 26.0018 17.5107C25.4931 17.3886 25.0963 17.2564 24.8318 17.1038C24.669 17.0122 24.5571 16.9105 24.5164 16.8189C24.4757 16.7273 24.4554 16.6256 24.4554 16.534V16.0152C24.4554 15.8015 24.5368 15.6998 24.6894 15.6998C24.7504 15.6998 24.8115 15.71 24.8725 15.7303C24.9335 15.7507 25.0251 15.7914 25.1268 15.832C25.4727 15.9847 25.8492 16.1067 26.2459 16.1881C26.6529 16.2695 27.0497 16.3102 27.4566 16.3102C28.0975 16.3102 28.596 16.1983 28.9419 15.9745C29.2879 15.7507 29.471 15.4251 29.471 15.008C29.471 14.7231 29.3794 14.4891 29.1963 14.2958C29.0132 14.1025 28.6673 13.9296 28.1688 13.7668L26.6936 13.309C25.9509 13.075 25.4015 12.7291 25.0658 12.2713C24.7301 11.8236 24.5571 11.3251 24.5571 10.7961C24.5571 10.3688 24.6487 9.99239 24.8318 9.66683C25.0149 9.34128 25.2591 9.05642 25.5643 8.8326C25.8695 8.5986 26.2154 8.42565 26.6224 8.30357C27.0293 8.18148 27.4566 8.13062 27.9042 8.13062C28.1281 8.13062 28.3621 8.14079 28.5859 8.17131C28.8199 8.20183 29.0335 8.24253 29.2472 8.28322C29.4506 8.33409 29.6439 8.38496 29.8271 8.446C30.0102 8.50704 30.1526 8.56808 30.2543 8.62912C30.3968 8.71051 30.4985 8.7919 30.5596 8.88346C30.6206 8.96485 30.6511 9.07676 30.6511 9.21919V9.69735C30.6511 9.911 30.5697 10.0229 30.4171 10.0229C30.3357 10.0229 30.2035 9.98221 30.0305 9.90083C29.4506 9.63631 28.7995 9.50405 28.0772 9.50405C27.4973 9.50405 27.0395 9.59562 26.7241 9.78892C26.4087 9.98221 26.2459 10.2772 26.2459 10.6944C26.2459 10.9792 26.3477 11.2234 26.5511 11.4167C26.7546 11.61 27.131 11.8033 27.6702 11.9762L29.1149 12.4341C29.8474 12.6681 30.3764 12.9936 30.6918 13.4107C31.0072 13.8278 31.1598 14.306 31.1598 14.835C31.1598 15.2725 31.0682 15.6693 30.8953 16.0152C30.7122 16.3611 30.468 16.6663 30.1526 16.9105C29.8372 17.1648 29.4608 17.3479 29.0233 17.4802C28.5655 17.6226 28.0874 17.6938 27.5685 17.6938V17.6938Z" fill="#252F3E"/>
<path fill-rule="evenodd" clip-rule="evenodd" d="M29.4913 22.6382C26.1442 25.1104 21.2812 26.4228 17.0999 26.4228C11.2399 26.4228 5.95975 24.2558 1.9717 20.6544C1.65631 20.3695 1.94118 19.9829 2.3176 20.2067C6.63121 22.7095 11.952 24.2253 17.4559 24.2253C21.1693 24.2253 25.2489 23.4521 29.003 21.865C29.5625 21.6107 30.0407 22.2313 29.4913 22.6382V22.6382Z" fill="#FF9900"/>
<path fill-rule="evenodd" clip-rule="evenodd" d="M30.8851 21.0511C30.4578 20.5017 28.0569 20.7866 26.9683 20.9188C26.6428 20.9595 26.5919 20.6747 26.8869 20.461C28.7995 19.1181 31.9432 19.5047 32.3094 19.9523C32.6757 20.4101 32.2077 23.5538 30.4171 25.0595C30.1425 25.2935 29.8779 25.1714 30 24.8662C30.407 23.859 31.3124 21.5903 30.8851 21.0511V21.0511Z" fill="#FF9900"/>
</svg>
