<svg width="35" height="35" viewBox="0 0 35 35" fill="none" xmlns="http://www.w3.org/2000/svg">
<path fill-rule="evenodd" clip-rule="evenodd" d="M8.32379 5.07178C6.57842 5.07178 5.28692 6.59944 5.34476 8.25615C5.40026 9.8478 5.32815 11.9092 4.80921 13.5903C4.28842 15.2761 3.40826 16.3444 1.97034 16.4815V18.0296C3.40826 18.167 4.28842 19.2348 4.80915 20.9208C5.32815 22.6019 5.4002 24.6633 5.3447 26.255C5.28686 27.9114 6.57836 29.4393 8.32403 29.4393H26.2083C27.9537 29.4393 29.2449 27.9117 29.1871 26.255C29.1316 24.6633 29.2037 22.6019 29.7227 20.9208C30.2434 19.2348 31.1215 18.1666 32.5594 18.0296V16.4815C31.1215 16.3441 30.2435 15.2763 29.7227 13.5903C29.2037 11.9095 29.1316 9.8478 29.1871 8.25615C29.2449 6.59968 27.9537 5.07178 26.2083 5.07178H8.32355H8.32379ZM22.7087 20.0716C22.7087 22.3528 21.0072 23.7363 18.1833 23.7363H13.3764C13.2389 23.7363 13.107 23.6817 13.0098 23.5845C12.9126 23.4872 12.858 23.3554 12.858 23.2179V11.2933C12.858 11.1558 12.9126 11.0239 13.0098 10.9267C13.107 10.8295 13.2389 10.7749 13.3764 10.7749H18.156C20.5106 10.7749 22.0558 12.0503 22.0558 14.0085C22.0558 15.3829 21.0163 16.6133 19.6919 16.8289V16.9006C21.4948 17.0983 22.7087 18.347 22.7087 20.0716V20.0716ZM17.6592 12.4184H14.9184V16.2898H17.2268C19.0114 16.2898 19.9954 15.5712 19.9954 14.2867C19.9952 13.083 19.1492 12.4184 17.6592 12.4184ZM14.9184 17.8259V22.0923H17.76C19.6181 22.0923 20.6023 21.3467 20.6023 19.9456C20.6023 18.5445 19.5905 17.8256 17.6406 17.8256H14.9184V17.8259Z" fill="#7952B3"/>
</svg>
