<svg width="34" height="35" viewBox="0 0 34 35" fill="none" xmlns="http://www.w3.org/2000/svg">
<path d="M27.8248 10.8471V19.5506C27.8248 23.1847 22.2451 25.1586 16.9812 25.1586C11.7173 25.1586 6.13763 23.1847 6.13763 19.5506V10.8471C6.13763 10.2413 6.57122 9.72548 7.12341 9.72548H26.839C27.3912 9.72548 27.8248 10.2413 27.8248 10.8471Z" fill="#444444"/>
<path d="M27.8248 10.8471V19.5506C27.8248 23.1847 22.2451 25.1586 16.9812 25.1586V9.72548H26.839C27.3912 9.72548 27.8248 10.2413 27.8248 10.8471Z" fill="#292929"/>
<path d="M33.8052 8.3346C33.8052 8.80573 33.549 9.23188 33.1742 9.38873L17.336 16.1183C17.2179 16.1633 17.0996 16.1858 16.9812 16.1858C16.8629 16.1858 16.7446 16.1633 16.6265 16.1183L0.788248 9.38873V7.28018L16.6265 0.550578C16.7446 0.505889 16.8629 0.483398 16.9812 0.483398C17.0996 0.483398 17.2179 0.505889 17.336 0.550578L33.1742 7.28018C33.549 7.43732 33.8052 7.86347 33.8052 8.3346Z" fill="#6E6E6E"/>
<path d="M33.8052 8.3346C33.8052 8.80573 33.549 9.23188 33.1742 9.38873L17.336 16.1183C17.2179 16.1633 17.0996 16.1858 16.9812 16.1858V0.483398C17.0996 0.483398 17.2179 0.505889 17.336 0.550578L33.1742 7.28018C33.549 7.43732 33.8052 7.86347 33.8052 8.3346Z" fill="#5A5A5A"/>
<path d="M17.967 8.3346C17.967 8.96258 17.5334 9.4562 16.9812 9.4562H2.12879V26.1006L4.04105 32.6508C4.2187 33.2338 3.94247 33.8846 3.43007 34.0639C2.89765 34.2661 2.34571 33.9518 2.18809 33.3685L2.12879 33.1669C2.04998 33.7053 1.6359 34.1314 1.14301 34.1314C0.590816 34.1314 0.157227 33.6378 0.157227 33.0098V8.3346C0.157227 7.70633 0.590816 7.213 1.14301 7.213H16.9812C17.5334 7.213 17.967 7.70633 17.967 8.3346Z" fill="#FDBF00"/>
</svg>
