<svg height="512" viewBox="0 0 64 64" width="512" xmlns="http://www.w3.org/2000/svg"><g id="Hat_Degree" data-name="Hat Degree"><path d="m27 50h-8a1 1 0 0 0 -1 1v10a1 1 0 0 0 1.6.8l3.4-2.55 3.4 2.55a.9951.9951 0 0 0 .6.2 1 1 0 0 0 1-1v-10a1 1 0 0 0 -1-1z" fill="#343544"/><path d="m27 50h-8a1 1 0 0 0 -1 1v3h10v-3a1 1 0 0 0 -1-1z" fill="#1f202d"/><path d="m60 50c-.9443 0-2-1.7109-2-4s1.0557-4 2-4a1 1 0 0 0 0-2h-56a1.0342 1.0342 0 0 0 -.11.0059c-2.3382.2607-4.01 2.8535-3.889 6.0341.1377 3.4532 1.819 5.96 3.999 5.96h56a1 1 0 0 0 0-2z" fill="#494a59"/><path d="m53.5557 15.4775a1.0047 1.0047 0 0 0 -.94-.0918l-10.6279 4.4-9.9878 4.1323-20.6172-8.5323a1 1 0 0 0 -1.3828.9243v12a1 1 0 0 0 .6172.9238l21 8.69a.9971.9971 0 0 0 .7646 0l21.002-8.69a1.0006 1.0006 0 0 0 .6162-.9238v-12a1.002 1.002 0 0 0 -.4443-.8325z" fill="#343544"/><path d="m61.3828 12.0762-29-12a1 1 0 0 0 -.7656 0l-29 12a1 1 0 0 0 .001 1.8476l29 12a.9946.9946 0 0 0 .7636 0l29-12a1 1 0 0 0 .001-1.8476z" fill="#494a59"/><ellipse cx="60" cy="46" fill="#343544" rx="4" ry="6"/><path d="m24 45.9727c-.0875-3.16.82-5.2727 1.6748-5.9727h-10.4831a12.3208 12.3208 0 0 0 -1.1917 6.0273 15.4349 15.4349 0 0 0 1.22 5.9727h10.366c-.6546-.65-1.4939-2.6772-1.586-6.0273z" fill="#343544"/><path d="m46 56a1 1 0 0 1 -1-1v-35.3408l-13.3936-5.74a1 1 0 0 1 .7872-1.8378l14 6a.9985.9985 0 0 1 .6064.9186v36a1 1 0 0 1 -1 1z" fill="#fcd354"/><path d="m50.1709 61.1064v-.0009l-3.2764-6.5528a1.0412 1.0412 0 0 0 -1.789 0l-3.2764 6.5537a2 2 0 0 0 1.7891 2.8936h4.7636a2 2 0 0 0 1.7891-2.8936z" fill="#ffb125"/></g></svg>