<?xml version="1.0" encoding="iso-8859-1"?>
<!-- Generator: Adobe Illustrator 19.0.0, SVG Export Plug-In . SVG Version: 6.00 Build 0)  -->
<svg version="1.1" id="Layer_1" xmlns="http://www.w3.org/2000/svg" xmlns:xlink="http://www.w3.org/1999/xlink" x="0px" y="0px"
	 viewBox="0 0 460 460" style="enable-background:new 0 0 460 460;" xml:space="preserve">
<g>
	<path style="fill:#AA1106;" d="M230,0C102.974,0,0,102.974,0,230c0,103.323,68.13,190.732,161.916,219.756L449.66,161.605
		C420.539,67.979,333.208,0,230,0z"/>
	<path style="fill:#550803;" d="M460,230c0-23.698-3.588-46.557-10.243-68.069l-41.375-41.375l-40.155,28.809L244.431,25.569
		L230,97.162l-109.497,65.181l-68.781-12.804l55.983,55.983v88.041l-56.466,45.511l110.678,110.679
		C183.432,456.411,206.297,460,230,460C357.025,460,460,357.025,460,230z"/>
	<path style="fill:#FFC240;" d="M230,20c-11.046,0-20,8.954-20,20c0,0.982,0.082,1.939,0.219,2.883l4.936,34.279l14.845,10
		l14.845-10l4.936-34.279C249.918,41.939,250,40.982,250,40C250,28.954,241.046,20,230,20z"/>
	<rect x="202.5" y="77.162" style="fill:#FF984C;" width="55" height="20"/>
	<path style="fill:#FF984C;" d="M230,440c-11.046,0-20-8.954-20-20c0-0.982,0.082-1.939,0.219-2.883l4.936-34.279l14.845-10
		l14.845,10l4.936,34.279c0.137,0.944,0.219,1.901,0.219,2.883C250,431.046,241.046,440,230,440z"/>
	<rect x="202.5" y="362.838" style="fill:#FF6E36;" width="55" height="20"/>
	<path style="fill:#FFC240;" d="M48.135,335c5.523,9.566,17.755,12.843,27.321,7.32c0.85-0.491,1.638-1.04,2.387-1.631
		l27.219-21.414l1.238-17.856l-16.083-7.856l-32.155,12.865c-0.886,0.353-1.756,0.761-2.606,1.252
		C45.889,313.202,42.612,325.434,48.135,335z"/>
	
		<rect x="78.791" y="291.422" transform="matrix(0.5 0.866 -0.866 0.5 314.181 58.6575)" style="fill:#FF984C;" width="54.999" height="20"/>
	<path style="fill:#FF984C;" d="M411.865,125c5.523,9.566,2.245,21.798-7.32,27.321c-0.85,0.491-1.72,0.898-2.606,1.252
		l-32.155,12.865l-16.083-7.856l1.238-17.856l27.219-21.414c0.749-0.59,1.537-1.14,2.387-1.631
		C394.111,112.157,406.342,115.434,411.865,125z"/>
	
		<rect x="326.198" y="148.591" transform="matrix(0.5 0.866 -0.866 0.5 314.1872 -227.0154)" style="fill:#FF6E36;" width="54.999" height="20"/>
	<polygon style="fill:#FF6E36;" points="361.201,171.572 346.201,145.591 230.002,212.678 215,230 215,372.84 245,372.84 
		245,255.981 346.201,314.409 361.201,288.428 260,230 	"/>
	<polygon style="fill:#FF984C;" points="245,87.16 215,87.16 215,204.019 113.799,145.591 98.799,171.572 200,230 98.799,288.428 
		113.799,314.409 230.003,247.319 245,230 	"/>
	<path style="fill:#FF984C;" d="M411.865,335c5.523-9.566,2.245-21.798-7.32-27.32c-0.85-0.491-1.72-0.898-2.606-1.252
		l-32.155-12.865l-16.083,7.856l1.238,17.856l27.219,21.414c0.749,0.59,1.537,1.14,2.387,1.631
		C394.111,347.843,406.342,344.566,411.865,335z"/>
	
		<rect x="326.21" y="291.41" transform="matrix(0.5 -0.866 0.866 0.5 -84.1758 457.0205)" style="fill:#FF6E36;" width="54.999" height="20"/>
	<path style="fill:#FFC240;" d="M48.135,125c5.523-9.566,17.755-12.843,27.321-7.321c0.85,0.491,1.638,1.04,2.387,1.631
		l27.219,21.414l1.238,17.856l-16.083,7.856l-32.155-12.865c-0.886-0.353-1.756-0.761-2.606-1.252
		C45.889,146.798,42.612,134.566,48.135,125z"/>
	
		<rect x="78.803" y="148.579" transform="matrix(0.5 -0.866 0.866 0.5 -84.1821 171.3475)" style="fill:#FF984C;" width="54.999" height="20"/>
	<path style="fill:#FF984C;" d="M230.007,92.162l-13.018,15.784l13.016,14.216c59.556,0,107.832,48.27,107.832,107.827
		s-48.276,107.849-107.832,107.849l-13.013,14.216l13.015,15.784c76.125,0,137.831-61.728,137.831-137.853
		S306.132,92.162,230.007,92.162z"/>
	<path style="fill:#FF984C;" d="M230.003,180C257.617,180,280,202.381,280,229.995S257.617,280,230.003,280l-21.141-50.005
		L230.003,180z"/>
	<path style="fill:#FFC240;" d="M230.003,180v100C202.389,280,180,257.609,180,229.995S202.389,180,230.003,180z"/>
	<path style="fill:#FF6E36;" d="M230.002,200C246.57,200,260,213.428,260,229.997S246.57,260,230.002,260l-12.685-30.003
		L230.002,200z"/>
	<path style="fill:#FF984C;" d="M230.002,200v60C213.433,260,200,246.565,200,229.997S213.433,200,230.002,200z"/>
	<path style="fill:#FFC240;" d="M230.006,337.838c-59.557,0-107.844-48.293-107.844-107.849s48.287-107.827,107.844-107.827
		c0.002,0,0.002-30,0.002-30c-76.125,0-137.845,61.698-137.845,137.823s61.72,137.853,137.845,137.853
		C230.007,367.838,230.007,337.838,230.006,337.838z"/>
</g>
<g>
</g>
<g>
</g>
<g>
</g>
<g>
</g>
<g>
</g>
<g>
</g>
<g>
</g>
<g>
</g>
<g>
</g>
<g>
</g>
<g>
</g>
<g>
</g>
<g>
</g>
<g>
</g>
<g>
</g>
</svg>
