<svg width="87" height="87" viewBox="0 0 87 87" fill="none" xmlns="http://www.w3.org/2000/svg">
<g filter="url(#filter0_d_82_852)">
<path d="M38.8138 2.66555C41.6593 1.01688 45.1694 1.01689 48.0149 2.66555L76.1904 18.9904C79.0228 20.6315 80.7665 23.6571 80.7665 26.9306V59.6366C80.7665 62.9101 79.0228 65.9357 76.1904 67.5768L48.0149 83.9016C45.1694 85.5503 41.6592 85.5503 38.8138 83.9016L10.6383 67.5768C7.80585 65.9357 6.0621 62.9101 6.0621 59.6366V26.9306C6.0621 23.6571 7.80586 20.6315 10.6383 18.9904L38.8138 2.66555Z" fill="#FFF0DD"/>
<path d="M39.8872 4.51855C42.0687 3.25458 44.7604 3.25458 46.9419 4.51855L75.1167 20.8428C77.2882 22.1009 78.6255 24.421 78.6255 26.9307V59.6367C78.6254 62.1463 77.2882 64.4655 75.1167 65.7236L46.9419 82.0488C44.7604 83.3128 42.0687 83.3128 39.8872 82.0488L11.7114 65.7236C9.5402 64.4654 8.20367 62.1462 8.20361 59.6367V26.9307C8.20361 24.421 9.53996 22.101 11.7114 20.8428L39.8872 4.51855Z" stroke="#70CFFB" stroke-width="4.28247"/>
</g>
<defs>
<filter id="filter0_d_82_852" x="5.45035" y="0.817295" width="77.7634" height="86.7679" filterUnits="userSpaceOnUse" color-interpolation-filters="sRGB">
<feFlood flood-opacity="0" result="BackgroundImageFix"/>
<feColorMatrix in="SourceAlpha" type="matrix" values="0 0 0 0 0 0 0 0 0 0 0 0 0 0 0 0 0 0 127 0" result="hardAlpha"/>
<feOffset dx="0.917673" dy="0.917673"/>
<feGaussianBlur stdDeviation="0.764728"/>
<feComposite in2="hardAlpha" operator="out"/>
<feColorMatrix type="matrix" values="0 0 0 0 0 0 0 0 0 0 0 0 0 0 0 0 0 0 0.25 0"/>
<feBlend mode="normal" in2="BackgroundImageFix" result="effect1_dropShadow_82_852"/>
<feBlend mode="normal" in="SourceGraphic" in2="effect1_dropShadow_82_852" result="shape"/>
</filter>
</defs>
</svg>
