<svg width="87" height="87" viewBox="0 0 87 87" fill="none" xmlns="http://www.w3.org/2000/svg">
<g filter="url(#filter0_d_82_730)">
<path d="M39.0972 2.66555C41.9427 1.01688 45.4528 1.01689 48.2983 2.66555L76.4738 18.9904C79.3062 20.6315 81.05 23.6571 81.05 26.9306V59.6366C81.05 62.9101 79.3062 65.9357 76.4738 67.5768L48.2983 83.9016C45.4528 85.5503 41.9427 85.5503 39.0972 83.9016L10.9217 67.5768C8.0893 65.9357 6.34555 62.9101 6.34555 59.6366V26.9306C6.34555 23.6571 8.0893 20.6315 10.9217 18.9904L39.0972 2.66555Z" fill="#FFF0DD"/>
<path d="M40.1707 4.51855C42.3522 3.25458 45.0438 3.25458 47.2253 4.51855L75.4001 20.8428C77.5717 22.1009 78.9089 24.421 78.9089 26.9307V59.6367C78.9089 62.1463 77.5716 64.4655 75.4001 65.7236L47.2253 82.0488C45.0438 83.3128 42.3522 83.3128 40.1707 82.0488L11.9949 65.7236C9.82365 64.4654 8.48712 62.1462 8.48706 59.6367V26.9307C8.48706 24.421 9.82341 22.101 11.9949 20.8428L40.1707 4.51855Z" stroke="#70CFFB" stroke-width="4.28247"/>
</g>
<defs>
<filter id="filter0_d_82_730" x="5.7338" y="0.817295" width="77.7634" height="86.7679" filterUnits="userSpaceOnUse" color-interpolation-filters="sRGB">
<feFlood flood-opacity="0" result="BackgroundImageFix"/>
<feColorMatrix in="SourceAlpha" type="matrix" values="0 0 0 0 0 0 0 0 0 0 0 0 0 0 0 0 0 0 127 0" result="hardAlpha"/>
<feOffset dx="0.917673" dy="0.917673"/>
<feGaussianBlur stdDeviation="0.764728"/>
<feComposite in2="hardAlpha" operator="out"/>
<feColorMatrix type="matrix" values="0 0 0 0 0 0 0 0 0 0 0 0 0 0 0 0 0 0 0.25 0"/>
<feBlend mode="normal" in2="BackgroundImageFix" result="effect1_dropShadow_82_730"/>
<feBlend mode="normal" in="SourceGraphic" in2="effect1_dropShadow_82_730" result="shape"/>
</filter>
</defs>
</svg>
