<svg width="87" height="87" viewBox="0 0 87 87" fill="none" xmlns="http://www.w3.org/2000/svg">
<g filter="url(#filter0_d_82_796)">
<path d="M39.1272 3.09841C41.9727 1.44975 45.4829 1.44975 48.3284 3.09841L76.5038 19.4232C79.3363 21.0643 81.08 24.09 81.08 27.3635V60.0694C81.08 63.3429 79.3363 66.3686 76.5038 68.0097L48.3283 84.3345C45.4829 85.9831 41.9727 85.9831 39.1272 84.3345L10.9518 68.0097C8.11933 66.3686 6.37558 63.3429 6.37558 60.0694V27.3635C6.37558 24.09 8.11933 21.0643 10.9518 19.4232L39.1272 3.09841Z" fill="#FFF0DD"/>
<path d="M40.2007 4.95142C42.3822 3.68744 45.0738 3.68744 47.2554 4.95142L75.4302 21.2756C77.6017 22.5338 78.939 24.8538 78.939 27.3635V60.0696C78.9389 62.5792 77.6016 64.8983 75.4302 66.1565L47.2554 82.4817C45.0738 83.7457 42.3822 83.7457 40.2007 82.4817L12.0249 66.1565C9.85368 64.8983 8.51715 62.579 8.51709 60.0696V27.3635C8.51709 24.8539 9.85344 22.5338 12.0249 21.2756L40.2007 4.95142Z" stroke="#70CFFB" stroke-width="4.28247"/>
</g>
<defs>
<filter id="filter0_d_82_796" x="5.76383" y="1.25016" width="77.7634" height="86.7679" filterUnits="userSpaceOnUse" color-interpolation-filters="sRGB">
<feFlood flood-opacity="0" result="BackgroundImageFix"/>
<feColorMatrix in="SourceAlpha" type="matrix" values="0 0 0 0 0 0 0 0 0 0 0 0 0 0 0 0 0 0 127 0" result="hardAlpha"/>
<feOffset dx="0.917673" dy="0.917673"/>
<feGaussianBlur stdDeviation="0.764728"/>
<feComposite in2="hardAlpha" operator="out"/>
<feColorMatrix type="matrix" values="0 0 0 0 0 0 0 0 0 0 0 0 0 0 0 0 0 0 0.25 0"/>
<feBlend mode="normal" in2="BackgroundImageFix" result="effect1_dropShadow_82_796"/>
<feBlend mode="normal" in="SourceGraphic" in2="effect1_dropShadow_82_796" result="shape"/>
</filter>
</defs>
</svg>
