<svg width="87" height="87" viewBox="0 0 87 87" fill="none" xmlns="http://www.w3.org/2000/svg">
<g filter="url(#filter0_d_82_788)">
<path d="M38.6644 2.66555C41.5098 1.01688 45.02 1.01689 47.8655 2.66555L76.041 18.9904C78.8734 20.6315 80.6171 23.6571 80.6171 26.9306V59.6366C80.6171 62.9101 78.8734 65.9357 76.0409 67.5768L47.8655 83.9016C45.02 85.5503 41.5098 85.5503 38.6644 83.9016L10.4889 67.5768C7.65644 65.9357 5.91269 62.9101 5.91269 59.6366V26.9306C5.91269 23.6571 7.65644 20.6315 10.4889 18.9904L38.6644 2.66555Z" fill="#FFF0DD"/>
<path d="M39.7378 4.51855C41.9193 3.25458 44.6109 3.25458 46.7925 4.51855L74.9673 20.8428C77.1388 22.1009 78.4761 24.421 78.4761 26.9307V59.6367C78.476 62.1463 77.1387 64.4655 74.9673 65.7236L46.7925 82.0488C44.6109 83.3128 41.9193 83.3128 39.7378 82.0488L11.562 65.7236C9.39078 64.4654 8.05425 62.1462 8.0542 59.6367V26.9307C8.0542 24.421 9.39055 22.101 11.562 20.8428L39.7378 4.51855Z" stroke="#70CFFB" stroke-width="4.28247"/>
</g>
<defs>
<filter id="filter0_d_82_788" x="5.30094" y="0.817295" width="77.7634" height="86.7679" filterUnits="userSpaceOnUse" color-interpolation-filters="sRGB">
<feFlood flood-opacity="0" result="BackgroundImageFix"/>
<feColorMatrix in="SourceAlpha" type="matrix" values="0 0 0 0 0 0 0 0 0 0 0 0 0 0 0 0 0 0 127 0" result="hardAlpha"/>
<feOffset dx="0.917673" dy="0.917673"/>
<feGaussianBlur stdDeviation="0.764728"/>
<feComposite in2="hardAlpha" operator="out"/>
<feColorMatrix type="matrix" values="0 0 0 0 0 0 0 0 0 0 0 0 0 0 0 0 0 0 0.25 0"/>
<feBlend mode="normal" in2="BackgroundImageFix" result="effect1_dropShadow_82_788"/>
<feBlend mode="normal" in="SourceGraphic" in2="effect1_dropShadow_82_788" result="shape"/>
</filter>
</defs>
</svg>
