<svg width="87" height="87" viewBox="0 0 87 87" fill="none" xmlns="http://www.w3.org/2000/svg">
<g filter="url(#filter0_d_82_778)">
<path d="M38.8284 3.09841C41.6739 1.44975 45.184 1.44975 48.0295 3.09841L76.205 19.4232C79.0374 21.0643 80.7812 24.09 80.7812 27.3635V60.0694C80.7812 63.3429 79.0374 66.3686 76.205 68.0097L48.0295 84.3345C45.184 85.9831 41.6739 85.9831 38.8284 84.3345L10.6529 68.0097C7.8205 66.3686 6.07675 63.3429 6.07675 60.0694V27.3635C6.07675 24.09 7.82051 21.0643 10.6529 19.4232L38.8284 3.09841Z" fill="#FFF0DD"/>
<path d="M39.9019 4.95142C42.0834 3.68744 44.775 3.68744 46.9565 4.95142L75.1313 21.2756C77.3029 22.5338 78.6401 24.8538 78.6401 27.3635V60.0696C78.6401 62.5792 77.3028 64.8983 75.1313 66.1565L46.9565 82.4817C44.775 83.7457 42.0834 83.7457 39.9019 82.4817L11.7261 66.1565C9.55485 64.8983 8.21832 62.579 8.21826 60.0696V27.3635C8.21826 24.8539 9.55461 22.5338 11.7261 21.2756L39.9019 4.95142Z" stroke="#70CFFB" stroke-width="4.28247"/>
</g>
<defs>
<filter id="filter0_d_82_778" x="5.465" y="1.25016" width="77.7634" height="86.7679" filterUnits="userSpaceOnUse" color-interpolation-filters="sRGB">
<feFlood flood-opacity="0" result="BackgroundImageFix"/>
<feColorMatrix in="SourceAlpha" type="matrix" values="0 0 0 0 0 0 0 0 0 0 0 0 0 0 0 0 0 0 127 0" result="hardAlpha"/>
<feOffset dx="0.917673" dy="0.917673"/>
<feGaussianBlur stdDeviation="0.764728"/>
<feComposite in2="hardAlpha" operator="out"/>
<feColorMatrix type="matrix" values="0 0 0 0 0 0 0 0 0 0 0 0 0 0 0 0 0 0 0.25 0"/>
<feBlend mode="normal" in2="BackgroundImageFix" result="effect1_dropShadow_82_778"/>
<feBlend mode="normal" in="SourceGraphic" in2="effect1_dropShadow_82_778" result="shape"/>
</filter>
</defs>
</svg>
