<svg width="40" height="41" viewBox="0 0 40 41" fill="none" xmlns="http://www.w3.org/2000/svg">
<path d="M13.1643 24.463C13.094 24.3407 13.0453 24.2072 13.0205 24.0684C13.048 24.2066 13.097 24.3397 13.1643 24.463ZM13.3411 24.6811C13.409 24.7484 13.4855 24.8068 13.5702 24.8487C13.4855 24.8054 13.4084 24.7488 13.3417 24.6811H13.3411Z" fill="#083042"/>
<path d="M20.2352 32.168H20.1924C19.7635 32.1698 19.341 32.0629 18.9646 31.8572L10.344 27.0394C9.83526 26.7544 9.52233 26.2258 9.52233 25.6547V15.8521C9.52233 15.4321 9.5985 15.0292 9.77622 14.6769L3.03561 10.9254C2.75633 11.5127 2.61256 12.1759 2.62082 12.8727V29.0626C2.62575 29.5309 2.75451 29.9895 2.99401 30.3919C3.23351 30.7943 3.57524 31.1261 3.98448 31.3537L18.2026 39.3106C18.8297 39.663 19.5323 39.8309 20.2267 39.8309V39.8226C20.2435 38.8071 20.2352 34.736 20.2352 32.168Z" fill="#083042"/>
<path d="M27.0008 16.4554L26.9498 16.3802C26.9075 16.3215 26.8656 16.271 26.8234 16.2126C26.8656 16.2627 26.9075 16.3218 26.9498 16.3802C26.9706 16.4026 26.9878 16.4278 27.0008 16.4554ZM19.9048 12.5278C19.9476 12.5278 19.9816 12.5195 20.0241 12.5195C19.9816 12.5278 19.939 12.5278 19.9048 12.5278Z" fill="#3DDB85"/>
<path d="M9.76757 14.6681C9.95674 14.2766 10.2574 13.9496 10.6317 13.7284L18.7439 8.98616C19.1155 8.76779 19.5378 8.65057 19.9688 8.64616C20.3997 8.64176 20.8243 8.75034 21.2002 8.96108L29.3975 13.5522C29.7654 13.7575 30.0813 14.0446 30.3207 14.3913L36.9515 10.4722C36.5571 9.90442 36.0388 9.43373 35.4358 9.09567L21.8943 1.51691C21.2744 1.17058 20.5748 0.992257 19.8648 0.999608C19.1548 1.00696 18.459 1.19973 17.8465 1.55882L4.45822 9.38076C3.84028 9.7418 3.34473 10.2798 3.03552 10.9252L9.76757 14.6681Z" fill="#3DDC84"/>
<path d="M13.1799 16.557C13.197 16.5233 13.2138 16.4897 13.2313 16.4652C13.2138 16.4985 13.1973 16.5233 13.1799 16.557Z" fill="#3DDB85"/>
<path d="M36.943 10.4722L30.3122 14.3912C30.5661 14.7605 30.7187 15.1967 30.7267 15.642V24.9748C30.7318 25.4022 30.6232 25.8233 30.412 26.195C30.2007 26.5666 29.8944 26.8754 29.5245 27.0897L21.4117 31.8325C21.0537 32.0415 20.6487 32.1569 20.2343 32.1681C20.2432 34.7281 20.2432 38.7989 20.2261 39.8145V39.8227C20.9372 39.8149 21.6343 39.624 22.2502 39.2684L35.6387 31.4379C36.8837 30.7078 37.646 29.3814 37.6288 27.9462V12.5452C37.6203 11.7982 37.3664 11.0849 36.943 10.4722Z" fill="#4285F4"/>
<path d="M27.1548 23.9763C27.1462 23.9935 27.1462 24.0103 27.1377 24.0277C27.1473 24.0122 27.1531 23.9946 27.1548 23.9763ZM27.0698 16.5655C27.0523 16.5233 27.0269 16.4897 27.0015 16.4478C27.0269 16.4897 27.0526 16.5319 27.0698 16.5655ZM20.9893 28.0719L26.4259 24.8913L20.9893 28.0725V28.0719ZM27.0866 24.1694C27.0695 24.2116 27.0441 24.2535 27.0266 24.2957C27.0441 24.2452 27.0609 24.203 27.0866 24.1694Z" fill="#4285F4"/>
<path d="M13.1557 16.6322C13.0867 16.7953 13.0438 16.9682 13.0287 17.1446C13.0201 17.2112 13.0201 17.2785 13.0201 17.3544V23.9259C13.0201 23.976 13.0201 24.0182 13.0287 24.0687C13.0458 24.2109 13.0966 24.3455 13.1725 24.4633C13.2236 24.5471 13.2826 24.6138 13.3422 24.6811C13.4102 24.7484 13.486 24.8068 13.5704 24.8493L19.3463 28.0805C19.5975 28.2193 19.8802 28.2915 20.1673 28.29H20.2269C20.4962 28.2809 20.7586 28.203 20.9892 28.0636L26.4258 24.8827C26.4598 24.8659 26.4852 24.8405 26.5191 24.824C26.5785 24.782 26.6378 24.7398 26.6886 24.6894C26.7681 24.6172 26.8418 24.5389 26.9085 24.4544C26.9507 24.3957 26.9932 24.3373 27.0272 24.2782C27.0523 24.2366 27.0697 24.1944 27.0862 24.1522C27.1034 24.1109 27.1291 24.0601 27.1459 24.01C27.1541 23.9928 27.1541 23.976 27.1627 23.9595C27.214 23.7965 27.2397 23.6266 27.2389 23.4557V17.203C27.2389 17.0858 27.2217 16.9766 27.1967 16.8677C27.1798 16.7919 27.1538 16.7246 27.1288 16.6573L27.078 16.5569C27.0611 16.5147 27.0351 16.4814 27.0101 16.4392L26.9593 16.3639C26.9171 16.3049 26.8746 16.2547 26.8323 16.196C26.6944 16.0352 26.5278 15.9015 26.3411 15.8014L20.8454 12.7217C20.7506 12.6683 20.6513 12.6233 20.5487 12.5871C20.411 12.5451 20.2688 12.5198 20.1251 12.5118H20.015C19.973 12.5118 19.9391 12.5118 19.8969 12.5198C19.7996 12.5285 19.7032 12.5453 19.6087 12.5703C19.5919 12.5785 19.5751 12.5785 19.5579 12.5874C19.431 12.621 19.3123 12.6795 19.1936 12.7465L13.757 15.9277C13.599 16.0201 13.4607 16.1428 13.3502 16.2887C13.3083 16.3474 13.2658 16.4061 13.2318 16.4649C13.215 16.4985 13.1982 16.5236 13.181 16.5572L13.1557 16.6322Z" fill="#D6F0FF"/>
<path d="M20.2261 28.2897H20.1668C19.8795 28.291 19.5967 28.219 19.3451 28.0804L13.5699 24.849C13.487 24.8027 13.4101 24.7463 13.3411 24.6811C13.2749 24.6164 13.2179 24.5429 13.1716 24.4627C13.1013 24.3404 13.0527 24.2069 13.0279 24.0681C13.019 24.0182 13.019 23.976 13.019 23.9258V17.3538C13.019 17.2868 13.019 17.2115 13.0279 17.1439C13.0441 16.968 13.0866 16.7952 13.1548 16.6318L11.5963 15.6839L9.76707 14.6683C9.59761 15.0207 9.51318 15.4233 9.51318 15.8433V25.6462C9.51824 25.9284 9.5966 26.2045 9.7406 26.4473C9.88459 26.6902 10.0893 26.8914 10.3345 27.0312L18.9475 31.857C19.3225 32.0662 19.7459 32.1734 20.1753 32.1677H20.2181C20.2181 30.917 20.2093 30.0274 20.2093 30.0274L20.2261 28.2897Z" fill="#083042"/>
<path d="M20.2261 28.2897H20.1668C19.8795 28.291 19.5967 28.219 19.3451 28.0804L13.5699 24.849C13.487 24.8027 13.4101 24.7463 13.3411 24.6811C13.2749 24.6164 13.2179 24.5429 13.1716 24.4627C13.1013 24.3404 13.0527 24.2069 13.0279 24.0681C13.019 24.0182 13.019 23.976 13.019 23.9258V17.3538C13.019 17.2868 13.019 17.2115 13.0279 17.1439C13.0441 16.968 13.0866 16.7952 13.1548 16.6318L11.5963 15.6839L9.76707 14.6683C9.59761 15.0207 9.51318 15.4233 9.51318 15.8433V25.6462C9.51824 25.9284 9.5966 26.2045 9.7406 26.4473C9.88459 26.6902 10.0893 26.8914 10.3345 27.0312L18.9475 31.857C19.3225 32.0662 19.7459 32.1734 20.1753 32.1677H20.2181C20.2181 30.917 20.2093 30.0274 20.2093 30.0274L20.2261 28.2897Z" fill="#041619"/>
<path d="M29.3887 13.5522L21.1911 8.96075C20.8152 8.75015 20.3906 8.64167 19.9597 8.64613C19.5288 8.65058 19.1066 8.76781 18.7351 8.98614L10.6229 13.7287C10.2464 13.9475 9.94504 14.2752 9.75842 14.6687L11.5968 15.6842L13.1547 16.6322L13.1798 16.5569C13.1969 16.523 13.2138 16.4896 13.2306 16.4646C13.2645 16.4058 13.3071 16.3471 13.3493 16.2884C13.4594 16.1455 13.5949 16.0284 13.7561 15.9274L19.1924 12.7462C19.3086 12.681 19.4301 12.6278 19.5567 12.5871C19.5739 12.5788 19.5907 12.5788 19.6075 12.57C19.7017 12.5443 19.7981 12.5277 19.8953 12.5198C19.9376 12.5198 19.9715 12.5112 20.014 12.5112H20.1242C20.2676 12.5204 20.4095 12.5452 20.5475 12.5865C20.6515 12.6195 20.7509 12.6645 20.8439 12.7214L26.3396 15.8017C26.5251 15.9037 26.6915 16.0371 26.8314 16.196C26.8733 16.2462 26.9162 16.3052 26.9581 16.3636L27.0091 16.4389L28.4147 15.5077L30.3201 14.3747C30.0745 14.0471 29.7612 13.7535 29.3887 13.5522Z" fill="#3DDB85"/>
<path d="M29.3887 13.5522L21.1911 8.96075C20.8152 8.75015 20.3906 8.64167 19.9597 8.64613C19.5288 8.65058 19.1066 8.76781 18.7351 8.98614L10.6229 13.7287C10.2464 13.9475 9.94504 14.2752 9.75842 14.6687L11.5968 15.6842L13.1547 16.6322L13.1798 16.5569C13.1969 16.523 13.2138 16.4896 13.2306 16.4646C13.2645 16.4058 13.3071 16.3471 13.3493 16.2884C13.4594 16.1455 13.5949 16.0284 13.7561 15.9274L19.1924 12.7462C19.3086 12.681 19.4301 12.6278 19.5567 12.5871C19.5739 12.5788 19.5907 12.5788 19.6075 12.57C19.7017 12.5443 19.7981 12.5277 19.8953 12.5198C19.9376 12.5198 19.9715 12.5112 20.014 12.5112H20.1242C20.2676 12.5204 20.4095 12.5452 20.5475 12.5865C20.6515 12.6195 20.7509 12.6645 20.8439 12.7214L26.3396 15.8017C26.5251 15.9037 26.6915 16.0371 26.8314 16.196C26.8733 16.2462 26.9162 16.3052 26.9581 16.3636L27.0091 16.4389L28.4147 15.5077L30.3201 14.3747C30.0745 14.0471 29.7612 13.7535 29.3887 13.5522Z" fill="#37BF6E"/>
<path d="M27.0008 16.456C27.0262 16.4976 27.0434 16.5312 27.0684 16.5734L27.1195 16.6741C27.1908 16.8471 27.2282 17.0323 27.2297 17.2195V23.4725C27.2303 23.6433 27.2045 23.8131 27.1532 23.976C27.1449 23.9925 27.1449 24.0096 27.1364 24.0262C27.1202 24.0753 27.1005 24.1231 27.0773 24.1693C27.0599 24.2106 27.0345 24.2528 27.0177 24.2947C26.984 24.3538 26.9415 24.4122 26.899 24.4712C26.8324 24.5555 26.7588 24.634 26.679 24.7058C26.6283 24.7563 26.5689 24.7982 26.5096 24.8404C26.4756 24.857 26.4506 24.8823 26.4166 24.8992L20.9797 28.0798C20.7459 28.2118 20.4853 28.2894 20.2174 28.3068V30.0439C20.2174 30.0439 20.2174 30.9338 20.226 32.1843C20.641 32.1769 21.0468 32.0613 21.4033 31.8487L29.5156 27.1062C30.2696 26.6617 30.7269 25.8557 30.7183 24.9915V15.6585C30.7101 15.2052 30.5577 14.7769 30.3039 14.4077L28.3979 15.541L27.0008 16.456Z" fill="#4285F4"/>
<path d="M27.0008 16.456C27.0262 16.4976 27.0434 16.5312 27.0684 16.5734L27.1195 16.6741C27.1908 16.8471 27.2282 17.0323 27.2297 17.2195V23.4725C27.2303 23.6433 27.2045 23.8131 27.1532 23.976C27.1449 23.9925 27.1449 24.0096 27.1364 24.0262C27.1202 24.0753 27.1005 24.1231 27.0773 24.1693C27.0599 24.2106 27.0345 24.2528 27.0177 24.2947C26.984 24.3538 26.9415 24.4122 26.899 24.4712C26.8324 24.5555 26.7588 24.634 26.679 24.7058C26.6283 24.7563 26.5689 24.7982 26.5096 24.8404C26.4756 24.857 26.4506 24.8823 26.4166 24.8992L20.9797 28.0798C20.7459 28.2118 20.4853 28.2894 20.2174 28.3068V30.0439C20.2174 30.0439 20.2174 30.9338 20.226 32.1843C20.641 32.1769 21.0468 32.0613 21.4033 31.8487L29.5156 27.1062C30.2696 26.6617 30.7269 25.8557 30.7183 24.9915V15.6585C30.7101 15.2052 30.5577 14.7769 30.3039 14.4077L28.3979 15.541L27.0008 16.456Z" fill="#3870B2"/>
<path d="M19.5663 12.5957C19.439 12.6294 19.3204 12.6881 19.2023 12.7548L13.7654 15.936L19.2017 12.7554C19.3148 12.6852 19.4374 12.6316 19.5657 12.5963L19.5663 12.5957Z" fill="#D6F0FF"/>
<path opacity="0.1" d="M19.5663 12.5957C19.439 12.6294 19.3204 12.6881 19.2023 12.7548L13.7654 15.936L19.2017 12.7554C19.3148 12.6852 19.4374 12.6316 19.5657 12.5963L19.5663 12.5957Z" fill="black"/>
<path d="M27.1196 16.6661C27.1458 16.7346 27.1683 16.8045 27.1869 16.8754C27.1701 16.8084 27.1441 16.7414 27.119 16.6661H27.1196Z" fill="#D6F0FF"/>
<path opacity="0.1" d="M27.1196 16.6661C27.1458 16.7346 27.1683 16.8045 27.1869 16.8754C27.1701 16.8084 27.1441 16.7414 27.119 16.6661H27.1196Z" fill="black"/>
</svg>
