<svg width="34" height="35" viewBox="0 0 34 35" fill="none" xmlns="http://www.w3.org/2000/svg">
<g clip-path="url(#clip0_82_866)">
<path d="M33.8003 0.610352H-0.267822V34.6785H33.8003V0.610352Z" fill="#F7DF1E"/>
<path d="M22.6173 27.2261C23.3035 28.3466 24.1963 29.1702 25.7754 29.1702C27.1019 29.1702 27.9492 28.5072 27.9492 27.5912C27.9492 26.4934 27.0786 26.1046 25.6186 25.466L24.8182 25.1226C22.5081 24.1384 20.9734 22.9054 20.9734 20.299C20.9734 17.898 22.8028 16.0702 25.6618 16.0702C27.6973 16.0702 29.1606 16.7786 30.215 18.6334L27.7221 20.2341C27.1733 19.2499 26.5811 18.8622 25.6618 18.8622C24.7241 18.8622 24.1298 19.457 24.1298 20.2341C24.1298 21.1945 24.7247 21.5833 26.0982 22.1781L26.8985 22.521C29.6186 23.6874 31.1544 24.8765 31.1544 27.5501C31.1544 30.4323 28.8902 32.0114 25.8495 32.0114C22.8763 32.0114 20.9556 30.5946 20.0157 28.7376L22.6173 27.2261ZM11.3083 27.5036C11.8112 28.3958 12.2687 29.1502 13.3686 29.1502C14.4204 29.1502 15.0839 28.7387 15.0839 27.1385V16.253H18.2853V27.1818C18.2853 30.4967 16.3418 32.0054 13.5049 32.0054C10.9417 32.0054 9.4573 30.6789 8.70239 29.0812L11.3083 27.5036Z" fill="black"/>
</g>
<defs>
<clipPath id="clip0_82_866">
<rect x="-0.267822" y="0.610352" width="34.0681" height="34.0681" rx="2.18867" fill="white"/>
</clipPath>
</defs>
</svg>
