<svg width="35" height="35" viewBox="0 0 35 35" fill="none" xmlns="http://www.w3.org/2000/svg">
<g clip-path="url(#clip0_82_838)">
<path d="M17.6978 34.1314C26.9894 34.1314 34.5218 26.599 34.5218 17.3074C34.5218 8.01576 26.9894 0.483398 17.6978 0.483398C8.40614 0.483398 0.873779 8.01576 0.873779 17.3074C0.873779 26.599 8.40614 34.1314 17.6978 34.1314Z" fill="#5C2D91"/>
<path opacity="0.1" d="M6.03669 5.21509C4.3264 6.73914 2.94538 8.59642 1.97827 10.6731C1.01116 12.7497 0.478345 15.002 0.412475 17.2919C0.346604 19.5817 0.74907 21.8609 1.5952 23.9898C2.44134 26.1186 3.71331 28.0522 5.33316 29.672C6.953 31.2919 8.88659 32.5638 11.0154 33.41C13.1442 34.2561 15.4234 34.6586 17.7133 34.5927C20.0031 34.5268 22.2554 33.994 24.3321 33.0269C26.4088 32.0598 28.266 30.6788 29.7901 28.9685L6.03669 5.21509Z" fill="white"/>
<path d="M4.76432 20.0675C4.66618 20.0691 4.56879 20.0503 4.47829 20.0122C4.3878 19.9742 4.30617 19.9179 4.23857 19.8467C4.16911 19.7781 4.11422 19.6962 4.07718 19.6058C4.04014 19.5155 4.02172 19.4186 4.02301 19.321C4.02231 19.2234 4.04101 19.1267 4.07801 19.0365C4.11502 18.9462 4.16959 18.8642 4.23857 18.7952C4.30551 18.7228 4.38689 18.6653 4.47746 18.6264C4.56802 18.5874 4.66575 18.5679 4.76432 18.5691C4.86275 18.5689 4.96019 18.5888 5.05061 18.6277C5.14104 18.6666 5.22253 18.7236 5.29007 18.7952C5.36024 18.8636 5.41594 18.9453 5.45387 19.0357C5.49181 19.126 5.5112 19.223 5.51089 19.321C5.5118 19.419 5.49269 19.5162 5.45472 19.6066C5.41675 19.697 5.36073 19.7787 5.29007 19.8467C5.22189 19.9171 5.14016 19.973 5.0498 20.0109C4.95944 20.0489 4.86233 20.0681 4.76432 20.0675Z" fill="white"/>
<path d="M15.2109 19.9361H13.8335L8.90719 12.2917C8.78448 12.1034 8.68225 11.9024 8.60225 11.6923H8.56019C8.60701 12.1288 8.62457 12.5679 8.61277 13.0067V19.9361H7.49292V10.3517H8.94925L13.7441 17.8594C13.9439 18.1713 14.0736 18.3851 14.1331 18.5008H14.1594C14.104 18.0333 14.0811 17.5625 14.0911 17.0918V10.3517H15.2109V19.9361Z" fill="white"/>
<path d="M22.7923 19.9361H17.6978V10.3517H22.5557V11.3664H18.8439V14.5524H22.3033V15.5619H18.8439V18.8846H22.7975L22.7923 19.9361Z" fill="white"/>
<path d="M30.3158 11.3664H27.5293V19.9361H26.4095V11.3664H23.6545V10.3517H30.3158V11.3664Z" fill="white"/>
<path d="M14.6063 26.4555C14.2268 26.6393 13.8081 26.7277 13.3866 26.7131C13.1065 26.7257 12.827 26.6783 12.5667 26.574C12.3065 26.4697 12.0716 26.311 11.8777 26.1085C11.4914 25.676 11.2878 25.1106 11.3099 24.5312C11.2957 24.2175 11.3448 23.9041 11.454 23.6097C11.5633 23.3153 11.7306 23.0458 11.946 22.8173C12.156 22.6022 12.4083 22.4332 12.6871 22.321C12.9659 22.2087 13.265 22.1557 13.5653 22.1653C13.9248 22.153 14.2829 22.2157 14.6168 22.3493V22.8751C14.2953 22.6971 13.9328 22.6065 13.5653 22.6122C13.3337 22.6057 13.1034 22.6493 12.8901 22.74C12.6769 22.8308 12.4858 22.9665 12.3298 23.138C12.0019 23.5115 11.8322 23.998 11.8567 24.4944C11.8321 24.9647 11.9903 25.4262 12.2983 25.7825C12.446 25.9413 12.6263 26.0663 12.8269 26.1489C13.0274 26.2315 13.2435 26.2697 13.4602 26.2609C13.8639 26.2715 14.2625 26.1696 14.6116 25.9665L14.6063 26.4555Z" fill="#F2F2F2"/>
<path d="M16.7567 26.7131C16.5474 26.7198 16.3391 26.6816 16.1459 26.6008C15.9527 26.5201 15.7791 26.3988 15.6369 26.2451C15.3494 25.9243 15.2001 25.503 15.2215 25.0727C15.2084 24.8473 15.2402 24.6215 15.3151 24.4085C15.39 24.1955 15.5065 23.9995 15.6579 23.8319C15.8123 23.6812 15.9961 23.5638 16.1977 23.4869C16.3994 23.41 16.6147 23.3754 16.8303 23.3851C17.0341 23.3742 17.2378 23.4076 17.4275 23.4829C17.6172 23.5582 17.7883 23.6737 17.9291 23.8214C18.2086 24.1582 18.3495 24.5886 18.3234 25.0254C18.3455 25.4687 18.1926 25.903 17.8976 26.2346C17.7526 26.3913 17.5758 26.515 17.379 26.5976C17.1822 26.6801 16.97 26.7195 16.7567 26.7131ZM16.7935 23.8372C16.6489 23.8311 16.5048 23.8577 16.3718 23.9151C16.2389 23.9724 16.1207 24.059 16.0259 24.1684C15.8236 24.4289 15.7227 24.754 15.742 25.0832C15.7236 25.4027 15.8248 25.7176 16.0259 25.9665C16.1217 26.0743 16.2402 26.1595 16.373 26.2159C16.5058 26.2723 16.6494 26.2984 16.7935 26.2925C16.9346 26.3008 17.0757 26.2767 17.206 26.222C17.3364 26.1673 17.4524 26.0835 17.5453 25.977C17.7365 25.7158 17.8295 25.3957 17.8082 25.0727C17.829 24.7482 17.736 24.4266 17.5453 24.1632C17.4537 24.0544 17.3382 23.9684 17.2077 23.9119C17.0773 23.8553 16.9355 23.8298 16.7935 23.8372Z" fill="#F2F2F2"/>
<path d="M20.7787 23.9949C20.6651 23.9205 20.5303 23.8854 20.3949 23.895C20.289 23.8989 20.1856 23.9287 20.0939 23.9819C20.0023 24.035 19.9251 24.1099 19.8691 24.1999C19.7126 24.4477 19.6373 24.7381 19.6536 25.0306V26.6394H19.1278V23.4849H19.6536V24.1421C19.7114 23.9388 19.8263 23.7563 19.9848 23.6164C20.1219 23.4974 20.2974 23.432 20.479 23.4324C20.5806 23.4278 20.6822 23.442 20.7787 23.4744V23.9949Z" fill="#F2F2F2"/>
<path d="M23.8596 25.1936H21.6356C21.6207 25.4875 21.7164 25.7763 21.9038 26.0032C22.0012 26.1004 22.1181 26.176 22.2467 26.2249C22.3754 26.2738 22.5129 26.295 22.6503 26.2871C23.0067 26.2836 23.3514 26.1594 23.6282 25.9349V26.4081C23.3032 26.6223 22.9182 26.7273 22.5294 26.7077C22.3332 26.7176 22.1373 26.6841 21.9555 26.6096C21.7738 26.5351 21.6107 26.4214 21.4779 26.2766C21.2042 25.9352 21.0674 25.5042 21.0941 25.0674C21.0752 24.6296 21.2237 24.201 21.5095 23.8687C21.6395 23.7185 21.8013 23.5991 21.9831 23.519C22.165 23.439 22.3624 23.4004 22.561 23.406C22.7403 23.396 22.9195 23.4267 23.0853 23.4959C23.251 23.5651 23.3989 23.671 23.5178 23.8056C23.7599 24.1248 23.8793 24.5204 23.8543 24.9202L23.8596 25.1936ZM23.3338 24.7677C23.3445 24.5241 23.2701 24.2844 23.1235 24.0895C23.0516 24.0082 22.9622 23.9443 22.862 23.9024C22.7619 23.8605 22.6536 23.8418 22.5452 23.8477C22.432 23.8463 22.3198 23.8685 22.2158 23.9128C22.1117 23.9572 22.0179 24.0227 21.9406 24.1053C21.7675 24.2883 21.6587 24.5227 21.6304 24.773L23.3338 24.7677Z" fill="#F2F2F2"/>
</g>
<defs>
<clipPath id="clip0_82_838">
<rect width="33.648" height="33.648" fill="white" transform="translate(0.873779 0.483398)"/>
</clipPath>
</defs>
</svg>
