<svg width="34" height="35" viewBox="0 0 34 35" fill="none" xmlns="http://www.w3.org/2000/svg">
<path d="M17.0204 2.01282C9.25497 2.01282 9.73984 5.38037 9.73984 5.38037L9.74846 8.86925H17.1589V9.91671H6.80516C6.80516 9.91671 1.83606 9.35315 1.83606 17.1884C1.83606 25.0239 6.17321 24.746 6.17321 24.746H8.76161V21.11C8.76161 21.11 8.62207 16.7729 13.0295 16.7729H20.3793C20.3793 16.7729 24.5087 16.8396 24.5087 12.782V6.07304C24.5087 6.07304 25.1358 2.01282 17.0204 2.01282ZM12.9343 4.35902C13.1094 4.35886 13.2828 4.39324 13.4447 4.46018C13.6065 4.52712 13.7535 4.62531 13.8773 4.74913C14.0011 4.87296 14.0993 5.01998 14.1663 5.1818C14.2332 5.34361 14.2676 5.51703 14.2674 5.69215C14.2676 5.86726 14.2332 6.04069 14.1663 6.2025C14.0993 6.36431 14.0011 6.51134 13.8773 6.63516C13.7535 6.75898 13.6065 6.85718 13.4447 6.92412C13.2828 6.99106 13.1094 7.02543 12.9343 7.02527C12.7592 7.02543 12.5858 6.99106 12.424 6.92412C12.2621 6.85718 12.1151 6.75898 11.9913 6.63516C11.8675 6.51134 11.7693 6.36431 11.7023 6.2025C11.6354 6.04069 11.601 5.86726 11.6012 5.69215C11.601 5.51703 11.6354 5.34361 11.7023 5.1818C11.7693 5.01998 11.8675 4.87296 11.9913 4.74913C12.1151 4.62531 12.2621 4.52712 12.424 4.46018C12.5858 4.39324 12.7592 4.35886 12.9343 4.35902V4.35902Z" fill="url(#paint0_linear_82_943)"/>
<path d="M17.241 32.4428C25.0064 32.4428 24.5215 29.0753 24.5215 29.0753L24.5129 25.5865H17.1024V24.5391H27.4561C27.4561 24.5391 32.4252 25.1026 32.4252 17.2671C32.4252 9.43171 28.088 9.70959 28.088 9.70959H25.4996V13.3455C25.4996 13.3455 25.6392 17.6826 21.2317 17.6826H13.8819C13.8819 17.6826 9.75257 17.6159 9.75257 21.6736V28.3827C9.75257 28.3827 9.12553 32.4428 17.2408 32.4428H17.241ZM21.3271 30.0969C21.1519 30.097 20.9785 30.0627 20.8167 29.9957C20.6549 29.9288 20.5079 29.8306 20.384 29.7068C20.2602 29.5829 20.162 29.4359 20.0951 29.2741C20.0281 29.1123 19.9938 28.9389 19.9939 28.7637C19.9938 28.5886 20.0281 28.4152 20.095 28.2533C20.162 28.0915 20.2602 27.9445 20.384 27.8206C20.5078 27.6968 20.6549 27.5986 20.8167 27.5317C20.9785 27.4647 21.1519 27.4303 21.3271 27.4305C21.5022 27.4303 21.6756 27.4647 21.8374 27.5316C21.9992 27.5986 22.1462 27.6968 22.2701 27.8206C22.3939 27.9444 22.4921 28.0915 22.559 28.2533C22.626 28.4151 22.6603 28.5885 22.6602 28.7636C22.6603 28.9387 22.626 29.1122 22.559 29.274C22.4921 29.4358 22.3939 29.5828 22.2701 29.7066C22.1462 29.8305 21.9992 29.9286 21.8374 29.9956C21.6756 30.0625 21.5022 30.0969 21.3271 30.0967V30.0969Z" fill="url(#paint1_linear_82_943)"/>
<defs>
<linearGradient id="paint0_linear_82_943" x1="4.77566" y1="4.74981" x2="19.9347" y2="19.7576" gradientUnits="userSpaceOnUse">
<stop stop-color="#387EB8"/>
<stop offset="1" stop-color="#366994"/>
</linearGradient>
<linearGradient id="paint1_linear_82_943" x1="14.0803" y1="14.3869" x2="30.3594" y2="29.776" gradientUnits="userSpaceOnUse">
<stop stop-color="#FFE052"/>
<stop offset="1" stop-color="#FFC331"/>
</linearGradient>
</defs>
</svg>
