<svg width="34" height="35" viewBox="0 0 34 35" fill="none" xmlns="http://www.w3.org/2000/svg">
<path d="M17.1306 20.2739C18.8622 20.2739 20.266 18.9458 20.266 17.3074C20.266 15.6691 18.8622 14.3409 17.1306 14.3409C15.399 14.3409 13.9952 15.6691 13.9952 17.3074C13.9952 18.9458 15.399 20.2739 17.1306 20.2739Z" fill="#61DAFB"/>
<path d="M17.1306 23.3851C26.4223 23.3851 33.9547 20.664 33.9547 17.3074C33.9547 13.9508 26.4223 11.2297 17.1306 11.2297C7.839 11.2297 0.306641 13.9508 0.306641 17.3074C0.306641 20.664 7.839 23.3851 17.1306 23.3851Z" stroke="#61DAFB" stroke-width="1.52946"/>
<path d="M11.5675 20.3462C16.2134 27.9596 22.4702 32.7709 25.5426 31.0926C28.6151 29.4143 27.3396 21.8819 22.6937 14.2686C18.0479 6.65523 11.7911 1.84393 8.71864 3.52224C5.64623 5.20054 6.92173 12.7329 11.5675 20.3462Z" stroke="#61DAFB" stroke-width="1.52946"/>
<path d="M11.5675 14.2685C6.9217 21.8819 5.6462 29.4142 8.71861 31.0925C11.791 32.7708 18.0479 27.9595 22.6937 20.3462C27.3395 12.7329 28.615 5.2005 25.5426 3.5222C22.4702 1.84389 16.2133 6.65518 11.5675 14.2685Z" stroke="#61DAFB" stroke-width="1.52946"/>
</svg>
