<svg width="34" height="35" viewBox="0 0 34 35" fill="none" xmlns="http://www.w3.org/2000/svg">
<path d="M17.1306 34.1314C26.4223 34.1314 33.9547 26.599 33.9547 17.3074C33.9547 8.01576 26.4223 0.483398 17.1306 0.483398C7.839 0.483398 0.306641 8.01576 0.306641 17.3074C0.306641 26.599 7.839 34.1314 17.1306 34.1314Z" fill="#35CCFF"/>
<path d="M20.156 5.63923L7.13732 26.0847L14.9878 33.9962C15.6895 34.0854 16.4047 34.1314 17.1306 34.1314C25.7418 34.1314 32.8408 27.6615 33.8346 19.3179L20.156 5.63923Z" fill="#00BAFF"/>
<path d="M22.8896 13.879C21.5195 12.6493 20.9438 10.788 21.2243 8.96855C21.2638 8.71251 21.2785 8.44825 21.2659 8.17834C21.1708 6.14816 19.4977 4.50664 17.4661 4.44775C15.2476 4.38348 13.429 6.16268 13.429 8.36669C13.429 8.69713 13.4699 9.01803 13.5469 9.32454C13.9941 11.1055 13.5528 12.9888 12.2937 14.3253C11.0298 15.6669 10.2304 17.4685 10.2304 19.453C10.2304 24.0233 12.009 26.2259 14.5538 26.9198C15.1393 26.657 15.9884 26.4916 16.9334 26.4916C17.8323 26.4916 18.6441 26.6413 19.2251 26.8821C22.3651 26.2526 23.8547 24.7233 24.894 21.1923C25.7241 18.372 24.4372 15.2679 22.8896 13.879Z" fill="#333333"/>
<path d="M22.8896 13.879C21.5195 12.6493 20.9438 10.788 21.2243 8.96855C21.2638 8.71251 21.2785 8.44825 21.2659 8.17834C21.1708 6.14816 19.4977 4.50664 17.4661 4.44775C17.2855 4.44249 17.108 4.45071 16.9335 4.46918V26.4916C17.9798 26.4916 18.9087 26.6942 19.4921 27.0075C22.463 26.5443 23.8839 24.6244 24.894 21.1923C25.7241 18.372 24.4372 15.2679 22.8896 13.879Z" fill="black"/>
<path d="M11.8921 20.3794C11.8921 17.3997 14.2794 10.4995 17.2242 10.4995C20.169 10.4995 22.5562 17.4346 22.5562 20.3794C22.5562 23.3242 20.169 25.7115 17.2242 25.7115C14.2794 25.7115 11.8921 23.3242 11.8921 20.3794Z" fill="white"/>
<path d="M17.2242 10.4995C17.1267 10.4995 17.0298 10.5075 16.9335 10.5223V25.7032C17.0298 25.7084 17.1266 25.7115 17.2242 25.7115C20.169 25.7115 22.5563 23.3242 22.5563 20.3794C22.5563 17.4346 20.169 10.4995 17.2242 10.4995Z" fill="#C0C2C1"/>
<path d="M15.2577 10.1861C15.7427 10.1861 16.1359 9.65238 16.1359 8.99398C16.1359 8.33558 15.7427 7.80184 15.2577 7.80184C14.7726 7.80184 14.3795 8.33558 14.3795 8.99398C14.3795 9.65238 14.7726 10.1861 15.2577 10.1861Z" fill="#E6E6E6"/>
<path d="M15.2577 10.0375C15.4982 10.0375 15.6932 9.69154 15.6932 9.26474C15.6932 8.83794 15.4982 8.49195 15.2577 8.49195C15.0171 8.49195 14.8221 8.83794 14.8221 9.26474C14.8221 9.69154 15.0171 10.0375 15.2577 10.0375Z" fill="#000100"/>
<path d="M18.3846 10.1861C18.8696 10.1861 19.2628 9.65238 19.2628 8.99398C19.2628 8.33558 18.8696 7.80184 18.3846 7.80184C17.8995 7.80184 17.5064 8.33558 17.5064 8.99398C17.5064 9.65238 17.8995 10.1861 18.3846 10.1861Z" fill="#E6E6E6"/>
<path d="M18.3846 10.0375C18.6251 10.0375 18.8201 9.69154 18.8201 9.26474C18.8201 8.83794 18.6251 8.49195 18.3846 8.49195C18.144 8.49195 17.949 8.83794 17.949 9.26474C17.949 9.69154 18.144 10.0375 18.3846 10.0375Z" fill="#000100"/>
<path d="M19.5609 11.0326C19.8477 11.6443 17.6634 12.8047 16.9027 12.8047C15.954 12.8047 13.9726 11.4024 14.2445 11.0326C14.752 10.3426 15.8598 9.22919 16.7694 9.22919C17.4247 9.22919 19.366 10.617 19.5609 11.0326Z" fill="#FE9A0F"/>
<path d="M19.5609 11.0326C19.3802 10.6475 17.7002 9.42792 16.9335 9.25133V12.8034C17.7196 12.7745 19.844 11.6365 19.5609 11.0326Z" fill="#E2810C"/>
<path d="M22.8855 20.5769C23.2731 21.3256 23.8496 22.0328 24.5931 22.1965C25.1415 22.3172 25.5563 22.7838 25.6174 23.342C25.6259 23.4194 25.6374 23.4971 25.6521 23.575C25.7468 24.0797 25.9611 24.5315 26.2601 24.9069C26.709 25.4705 26.3854 26.3111 25.6775 26.4453L20.0871 27.5047C18.8694 27.7355 17.9534 26.4153 18.5959 25.3555L21.6826 20.516C21.9715 20.0629 22.6385 20.0997 22.8855 20.5769Z" fill="#DD7F10"/>
<path d="M16.8937 12.4581C16.0993 12.4581 15.289 12.0698 14.4811 11.301L14.7529 11.0153C15.5584 11.7817 16.3492 12.1307 17.1029 12.053C18.1433 11.9455 18.7696 11.0551 18.7758 11.0461L19.1003 11.2702C19.0707 11.313 18.3625 12.3193 17.1435 12.4452C17.0603 12.4538 16.977 12.4581 16.8937 12.4581Z" fill="#AE4E32"/>
<path d="M17.1028 12.053C17.0467 12.0588 16.9901 12.0614 16.9335 12.0625V12.457C17.0035 12.4558 17.0735 12.4524 17.1433 12.4452C18.3624 12.3193 19.0705 11.3129 19.1001 11.2702L18.7756 11.0461C18.7695 11.0551 18.1432 11.9455 17.1028 12.053Z" fill="#9E402B"/>
<path d="M23.646 23.2293C24.6351 23.2293 25.4368 22.4275 25.4368 21.4385C25.4368 20.4494 24.6351 19.6476 23.646 19.6476C22.657 19.6476 21.8552 20.4494 21.8552 21.4385C21.8552 22.4275 22.657 23.2293 23.646 23.2293Z" fill="black"/>
<path d="M11.5446 19.4761C11.5446 19.4761 13.4582 21.8091 14.8219 22.3349C16.1855 22.8606 14.1733 24.3871 12.3332 23.2295C10.493 22.072 11.5446 19.4761 11.5446 19.4761Z" fill="#333333"/>
<path d="M10.5161 20.5769C10.1284 21.3256 9.55196 22.0328 8.80841 22.1965C8.26006 22.3172 7.84531 22.7838 7.78412 23.342C7.77564 23.4194 7.76414 23.4971 7.74955 23.575C7.65485 24.0797 7.44054 24.5315 7.14152 24.9069C6.6926 25.4705 7.0162 26.3111 7.72412 26.4453L13.3145 27.5047C14.5322 27.7355 15.4482 26.4153 14.8057 25.3555L11.719 20.516C11.4301 20.0629 10.763 20.0997 10.5161 20.5769Z" fill="#FE9B0E"/>
</svg>
