<svg width="35" height="35" viewBox="0 0 35 35" fill="none" xmlns="http://www.w3.org/2000/svg">
<g filter="url(#filter0_d_82_781)">
<g clip-path="url(#clip0_82_781)">
<path d="M1.84009 2.15149H32.7212V33.0326H1.84009V2.15149Z" fill="#017ACB"/>
<path d="M16.6678 13.5871H18.1492V16.1444H14.1443V27.5222L14.0381 27.5511C13.8934 27.5897 11.9874 27.5897 11.5773 27.5463L11.2492 27.5174V16.1444H7.24426V13.5871L8.51328 13.5726C9.20811 13.563 10.9934 13.563 12.4796 13.5726C13.9657 13.5823 15.8475 13.5871 16.6678 13.5871V13.5871ZM27.9732 26.3159C27.3845 26.9383 26.7524 27.2858 25.7006 27.5704C25.2422 27.6959 25.165 27.7007 24.1324 27.6959C23.0998 27.6911 23.0178 27.6911 22.5159 27.5608C21.218 27.2279 20.1709 26.5765 19.4568 25.6548C19.2541 25.3943 18.9212 24.8539 18.9212 24.7863C18.9212 24.767 18.9694 24.7236 19.0322 24.6946C19.0949 24.6657 19.2252 24.5837 19.3313 24.5209C19.4375 24.4582 19.6305 24.3424 19.7608 24.2749C19.891 24.2073 20.2674 23.9853 20.5955 23.7875C20.9236 23.5897 21.2228 23.4304 21.2566 23.4304C21.2903 23.4304 21.3531 23.498 21.4013 23.58C21.6908 24.0674 22.3664 24.6898 22.8441 24.9021C23.1384 25.0276 23.7898 25.1675 24.1034 25.1675C24.3929 25.1675 24.9237 25.0421 25.2084 24.9118C25.5124 24.7718 25.6668 24.6319 25.8501 24.3521C25.9756 24.1542 25.9901 24.1011 25.9852 23.7248C25.9852 23.3774 25.9659 23.2809 25.8694 23.1216C25.5992 22.6777 25.2325 22.4461 23.7464 21.7899C22.212 21.1095 21.522 20.7042 20.9622 20.159C20.5473 19.7537 20.4652 19.6427 20.2047 19.136C19.8669 18.4847 19.8235 18.2723 19.8187 17.3025C19.8138 16.6221 19.8283 16.4002 19.9007 16.1686C20.002 15.8212 20.3301 15.1505 20.4797 14.9816C20.7885 14.6197 20.8995 14.5087 21.1166 14.3302C21.7729 13.7898 22.7958 13.4327 23.7753 13.3989C23.8863 13.3989 24.253 13.4182 24.5956 13.4424C25.5799 13.5244 26.2506 13.7656 26.8972 14.2819C27.3845 14.6679 28.1228 15.5751 28.0504 15.6957C28.0022 15.7681 26.0769 17.0516 25.9515 17.0902C25.8743 17.1143 25.8212 17.0854 25.715 16.9599C25.0588 16.1734 24.7934 16.0045 24.1565 15.9659C23.7029 15.937 23.4617 15.99 23.1577 16.1927C22.8392 16.405 22.6848 16.7283 22.6848 17.177C22.6896 17.8333 22.9406 18.1421 23.867 18.6005C24.4653 18.8948 24.9768 19.136 25.0154 19.136C25.0733 19.136 26.3134 19.7537 26.6366 19.9467C28.1421 20.8297 28.7549 21.7368 28.9141 23.3002C29.0299 24.4775 28.697 25.5535 27.9732 26.3159V26.3159Z" fill="white"/>
</g>
</g>
<defs>
<filter id="filter0_d_82_781" x="-0.630262" y="0.91626" width="36.1184" height="36.1184" filterUnits="userSpaceOnUse" color-interpolation-filters="sRGB">
<feFlood flood-opacity="0" result="BackgroundImageFix"/>
<feColorMatrix in="SourceAlpha" type="matrix" values="0 0 0 0 0 0 0 0 0 0 0 0 0 0 0 0 0 0 127 0" result="hardAlpha"/>
<feOffset dy="1.23524"/>
<feGaussianBlur stdDeviation="0.617621"/>
<feComposite in2="hardAlpha" operator="out"/>
<feColorMatrix type="matrix" values="0 0 0 0 0 0 0 0 0 0 0 0 0 0 0 0 0 0 0.25 0"/>
<feBlend mode="normal" in2="BackgroundImageFix" result="effect1_dropShadow_82_781"/>
<feBlend mode="normal" in="SourceGraphic" in2="effect1_dropShadow_82_781" result="shape"/>
</filter>
<clipPath id="clip0_82_781">
<rect x="1.84009" y="2.15149" width="30.8811" height="30.8811" rx="2.19018" fill="white"/>
</clipPath>
</defs>
</svg>
