<svg width="40" height="23" viewBox="0 0 40 23" fill="none" xmlns="http://www.w3.org/2000/svg">
<path d="M29.2723 16.9055C28.3602 16.9055 27.6183 16.163 27.6183 15.2509C27.6183 14.3388 28.3602 13.5969 29.2723 13.5969C30.1845 13.5969 30.9265 14.3387 30.9265 15.2509C30.9265 16.1632 30.1845 16.9055 29.2723 16.9055ZM10.989 16.9055C10.0769 16.9055 9.33499 16.163 9.33499 15.2509C9.33499 14.3388 10.0768 13.5969 10.989 13.5969C11.9011 13.5969 12.643 14.3387 12.643 15.2509C12.643 16.1632 11.9013 16.9055 10.989 16.9055ZM29.8656 6.94142L33.1715 1.21575C33.2625 1.05774 33.2871 0.870079 33.2399 0.693947C33.1927 0.517816 33.0776 0.367601 32.9198 0.276262C32.7617 0.185302 32.5741 0.160724 32.398 0.207918C32.2219 0.255112 32.0716 0.370225 31.9803 0.528014L28.633 6.32604C26.0731 5.15796 23.1983 4.50716 20.1307 4.50716C17.063 4.50716 14.1882 5.15796 11.6285 6.32604L8.28105 0.528014C8.18969 0.370225 8.03947 0.255112 7.86335 0.207918C7.68723 0.160724 7.49959 0.185302 7.34156 0.276262C7.18365 0.367516 7.06843 0.517732 7.02123 0.693899C6.97402 0.870066 6.99869 1.05777 7.08981 1.21575L10.3957 6.94142C4.71898 10.0289 0.836427 15.7759 0.268433 22.5657H39.9929C39.4244 15.7761 35.5419 10.0289 29.8656 6.94127" fill="#3DDB85"/>
</svg>
