<svg width="35" height="21" viewBox="0 0 35 21" fill="none" xmlns="http://www.w3.org/2000/svg">
<path d="M17.0349 0.518311C12.4924 0.518311 9.65342 2.78895 8.51767 7.32979C10.2213 5.05916 12.2086 4.20799 14.4797 4.77543C15.7756 5.0992 16.7018 6.0394 17.7272 7.07972C19.3971 8.77439 21.33 10.7357 25.5521 10.7357C30.0943 10.7357 32.9336 8.46511 34.069 3.92384C32.3658 6.19447 30.3784 7.04607 28.1069 6.47862C26.8114 6.15485 25.8853 5.21465 24.8599 4.17433C23.1899 2.47966 21.2567 0.518311 17.0349 0.518311V0.518311ZM8.51767 10.7357C3.97554 10.7357 1.13617 13.0064 0.000854492 17.5476C1.70405 15.277 3.69139 14.4254 5.96288 14.9933C7.25838 15.3175 8.18453 16.2573 9.20994 17.2972C10.8799 18.9918 12.8131 20.9536 17.0349 20.9536C21.5775 20.9536 24.4164 18.683 25.5521 14.1417C23.8485 16.4123 21.8612 17.2639 19.5901 16.6961C18.2942 16.3727 17.3681 15.4321 16.3426 14.3922C14.6727 12.6975 12.7399 10.7357 8.51767 10.7357V10.7357Z" fill="#06B6D4"/>
</svg>
