<svg xmlns="http://www.w3.org/2000/svg" xml:space="preserve" width="200.397" height="239.602" viewBox="0 0 53.022 63.395"><path d="M-707.429 182c.528-1.399.864 1.009 0 0" style="fill:currentColor" transform="translate(215.937 -4.053)scale(.26458)"/><path d="M-778.336 254.528c-13.598-3.566-14.472-23.067-6.646-32.522 4.158-6.534 12.911-16.99 20.978-10.14 5.191 14.596 9.771-13.17 13.943-18.286 4.517-10.48 8.798-21.173 12.145-31.977 1.89-8.058-16.368-14.576-11.744-2.358 5.826 4.569 11.1 19.016-1.864 13.266-10.448-6.64-15.928-26.473-2.247-32.204 7.78-5.998 17.516 1.37 22.717 7.596 5.391-10.294 6.964-21.931 11.117-32.558 3.214-11.94 7.38-23.189 12.465-34.46 5.442-10-3.227-12.1-11.37-16.77-12.906-5.862-24.588-14.015-37.596-19.631-8.467-3.928-16.55-9.246-24.374-13.643-4.965-1.467-15.367-6.066-16.956.63-4.445 4.874-7.524 11.493-7.691 18.818-3.472 12.992 17.909 21.298 15.31 4.093-2.512-13.557 10.97-12.5 11.493.208 1.908 9.97-4.95 20.44-13.536 24.508-10.626 1.399-19.615-9.77-22.914-19.698-2.036-11.218-1.469-23.976 5.446-33.698 7.365-11.71 23.988-13.48 35.058-5.494 11.92 6.972 24.793 12.538 36.657 19.754 11.111 5.177 22.425 12.02 33.435 16.242 7.02 5.836 18.586 6.58 26.824 11.644 12.863 6.265 28.41 7.446 41.14.308 8.308-1.806 13.616-16.214 2.77-18.76-7.881-2.337-13.61 2.2-17.439 8.102-13.06 3.469-5.412-16.72 2.58-19.362 9.25-5.473 21.227-.7 28.11 6.53 9.19 10.572 4.625 30.21-9.297 34.053-6.1 6.41-15.684 6.115-23.506 8.99-7.758-.864-15.609-4.058-21.121-4.96-7.551-2.407-14.151-5.51-21.365-8.419 2.432 9.362-7.003 19.301-8.144 29.684-5.949 16.997-9.973 36.6-18.533 53.495 3.494 14.234 19.59 6.996 27.748.96 17.42-3.192 3.808 15.654-3.79 18.952-4.58 5.256-11.27 5.704-18.088 3.41-5.514-1.536-12.682-14.14-14.141-2.321-7.687 18.185-14.543 36.628-23.163 54.297-5.908 8.954-11.995 20.27-23.635 22.113z" style="fill:currentColor" transform="translate(215.937 -4.053)scale(.26458)"/><path d="M-762.188 221.039c-.71-.997-.71.997 0 0m-14.47 19.527c3.8-2.24 19.952-21.482 6.998-15.754-5.203.318-13.896 16.11-6.998 15.754" style="fill:currentColor" transform="translate(215.937 -4.053)scale(.26458)"/></svg>