<svg xmlns="http://www.w3.org/2000/svg" xml:space="preserve" width="372.315" height="253.248" viewBox="0 0 98.508 67.005"><defs><linearGradient id="gold" x1="0" y1="0" x2="0" y2="1"><stop offset="0%" stop-color="#F5D063"/><stop offset="45%" stop-color="#D4AF37"/><stop offset="100%" stop-color="#B8860B"/></linearGradient></defs><path d="M-601.94 268.397c-10.698 2.21-17.547-18.056-20.81-15.818-4.029 6.084-16.606 21.164-20.822 6.613-1.882-7.437 8.755-10.033 7.061-17.301-2.233-18.313-2.034-37.138 2.503-55.208 2.622-17.847 8.137-35.133 16.182-51.23 5.122-12.292 13.848-22.275 21.068-33.246 6.692-9.32 16.165-14.406 25.477-20.523 9.074-7.084 21.183-7.898 32.252-7.134 11.509 2.741 19.233 14.597 17.426 26.362 10.43-5.852 22.232.14 25.678 10.662 6.107 17.049 1.517 35.566-6.654 51.073-5.42 13.418-16.37 23.447-26.185 33.734-3.563 10.963-9.57 20.85-16.372 29.94-4.543 6.503-17.058 20.757-1.35 11.674 19.614-11.184 38.53-23.577 55.898-38.082 11.798-9.49 24.064-18.207 37.222-25.791 11.176-14.525 14.009 13.204.459 13.968-23.26 13.089-41.61 33.148-64.718 46.5-12.384 8.03-24.015 17.832-38.546 21.436-9.682 3.975-20.867-.032-29.669 7.578-5.268 1.53-10.703 4.382-16.1 4.793m1.697-13.76c9.276-.463 12.387-7.979 4.855-13.307-8.07-8.11-20.345.532-14.644 9.823 2.272 2.965 6.295 3.814 9.79 3.485m25.276-12.264c11.223-9.08 18.383-21.754 26.814-33.202-12.232 9.998-26.82.483-26.005-14.84 1.998-12.71 10.448-25.55 22.802-30.05 11.93-3.08 18.058 18.83 25.094 11.81 13.525-15.614 25.534-36.574 21.357-57.95-2.773-13.171-18.493-3.9-24.378 1.81-11.413 13.202-21.653 27.34-32.638 40.97-15.617 20.42-29.302 42.11-43.62 63.447 8.015 3.93 20.262 12.904 29.602 18.48zm-49.905-14.107c10.141-17.434 21.111-34.158 32.533-50.763 15.003-19.514 28.67-40.295 45.064-58.68 8.48-6.073 20.581-20.233 11.902-30.238-9.038-5.742-21.1-1.939-29.25 4.01-10.81 6.871-22.018 14.643-28.385 26.36-5.984 7.257-9.746 15.422-14.352 23.375-7.285 16.408-13.187 33.76-15.365 51.829-2.252 10.804-4.746 24.368-2.147 34.107m64.627-28.774c9.06-2.752 29.087-12.725 13.294-20.752-8.789-4.44-22.23 18.924-13.294 20.752m-218.09 55.036c-13.599-3.566-14.473-23.067-6.647-32.522 4.158-6.534 12.911-16.99 20.978-10.14 5.191 14.596 9.771-13.17 13.943-18.286 4.517-10.48 8.798-21.173 12.145-31.977 1.89-8.058-16.368-14.576-11.744-2.358 5.826 4.569 11.1 19.016-1.864 13.266-10.448-6.64-15.928-26.473-2.247-32.204 7.78-5.998 17.516 1.37 22.717 7.596 5.391-10.294 6.964-21.931 11.117-32.558 3.214-11.94 7.38-23.189 12.465-34.46 5.442-10-3.227-12.1-11.37-16.77-12.906-5.862-24.588-14.015-37.596-19.631-8.467-3.928-16.55-9.246-24.374-13.643-4.965-1.467-15.367-6.066-16.956.63-4.445 4.874-7.524 11.493-7.691 18.818-3.472 12.992 17.909 21.298 15.31 4.093-2.512-13.557 10.97-12.5 11.493.208 1.908 9.97-4.95 20.44-13.536 24.508-10.626 1.399-19.615-9.77-22.914-19.698-2.036-11.218-1.469-23.976 5.446-33.698 7.365-11.71 23.988-13.48 35.058-5.494 11.92 6.972 24.793 12.538 36.657 19.754 11.111 5.177 22.425 12.02 33.435 16.242 7.02 5.836 18.586 6.58 26.824 11.644 12.863 6.265 28.41 7.446 41.14.308 8.308-1.806 13.616-16.214 2.77-18.76-7.881-2.337-13.61 2.2-17.439 8.102-13.06 3.469-5.412-16.72 2.58-19.362 9.25-5.473 21.227-.7 28.11 6.53 9.19 10.572 4.625 30.21-9.297 34.053-6.1 6.41-15.684 6.115-23.506 8.99-7.758-.864-15.609-4.058-21.121-4.96-7.551-2.407-14.151-5.51-21.365-8.419 2.432 9.362-7.003 19.301-8.144 29.684-5.949 16.997-9.973 36.6-18.533 53.495 3.494 14.234 19.59 6.996 27.748.96 17.42-3.192 3.808 15.654-3.79 18.952-4.58 5.256-11.27 5.704-18.088 3.41-5.514-1.536-12.682-14.14-14.141-2.321-7.687 18.185-14.543 36.628-23.163 54.297-5.908 8.954-11.995 20.27-23.635 22.113zm1.677-13.962c3.8-2.24 19.952-21.482 6.998-15.754-5.203.318-13.896 16.11-6.998 15.754m14.47-19.527c-.71-.997-.71.997 0 0m54.76-39.038c.527-1.4.863 1.008 0 0" fill="url(#gold)" transform="translate(215.937 -4.053)scale(.26458)"/></svg>
