<?xml version="1.0" encoding="UTF-8" standalone="no"?>
<!-- Created with Inkscape (http://www.inkscape.org/) -->

<svg
   width="105mm"
   height="74mm"
   viewBox="0 0 105 74"
   version="1.1"
   id="svg1"
   xml:space="preserve"
   xmlns="http://www.w3.org/2000/svg"
   xmlns:svg="http://www.w3.org/2000/svg"><defs
     id="defs1" /><g
     id="g1"
     transform="matrix(0.26458333,0,0,0.26458334,220.00001,0)"><path
       style="fill:#000000"
       d="m -601.93983,268.39697 c -10.69798,2.21081 -17.54748,-18.05599 -20.80973,-15.81836 -4.02929,6.08419 -16.60654,21.16435 -20.82291,6.61346 -1.88189,-7.43737 8.75592,-10.03291 7.06179,-17.30156 -2.23305,-18.31271 -2.03451,-37.13716 2.50243,-55.20703 2.62237,-17.84773 8.13736,-35.13315 16.18271,-51.22985 5.12117,-12.29217 13.84773,-22.27549 21.06749,-33.24615 6.69164,-9.32128 16.16472,-14.40656 25.47749,-20.52326 9.07328,-7.08376 21.18285,-7.89787 32.25146,-7.1346 11.50891,2.74143 19.23265,14.59712 17.42595,26.36282 10.43083,-5.85198 22.2326,0.14006 25.67858,10.66158 6.10702,17.04889 1.51613,35.56635 -6.65476,51.07337 -5.41934,13.41723 -16.36928,23.4462 -26.1847,33.73346 -3.5629,10.96274 -9.57015,20.85021 -16.37181,29.93924 -4.54271,6.5043 -17.05796,20.75824 -1.34946,11.67465 19.61308,-11.18364 38.52862,-23.57715 55.89747,-38.0816 11.79794,-9.48922 24.06372,-18.20711 37.22177,-25.79137 11.17624,-14.5252 14.00893,13.20423 0.45883,13.96862 -23.25904,13.08838 -41.61047,33.14793 -64.71796,46.49917 -12.38343,8.03012 -24.01461,17.83285 -38.54607,21.43662 -9.68195,3.97459 -20.86682,-0.0322 -29.66868,7.57747 -5.26806,1.52982 -10.7034,4.3828 -16.09989,4.79332 z m 1.6972,-13.75915 c 9.27526,-0.46412 12.38622,-7.97964 4.85451,-13.30783 -8.06936,-8.10936 -20.34506,0.53204 -14.64414,9.82335 2.27255,2.96483 6.29501,3.81325 9.78963,3.48448 z m 25.27601,-12.26503 c 11.22293,-9.0798 18.38294,-21.75401 26.81358,-33.2022 -12.23197,9.99818 -26.82084,0.48291 -26.00537,-14.84029 1.99856,-12.70969 10.44827,-25.55018 22.80251,-30.04909 11.92916,-3.0793 18.05767,18.82944 25.09429,11.81046 13.52507,-15.61467 25.53333,-36.57504 21.35706,-57.95134 -2.77373,-13.17053 -18.4937,-3.89857 -24.37803,1.8099 -11.41344,13.2031 -21.65333,27.3414 -32.63843,40.97028 -15.61732,20.42078 -29.30205,42.11115 -43.61993,63.44748 8.01477,3.92956 20.26192,12.90429 29.60198,18.48003 l 0.97234,-0.47477 z m -49.90556,-14.10687 c 10.14144,-17.43361 21.11157,-34.15796 32.53334,-50.76275 15.00244,-19.51446 28.66936,-40.29478 45.06357,-58.67973 8.48083,-6.07359 20.5814,-20.23354 11.90225,-30.23844 -9.03819,-5.74246 -21.09906,-1.93883 -29.24962,4.01047 -10.81094,6.87058 -22.01858,14.64244 -28.38533,26.35874 -5.98408,7.25777 -9.74582,15.42274 -14.35223,23.3755 -7.28519,16.4085 -13.18642,33.75999 -15.36495,51.82908 -2.25209,10.80387 -4.74541,24.36778 -2.14703,34.10713 z m 64.62753,-28.7739 c 9.05902,-2.75164 29.08663,-12.72523 13.29377,-20.75159 -8.78893,-4.44048 -22.23007,18.92367 -13.29377,20.75159 z m -218.09121,55.03631 c -13.59764,-3.566 -14.4717,-23.06746 -6.64581,-32.52243 4.15783,-6.53341 12.9111,-16.99 20.97785,-10.14008 5.19088,14.59599 9.77122,-13.1702 13.94281,-18.28594 4.51659,-10.47993 8.79801,-21.17265 12.14526,-31.97729 1.88969,-8.05786 -16.36834,-14.57533 -11.74414,-2.35791 5.82629,4.56887 11.09897,19.01682 -1.8639,13.26606 -10.44852,-6.64023 -15.92817,-26.47243 -2.24767,-32.20421 7.78111,-5.99782 17.51674,1.37064 22.71728,7.59627 5.39155,-10.29336 6.96434,-21.93088 11.11737,-32.55751 3.21371,-11.94083 7.38003,-23.18886 12.46441,-34.46056 5.44192,-9.9992 -3.22636,-12.10034 -11.36993,-16.76996 -12.90556,-5.86184 -24.58755,-14.01522 -37.59611,-19.63075 -8.46687,-3.92753 -16.5505,-9.24566 -24.37331,-13.64319 -4.96564,-1.46694 -15.36686,-6.06553 -16.9561,0.62968 -4.44476,4.87423 -7.52367,11.4933 -7.69125,18.81887 -3.4721,12.99209 17.90889,21.29733 15.31099,4.09216 -2.51333,-13.55703 10.96937,-12.49958 11.4919,0.20894 1.9085,9.97003 -4.95035,20.43889 -13.53581,24.50723 -10.62601,1.39934 -19.61474,-9.77055 -22.91363,-19.69732 -2.03628,-11.2181 -1.46899,-23.97657 5.44532,-33.69809 7.36484,-11.71039 23.98812,-13.48105 35.05881,-5.49407 11.91894,6.97139 24.79247,12.53819 36.6566,19.75413 11.11111,5.177 22.42463,12.01983 33.43533,16.24139 7.01923,5.83592 18.58534,6.58019 26.8239,11.64451 12.8627,6.26477 28.41061,7.44549 41.13924,0.30811 8.30887,-1.80604 13.61632,-16.21427 2.77113,-18.76012 -7.88195,-2.33765 -13.61017,2.19883 -17.4392,8.10192 -13.06118,3.4687 -5.41223,-16.72104 2.57972,-19.36237 9.2495,-5.47257 21.22693,-0.69984 28.10907,6.53075 9.19167,10.57158 4.626,30.20866 -9.29599,34.05252 -6.09987,6.41075 -15.68471,6.11464 -23.50638,8.99038 -7.75754,-0.86412 -15.60853,-4.05845 -21.12125,-4.95978 -7.55081,-2.4074 -14.15072,-5.51029 -21.36423,-8.4195 2.4311,9.36219 -7.00294,19.30109 -8.14441,29.68412 -5.94865,16.99633 -9.97346,36.59938 -18.53278,53.49467 3.49404,14.23409 19.59057,6.99611 27.74784,0.9591 17.42066,-3.19065 3.80758,15.65539 -3.79035,18.95248 -4.57908,5.25696 -11.26948,5.70473 -18.08819,3.41034 -5.51322,-1.53546 -12.68127,-14.14063 -14.14088,-2.32116 -7.6865,18.18536 -14.54234,36.62782 -23.16304,54.29685 -5.90739,8.95408 -11.99433,20.271 -23.63496,22.11295 l -0.77513,-0.39114 z m 1.67738,-13.96233 c 3.80005,-2.24087 19.95243,-21.48236 6.99816,-15.75421 -5.20237,0.31846 -13.89589,16.11107 -6.99816,15.75421 z m 14.47018,-19.52724 c -0.71017,-0.9972 -0.71022,0.99718 0,0 z m 54.75967,-39.03809 c 0.52748,-1.39968 0.86337,1.0081 0,0 z"
       id="path2" /></g></svg>
