<?xml version="1.0" encoding="UTF-8" standalone="no"?>
<!-- Created with Inkscape (http://www.inkscape.org/) -->

<svg
   width="162.68301mm"
   height="279.40002mm"
   viewBox="0 0 162.68301 279.40002"
   version="1.1"
   id="svg1"
   xml:space="preserve"
   xmlns="http://www.w3.org/2000/svg"
   xmlns:svg="http://www.w3.org/2000/svg"><defs
     id="defs1" /><g
     id="g1"
     transform="matrix(0.26458333,0,0,0.26458334,6.595806e-6,0)"><path
       style="fill:#000000"
       d="m 301.1804,676.20364 c -0.7644,-0.19243 -1.874,-0.47236 -2.4659,-0.62206 -0.5919,-0.1497 -1.2373,-0.21034 -1.4342,-0.13475 -0.4289,0.16458 -1.9131,-0.56279 -3.0009,-1.47073 -0.4321,-0.3607 -0.9495,-0.65581 -1.1497,-0.65581 -0.4483,0 -3.7629,-3.15622 -3.7629,-3.58309 0,-0.16965 -0.1996,-0.30846 -0.4435,-0.30846 -0.6239,0 -2.0582,-1.07177 -2.0582,-1.53797 0,-0.21354 -0.2215,-0.50681 -0.4923,-0.65171 -0.2707,-0.1449 -0.9226,-1.09404 -1.4485,-2.10919 -0.5259,-1.01515 -1.102,-1.96675 -1.2803,-2.11468 -0.1782,-0.14793 -0.676,-1.39468 -1.1061,-2.77056 -0.8103,-2.5921 -1.258,-2.98964 -1.524,-1.35335 -0.1711,1.05278 -1.0085,2.19842 -1.6069,2.19842 -0.2711,0 -0.3341,0.20381 -0.2127,0.68768 0.2544,1.01357 -1.2446,2.74931 -2.6102,3.02243 -0.7326,0.14652 -3.8954,3.03433 -3.8954,3.55673 0,0.48137 -1.0094,2.32432 -1.5983,2.91805 -0.344,0.34682 -0.6254,0.57557 -0.6254,0.50832 0,-0.0672 -0.4065,0.12561 -0.9034,0.42855 -0.4969,0.30295 -1.1968,0.55128 -1.5554,0.55185 -0.3586,5.7e-4 -0.9938,0.24438 -1.4114,0.5418 -0.682,0.48557 -0.8809,0.50489 -1.9495,0.18937 -0.6546,-0.19327 -1.4005,-0.63034 -1.6577,-0.97127 -0.2758,-0.36568 -0.6397,-0.55382 -0.8873,-0.45878 -0.3156,0.12108 -0.6132,-0.34167 -1.1983,-1.86273 -0.4281,-1.1131 -1.0375,-2.55443 -1.3542,-3.20296 -0.4533,-0.92827 -0.5132,-1.31268 -0.2814,-1.80679 0.5325,-1.13505 0.9454,-2.83907 0.8594,-3.54631 -0.07,-0.57739 0.1117,-0.78616 1.0758,-1.23431 0.9365,-0.43534 1.1941,-0.71953 1.3355,-1.47324 0.1391,-0.74131 0.2792,-0.90083 0.6798,-0.77371 0.3983,0.12644 0.6648,-0.16742 1.266,-1.39633 0.4189,-0.85606 0.917,-1.6161 1.1069,-1.68898 0.1987,-0.0763 0.2904,-0.41944 0.2161,-0.80844 -0.1,-0.52208 0.024,-0.734 0.542,-0.93111 0.6223,-0.23659 0.6636,-0.37348 0.5675,-1.8772 -0.057,-0.8921 -0.1946,-1.68641 -0.3058,-1.76514 -0.555,-0.3929 -0.7878,-2.75155 -0.7133,-7.22717 0.044,-2.67316 -0.021,-4.98724 -0.1461,-5.14241 -0.37,-0.46011 -0.6545,-4.22553 -0.3341,-4.42353 0.1875,-0.11586 0.1921,-0.47723 0.014,-1.07424 -0.2781,-0.93102 -0.3881,-12.517 -0.1445,-15.21499 0.076,-0.84085 0.2775,-1.96662 0.4479,-2.50171 0.1705,-0.53509 0.3721,-1.84849 0.448,-2.91867 0.076,-1.07017 0.3203,-2.84737 0.5431,-3.94932 0.2227,-1.10195 0.405,-2.49874 0.405,-3.10397 0,-0.60524 0.1411,-1.14747 0.3135,-1.20495 0.1725,-0.0575 0.403,-0.97478 0.5122,-2.03843 0.1092,-1.06365 0.3426,-2.28399 0.5186,-2.71186 0.176,-0.42787 0.3382,-1.36602 0.3605,-2.08476 0.022,-0.71875 0.1473,-1.44371 0.2778,-1.61102 0.1306,-0.16732 0.3433,-1.54326 0.4728,-3.05765 0.1534,-1.79377 0.4288,-3.14096 0.79,-3.86531 0.3051,-0.61152 0.5809,-1.65432 0.613,-2.31731 0.032,-0.66299 0.1645,-1.4135 0.2941,-1.66781 0.4418,-0.86687 0.8965,-3.35526 0.7167,-3.92192 -0.105,-0.33077 9e-4,-0.82255 0.2554,-1.18584 0.2391,-0.34139 0.4347,-1.09585 0.4347,-1.67659 0,-1.19823 0.9341,-4.75772 1.7201,-6.55449 0.2892,-0.661 0.605,-1.59914 0.7018,-2.08475 0.097,-0.48562 0.5922,-1.79674 1.1008,-2.91361 0.5087,-1.11686 0.9248,-2.47308 0.9248,-3.0138 0,-0.56224 0.238,-1.28571 0.5559,-1.6899 0.3058,-0.38871 0.5542,-1.03387 0.552,-1.43368 0,-0.60354 1.4788,-4.00851 1.9498,-4.47949 0.9859,-0.98596 1.5068,-2.14014 1.7561,-3.89155 0.033,-0.22932 0.627,-1.60526 1.3208,-3.05765 1.7334,-3.6286 2.6418,-5.75833 3.0656,-7.18721 0.1976,-0.66599 0.5124,-1.26969 0.6996,-1.34155 0.1873,-0.0719 0.6877,-0.84035 1.1119,-1.70776 0.4243,-0.86741 0.9918,-1.81377 1.2611,-2.10303 0.5893,-0.63303 1.6256,-2.77651 1.6256,-3.3626 0,-0.23099 0.2189,-0.64261 0.4864,-0.9147 0.2676,-0.2721 0.7789,-1.0895 1.1362,-1.81646 0.3574,-0.72695 1.012,-1.58955 1.4548,-1.91689 0.9292,-0.68699 2.2083,-2.48789 2.6172,-3.68478 0.1616,-0.47295 0.7856,-1.16247 1.4631,-1.61669 0.6881,-0.46136 1.1813,-1.0096 1.1813,-1.31318 0,-0.28664 0.1251,-0.59847 0.278,-0.69295 0.1529,-0.0945 0.278,-0.427 0.278,-0.73892 0,-0.70321 1.8835,-3.84026 2.6395,-4.39621 0.8956,-0.65859 2.0743,-2.03382 2.2645,-2.64199 0.097,-0.30905 0.7845,-1.31243 1.5286,-2.22973 1.6963,-2.091 1.584,-1.97898 2.7268,-2.71863 0.5611,-0.36318 1.2882,-1.25031 1.7515,-2.13714 0.5334,-1.02117 1.062,-1.62971 1.6187,-1.86379 0.4546,-0.19117 1.0424,-0.72677 1.3062,-1.19024 0.2637,-0.46347 0.6263,-0.84346 0.8057,-0.84443 0.5498,-0.003 2.0365,-1.41126 2.0365,-1.92916 0,-0.87919 2.1196,-2.24211 3.4869,-2.24211 0.5009,0 0.781,-0.17688 0.8801,-0.55594 0.08,-0.30576 0.3591,-0.55593 0.6204,-0.55593 0.2613,0 0.7689,-0.31272 1.1279,-0.69492 0.3591,-0.38221 0.8375,-0.69492 1.0632,-0.69492 0.6961,0 3.4652,-1.45021 4.6157,-2.41734 0.6008,-0.50505 1.2531,-0.91828 1.4496,-0.91828 0.1964,0 0.492,-0.252 0.6568,-0.55999 0.3277,-0.61221 2.275,-1.94172 2.8441,-1.94172 0.1956,0 0.5119,-0.25017 0.7028,-0.55593 0.191,-0.30577 0.5299,-0.55594 0.7532,-0.55594 0.5469,0 2.5249,-1.0469 2.9533,-1.56308 0.1894,-0.22815 0.7921,-0.60185 1.3393,-0.83045 0.5473,-0.2286 1.3242,-0.73093 1.7265,-1.11628 0.8062,-0.7722 1.965,-0.96763 3.9506,-0.66629 0.6896,0.10465 1.4527,0.079 1.6958,-0.0571 0.2431,-0.13604 1.159,-0.28796 2.0355,-0.33762 0.8764,-0.0496 1.8178,-0.18276 2.0919,-0.2958 0.2741,-0.11304 0.572,-0.13194 0.662,-0.042 0.09,0.0899 0.3861,0.0444 0.6582,-0.10122 0.2721,-0.14562 2.3509,-0.46156 4.6195,-0.70208 4.0088,-0.42502 6.3055,-0.36669 6.6363,0.16856 0.089,0.14405 0.5003,0.26191 0.914,0.26191 0.4136,0 1.2148,0.24798 1.7803,0.55108 0.5655,0.30309 1.2042,0.48353 1.4193,0.40097 0.2152,-0.0825 0.4599,0.0289 0.5439,0.24773 0.084,0.21881 0.6004,0.48183 1.1477,0.58451 0.5534,0.10381 0.9951,0.35197 0.9951,0.55906 0,0.43913 1.0462,1.17339 2.0202,1.41785 0.3785,0.095 0.8505,0.47591 1.0488,0.84646 0.2187,0.40874 0.6083,0.67373 0.9905,0.67373 0.4676,0 0.7206,0.25069 0.9817,0.97289 0.1935,0.53509 0.5207,0.97288 0.7271,0.97288 0.2065,0 0.559,0.43969 0.7836,0.97709 0.2245,0.5374 1.0312,1.6133 1.7926,2.39089 0.7614,0.77758 1.3985,1.55748 1.4158,1.7331 0.017,0.17561 0.028,0.71592 0.023,1.20069 0,0.52386 0.2079,1.07692 0.5245,1.36343 0.3864,0.34969 0.5326,0.85484 0.5326,1.83987 0,0.75328 0.2261,1.817 0.5078,2.38914 0.4428,0.89926 0.4816,1.42278 0.3029,4.08895 -0.1127,1.6817 -0.163,3.10033 -0.1118,3.1525 0.051,0.0522 1.0447,-0.24281 2.2078,-0.6555 1.1631,-0.4127 2.3679,-0.68415 2.6773,-0.60322 0.3095,0.0809 0.8996,-0.0181 1.3114,-0.22009 1.8382,-0.90152 4.0198,-1.25509 4.3589,-0.70642 0.099,0.15981 0.8363,0.20254 1.7848,0.1034 1.07,-0.11184 1.6819,-0.063 1.8102,0.1446 0.1066,0.17245 0.4053,0.31571 0.6638,0.31835 0.2586,0.003 0.756,0.30637 1.1055,0.67494 0.3494,0.36857 1.1937,0.94046 1.8762,1.27085 0.6825,0.33039 1.241,0.76013 1.241,0.95497 0,0.4816 1.3702,1.8199 1.8633,1.8199 0.2188,0 0.8344,0.46297 1.368,1.02883 0.7266,0.77035 0.93,1.18948 0.8099,1.66827 -0.1787,0.71204 0.5547,2.31647 1.5688,3.4319 0.9657,1.06223 1.3391,1.83251 1.3391,2.7622 0,0.46072 0.1109,0.83767 0.2465,0.83767 0.1355,0 0.3348,0.59416 0.4429,1.32035 0.1081,0.72619 0.2929,1.44543 0.4106,1.59831 0.1178,0.15289 0.2963,1.01037 0.3968,1.90552 0.1006,0.89515 0.3076,1.86071 0.4601,2.14569 0.1749,0.32683 0.1881,1.08713 0.036,2.05917 -0.1811,1.15444 -0.1497,1.66214 0.1249,2.02383 0.207,0.27256 0.3705,1.21509 0.3755,2.1645 0,0.92494 0.1412,1.81414 0.3031,1.976 0.2071,0.20707 0.1633,0.99331 -0.1477,2.65299 -0.2431,1.29729 -0.3772,2.87464 -0.2979,3.50521 0.1062,0.8454 -0.1039,1.89707 -0.7998,4.00434 -0.5192,1.57181 -1.0314,3.48326 -1.1384,4.24767 -0.107,0.76441 -0.3781,1.68139 -0.6024,2.03773 -0.2244,0.35633 -0.3368,0.83333 -0.2498,1.05998 0.087,0.22666 -0.029,0.77323 -0.2569,1.2146 -0.2282,0.44137 -0.415,1.05887 -0.415,1.37223 0,0.31336 -0.1251,0.56974 -0.2779,0.56974 -0.1529,0 -0.278,0.25351 -0.278,0.56336 0,0.77231 -1.4018,4.9452 -2.0051,5.96888 -0.5545,0.9409 -1.0643,1.98772 -1.7598,3.61359 -0.2615,0.61153 -0.6375,1.2995 -0.8355,1.52882 -0.3496,0.40493 -0.9859,1.97916 -1.545,3.82206 -0.1507,0.49687 -0.381,0.90339 -0.5117,0.90339 -0.1308,0 -0.3681,0.374 -0.5274,0.83111 -0.1594,0.4571 -0.5785,1.11984 -0.9314,1.47274 -0.9603,0.96032 -1.613,2.05324 -1.613,2.70105 0,0.5915 -0.6947,1.68809 -1.9748,3.11718 -0.3982,0.44452 -0.9866,1.33418 -1.3077,1.97702 -0.321,0.64284 -1.3399,1.96106 -2.2642,2.92937 -0.9242,0.9683 -1.6804,1.82864 -1.6804,1.91184 0,0.1441 -0.98,1.26383 -3.8507,4.39979 -0.7105,0.77613 -1.7296,1.98097 -2.2646,2.6774 -0.5378,0.69993 -1.377,1.41327 -1.8763,1.59499 -0.4969,0.1808 -0.9034,0.42905 -0.9034,0.55165 0,0.12261 -1.3752,1.64681 -3.0559,3.38712 -2.7838,2.88241 -3.0561,3.25727 -3.0577,4.2093 -10e-4,0.69954 -0.1855,1.20248 -0.5577,1.5211 -0.3057,0.26181 -0.5559,0.691 -0.5559,0.95377 0,0.26276 -0.1251,0.55506 -0.278,0.64954 -0.1528,0.0945 -0.2779,0.52436 -0.2779,0.95526 0,0.43091 -0.1871,0.9387 -0.4157,1.12844 -0.2286,0.18974 -0.5554,0.86176 -0.7261,1.49337 -0.4959,1.83437 -0.8897,2.78066 -1.3774,3.31028 -0.2503,0.27175 -0.6088,1.02227 -0.7968,1.66781 -0.188,0.64555 -0.6446,1.64011 -1.0146,2.21014 -0.3701,0.57003 -0.6728,1.2327 -0.6728,1.4726 0,0.23991 -0.2948,0.71166 -0.6551,1.04834 -0.3603,0.33669 -0.8545,1.00057 -1.0982,1.47531 -0.2437,0.47473 -1.1345,1.6005 -1.9795,2.50171 -0.8451,0.90121 -1.5392,1.78532 -1.5425,1.96469 0,0.17938 -0.3164,0.69482 -0.6955,1.14544 -0.3792,0.45061 -0.9509,1.36708 -1.2705,2.03659 -1.3098,2.74399 -1.4925,3.02409 -1.9721,3.02409 -0.5381,0 -1.0668,0.77413 -1.0792,1.58004 0,0.27759 -0.3709,0.86093 -0.8147,1.2963 -0.4439,0.43538 -0.7418,0.96163 -0.6621,1.16946 0.084,0.21984 -0.6793,1.2071 -1.8259,2.36059 -1.084,1.09049 -1.9709,2.1603 -1.9709,2.37735 0,0.21705 -0.2502,0.60884 -0.556,0.87064 -0.3057,0.26181 -0.5559,0.5733 -0.5559,0.6922 0,0.11891 -0.2502,0.46637 -0.556,0.77213 -0.3057,0.30577 -0.5559,0.74863 -0.5559,0.98414 0,0.58745 -1.1331,2.07351 -1.5811,2.07351 -0.2006,0 -0.3647,0.25017 -0.3647,0.55593 0,0.32912 0.1853,0.55594 0.4542,0.55594 0.8234,0 2.7307,-0.65222 3.4054,-1.16449 0.3646,-0.27682 0.8281,-0.50332 1.03,-0.50332 0.2019,0 0.8279,-0.31271 1.3912,-0.69492 0.5632,-0.3822 1.288,-0.6977 1.6106,-0.7011 0.3227,-0.003 0.8994,-0.25079 1.2816,-0.54975 0.3822,-0.29897 0.8603,-0.54636 1.0624,-0.54976 0.5066,-0.009 2.8291,-1.39371 2.8291,-1.68739 0,-0.1312 0.5468,-0.4804 1.215,-0.77599 0.6683,-0.2956 1.3011,-0.67671 1.4063,-0.84692 0.1051,-0.1702 0.4379,-0.30946 0.7395,-0.30946 0.3015,0 0.6169,-0.17889 0.7008,-0.39753 0.084,-0.21864 0.4865,-0.53235 0.8946,-0.69714 0.4082,-0.16479 1.3051,-0.6735 1.993,-1.13046 0.688,-0.45697 1.6261,-1.02072 2.0848,-1.25278 0.829,-0.41945 1.308,-0.70155 2.6395,-1.55447 0.3828,-0.24525 1.0088,-0.52134 1.391,-0.61353 0.3822,-0.0922 1.214,-0.64204 1.8484,-1.2219 1.7374,-1.58795 3.1918,-2.68334 4.0651,-3.0616 0.4311,-0.18673 1.3095,-0.76577 1.9521,-1.28675 0.6426,-0.52098 1.8774,-1.34381 2.7441,-1.82851 0.8666,-0.48471 1.7196,-1.05467 1.8955,-1.26659 0.1759,-0.21192 0.6777,-0.46393 1.1152,-0.56002 0.4376,-0.0961 0.9446,-0.35431 1.1267,-0.57381 0.1822,-0.21949 0.4828,-0.39908 0.6679,-0.39908 0.1852,0 0.8787,-0.50034 1.5411,-1.11187 0.6624,-0.61153 1.4391,-1.11187 1.7261,-1.11187 0.287,0 1.2356,-0.68818 2.108,-1.52928 0.8724,-0.8411 1.8364,-1.609 2.1422,-1.70644 0.3057,-0.0974 0.8578,-0.50098 1.2267,-0.89675 0.369,-0.39577 1.2133,-1.0636 1.8763,-1.48407 0.663,-0.42046 1.2055,-0.89542 1.2055,-1.05545 0,-0.16003 0.3127,-0.40986 0.6949,-0.55518 0.3822,-0.14531 0.6949,-0.39239 0.6949,-0.54906 0,-0.15666 0.1231,-0.28484 0.2735,-0.28484 0.3037,0 4.3614,-3.10016 5.7672,-4.40615 0.494,-0.45899 1.1237,-0.90608 1.3992,-0.99353 0.2756,-0.0875 0.915,-0.65951 1.4209,-1.27122 0.506,-0.61171 1.1584,-1.1122 1.4499,-1.1122 0.2916,0 0.7802,-0.25017 1.086,-0.55594 0.3058,-0.30576 0.6594,-0.55594 0.786,-0.55594 0.1265,0 0.9509,-0.75051 1.832,-1.6678 0.8811,-0.9173 1.747,-1.67 1.9242,-1.67268 0.1772,-0.003 0.9922,-0.6281 1.811,-1.38984 0.8188,-0.76173 1.6764,-1.38497 1.9057,-1.38497 0.2294,0 0.663,-0.31271 0.9637,-0.69492 0.3006,-0.3822 0.6765,-0.69492 0.8353,-0.69492 0.2615,0 2.743,-1.8994 3.4257,-2.62209 0.1541,-0.16311 0.8734,-0.5954 1.5984,-0.96063 0.7249,-0.36523 1.3181,-0.78924 1.3181,-0.94224 0,-0.38077 0.8748,-1.01475 1.4151,-1.02556 0.2432,-0.005 1.0381,-0.57172 1.7665,-1.25969 0.7283,-0.68797 1.4793,-1.25086 1.6689,-1.25086 0.1896,0 0.5535,-0.23074 0.8088,-0.51277 0.2552,-0.28202 0.9499,-0.67311 1.5437,-0.86908 0.5937,-0.19597 1.6864,-0.9014 2.4282,-1.56762 0.7417,-0.66623 1.55,-1.21329 1.7962,-1.21568 0.2462,-0.002 0.9084,-0.31708 1.4717,-0.69928 0.5632,-0.38221 1.0893,-0.69492 1.1692,-0.69492 0.08,0 0.5433,-0.29273 1.03,-0.6505 0.4867,-0.35777 1.2964,-0.81281 1.7993,-1.0112 0.503,-0.19838 1.0659,-0.56236 1.2509,-0.80883 0.185,-0.24648 0.8992,-0.73401 1.5872,-1.08341 0.8304,-0.42174 1.5779,-1.12163 2.2238,-2.08229 1.5696,-2.33458 2.355,-2.98078 3.6231,-2.98078 0.6063,0 1.1023,0.0994 1.1023,0.22077 0,0.12143 0.5004,0.75735 1.1119,1.41315 0.9288,0.99609 1.1119,1.38321 1.1119,2.35164 0,0.63759 0.3105,2.01536 0.69,3.06171 0.4908,1.3532 0.614,2.0445 0.4267,2.39447 -0.1448,0.2706 -0.1941,0.56118 -0.1096,0.64572 0.5075,0.50744 -3.3166,4.86767 -5.1426,5.86372 -0.2481,0.1353 -0.7157,0.54183 -1.0393,0.9034 -0.3235,0.36157 -0.7773,0.6574 -1.0083,0.6574 -0.2311,0 -0.5729,0.18415 -0.7597,0.40922 -0.1868,0.22507 -0.9839,0.72479 -1.7714,1.11049 -1.9936,0.97651 -3.6398,1.93194 -4.5154,2.62065 -0.4091,0.3218 -0.8573,0.58509 -0.9959,0.58509 -0.1387,0 -0.5006,0.23153 -0.8044,0.5145 -0.3037,0.28297 -1.239,0.86198 -2.0784,1.28668 -0.8394,0.4247 -1.8053,1.06662 -2.1463,1.42648 -0.3411,0.35986 -0.7452,0.65778 -0.8981,0.66205 -0.1529,0.004 -0.7137,0.45611 -1.2462,1.00409 -0.5326,0.54797 -1.3456,1.18952 -1.8068,1.42566 -0.4612,0.23614 -0.9011,0.51828 -0.9776,0.62697 -0.076,0.1087 -0.6393,0.52476 -1.2508,0.92458 -0.6115,0.39983 -1.6122,1.10352 -2.2237,1.56376 -0.6116,0.46025 -1.6123,1.18323 -2.2238,1.60664 -0.6115,0.4234 -1.2753,0.98926 -1.4751,1.25747 -0.1998,0.2682 -0.5219,0.48764 -0.7159,0.48764 -0.194,0 -0.6539,0.32052 -1.0219,0.71227 -0.368,0.39175 -1.1091,0.97861 -1.6468,1.30414 -0.5377,0.32553 -1.8674,1.38095 -2.9548,2.34538 -1.0875,0.96443 -2.1094,1.75351 -2.2709,1.75351 -0.1615,0 -0.9604,0.60131 -1.7753,1.33625 -2.5538,2.30305 -8.5705,7.28075 -8.8004,7.28075 -0.2328,0 -2.6789,1.96885 -4.078,3.2824 -0.4587,0.4306 -1.4386,1.15034 -2.1776,1.59943 -0.739,0.44908 -1.7562,1.1605 -2.2604,1.58093 -0.5042,0.42042 -1.0413,0.76441 -1.1935,0.76441 -0.1522,0 -0.4414,0.19832 -0.6425,0.44071 -0.2012,0.24239 -0.8419,0.63123 -1.4239,0.86408 -0.582,0.23286 -1.0581,0.51826 -1.0581,0.63423 0,0.24046 -2.0878,1.70192 -2.9056,2.03394 -0.4957,0.20123 -1.8068,1.04008 -7.1498,4.57448 -1.0205,0.67502 -1.9189,1.39282 -1.9965,1.59511 -0.078,0.20229 -0.5247,0.45205 -0.9935,0.55501 -0.4688,0.10296 -1.0094,0.3962 -1.2013,0.65164 -0.5369,0.71437 -2.0728,1.71529 -2.6321,1.71529 -0.2757,0 -0.7361,0.31271 -1.0231,0.69492 -0.287,0.3822 -0.692,0.69492 -0.8999,0.69492 -0.2079,0 -0.6581,0.28144 -1.0004,0.62543 -0.5757,0.57856 -1.5494,1.20062 -7.5327,4.81225 -1.1984,0.72335 -2.3129,1.60952 -2.4769,1.96928 -0.1639,0.35976 -0.5002,0.65411 -0.7475,0.65411 -0.2472,0 -0.7503,0.21073 -1.118,0.4683 -0.3677,0.25756 -0.9272,0.49826 -1.2432,0.53489 -1.0977,0.12721 -2.5258,0.90474 -3.4783,1.89374 -0.7047,0.73168 -1.1917,0.99462 -1.8423,0.99462 -0.4864,0 -1.04,0.18763 -1.2304,0.41695 -0.1903,0.22932 -0.7611,0.41695 -1.2684,0.41695 -0.5074,0 -1.0009,0.12687 -1.0967,0.28194 -0.2902,0.46942 -2.2923,1.38587 -3.0278,1.38587 -0.3792,0 -0.7668,0.12508 -0.8613,0.27797 -0.095,0.15288 -0.6142,0.27796 -1.1549,0.27796 -0.5407,0 -1.3151,0.23376 -1.7209,0.51947 -0.7386,0.52 -1.7275,0.91851 -1.9887,0.80143 -0.076,-0.0343 -0.6096,0.22856 -1.1848,0.58405 -1.2694,0.78457 -2.601,1.03055 -3.1431,0.58062 -0.3005,-0.24935 -0.6976,-0.25821 -1.5808,-0.0353 -1.7779,0.44883 -5.1658,0.62577 -5.3789,0.28092 -0.1022,-0.16529 -0.6389,-0.23164 -1.2313,-0.15219 -0.5775,0.0775 -1.1591,0.0318 -1.2924,-0.1014 -0.2987,-0.29874 -3.1447,0.01 -3.1447,0.34076 0,0.13159 -0.1632,0.23925 -0.3625,0.23925 -0.1994,0 -0.9543,0.37526 -1.6775,0.8339 -0.7232,0.45865 -1.5517,0.83391 -1.841,0.83391 -0.2894,0 -0.7668,0.30588 -1.0608,0.67973 -0.3743,0.47579 -0.7114,0.63354 -1.1235,0.52576 -0.3998,-0.10455 -0.9394,0.12378 -1.6815,0.71152 -0.601,0.47601 -1.4831,0.94354 -1.9602,1.03896 -0.477,0.0954 -0.9347,0.28241 -1.017,0.41555 -0.082,0.13313 -0.58,0.24206 -1.1061,0.24206 -0.526,0 -0.9564,0.12777 -0.9564,0.28393 0,0.33404 -0.5311,0.5558 -3.3356,1.39287 -1.1467,0.34224 -2.3293,0.74743 -2.6281,0.90043 -0.4835,0.24756 -2.4879,0.77141 -4.6686,1.22013 -0.4204,0.0865 -0.7644,0.2481 -0.7644,0.35909 0,0.53416 -1.3093,0.72986 -2.6407,0.39471 z m 1.6972,-13.75915 c 0.9012,-0.0285 1.8261,-0.14823 2.0554,-0.26606 0.6879,-0.35348 1.4994,-0.62935 2.0103,-0.68342 0.2648,-0.028 0.64,-0.1707 0.8339,-0.31705 0.1938,-0.14635 0.8841,-0.43373 1.5338,-0.63862 0.6498,-0.20489 1.1814,-0.47591 1.1814,-0.60227 0,-0.25131 1.8512,-1.1371 2.4704,-1.18208 0.2122,-0.0154 0.5249,-0.25475 0.695,-0.53187 0.251,-0.40907 0.1915,-0.60049 -0.3163,-1.01745 -0.3439,-0.28247 -0.6254,-0.68742 -0.6254,-0.89988 0,-0.5326 -0.5694,-1.05342 -1.1517,-1.05342 -0.2665,0 -0.6521,-0.23917 -0.8569,-0.53149 -0.2047,-0.29232 -1.0051,-1.01156 -1.7786,-1.59831 -0.7735,-0.58676 -1.8326,-1.56232 -2.3536,-2.16793 -0.5211,-0.6056 -1.1663,-1.32484 -1.4338,-1.59831 -0.2676,-0.27347 -0.4865,-0.60228 -0.4865,-0.73069 0,-0.23279 -1.3364,-0.70033 -2.9186,-1.02103 -0.4587,-0.093 -1.1779,-0.23818 -1.5983,-0.32271 -0.4205,-0.0845 -0.7644,-0.27796 -0.7644,-0.42985 0,-0.15189 -0.1616,-0.21415 -0.3591,-0.13836 -0.1976,0.0758 -0.5967,-0.0359 -0.8871,-0.24823 -0.6477,-0.47364 -2.967,-0.50918 -3.4237,-0.0525 -0.1835,0.18345 -0.3336,0.58013 -0.3336,0.8815 0,0.30138 -0.1857,0.75323 -0.4128,1.00413 -0.8317,0.91897 -1.7789,4.19464 -1.9714,6.81753 l -0.19,2.58819 1.338,1.30041 c 0.7359,0.71522 1.7217,1.58997 2.1905,1.94388 0.9681,0.7307 3.5922,1.58214 4.1805,1.3564 0.2149,-0.0825 0.6146,-0.0247 0.8882,0.12836 0.2736,0.1531 0.5758,0.22988 0.6717,0.17063 0.096,-0.0593 0.9116,-0.13105 1.8127,-0.15954 z m 25.2761,-12.26503 c 0.4138,-0.34398 1.383,-1.21958 2.1537,-1.94577 0.7706,-0.7262 1.4789,-1.32035 1.5739,-1.32035 0.095,0 0.3947,-0.3759 0.6661,-0.83533 0.2714,-0.45943 0.8524,-1.02094 1.2911,-1.24781 0.4387,-0.22686 0.87,-0.63275 0.9583,-0.90197 0.088,-0.26922 0.7789,-0.98983 1.5347,-1.60136 0.7557,-0.61153 1.3803,-1.26392 1.3879,-1.44975 0.01,-0.18583 0.3891,-0.72176 0.8477,-1.19095 0.4587,-0.46919 0.8339,-0.96816 0.8339,-1.10882 0,-0.14066 0.2815,-0.56331 0.6255,-0.93923 0.3439,-0.37592 1.0006,-1.14419 1.4593,-1.70727 0.4586,-0.56308 1.2717,-1.49469 1.8068,-2.07024 0.5351,-0.57554 1.014,-1.22017 1.0643,-1.4325 0.05,-0.21233 0.2538,-0.57368 0.4525,-0.80301 0.1986,-0.22932 0.821,-1.29255 1.3831,-2.36272 0.5621,-1.07018 1.3591,-2.26718 1.7712,-2.66 0.4121,-0.39282 0.9936,-1.14333 1.2923,-1.66781 0.2987,-0.52447 0.8979,-1.34355 1.3316,-1.82017 0.85,-0.93433 2.4339,-3.32582 2.4339,-3.67501 0,-0.11758 0.4378,-0.63812 0.9728,-1.15674 0.5351,-0.51863 0.9729,-1.10605 0.9729,-1.30539 0,-0.46864 -0.8042,-0.46656 -1.3679,0.004 -0.2414,0.20127 -1.3145,0.71224 -2.3846,1.13548 -1.0702,0.42325 -2.2585,0.93362 -2.6407,1.13417 -0.3822,0.20056 -1.3204,0.55249 -2.0848,0.78208 -0.7644,0.22959 -1.7651,0.61699 -2.2237,0.86089 -0.4587,0.2439 -1.3738,0.44422 -2.0336,0.44516 -0.6598,9.4e-4 -1.4514,0.13645 -1.7591,0.30113 -1.4391,0.77019 -5.1154,-2.21251 -6.9015,-5.5994 -0.2876,-0.54532 -0.7197,-1.15479 -0.9602,-1.35439 -0.2405,-0.19959 -0.4372,-0.5934 -0.4372,-0.87512 0,-0.28173 -0.3527,-0.92311 -0.7837,-1.4253 -0.4845,-0.56461 -0.9014,-1.49651 -1.0924,-2.44189 -0.1698,-0.84085 -0.5853,-2.79001 -0.9233,-4.33146 -0.6606,-3.01275 -0.6475,-3.20562 0.6232,-9.14998 0.3619,-1.69294 1.4704,-4.08678 2.1971,-4.74439 0.2942,-0.2663 0.535,-0.76219 0.535,-1.10198 0,-0.3398 0.1828,-0.7695 0.4062,-0.95491 0.2234,-0.18541 0.491,-0.60725 0.5947,-0.93743 0.4235,-1.34819 2.9786,-5.50082 3.9106,-6.3556 0.5493,-0.50378 1.3263,-1.27701 1.7267,-1.7183 1.5264,-1.68237 3.271,-3.22819 3.6432,-3.22819 0.089,0 0.3761,-0.36334 0.6385,-0.80741 0.2623,-0.44407 1.1961,-1.20871 2.0752,-1.6992 0.879,-0.49049 1.8544,-1.12587 2.1674,-1.41196 0.6601,-0.60323 3.607,-1.68043 3.8721,-1.41538 0.099,0.0987 1.2451,0.26229 2.5476,0.36357 2.0357,0.15829 2.4745,0.28598 3.1252,0.90945 0.467,0.44739 1.0719,0.72531 1.5786,0.72531 0.4912,0 1.1229,0.27948 1.571,0.69492 0.4122,0.38221 0.9282,0.69492 1.1467,0.69492 0.6317,0 1.8621,0.72647 2.3076,1.36241 0.2247,0.32085 0.5708,0.58337 0.7692,0.58337 0.1983,0 0.6812,0.28144 1.0731,0.62542 0.3919,0.34399 1.0131,0.87738 1.3804,1.18531 1.3309,1.1156 3.2492,3.47838 3.1128,3.83397 -0.077,0.20024 0.1109,0.65307 0.4172,1.00628 0.3064,0.35322 0.6409,0.90638 0.7433,1.22925 0.2566,0.80826 1.2609,2.12668 1.6198,2.1263 0.1624,-1.7e-4 0.6292,-0.34416 1.0374,-0.76441 4.2682,-4.39392 5.443,-5.70495 6.289,-7.01838 0.5416,-0.84085 1.4009,-1.96662 1.9094,-2.50171 2.2452,-2.36216 4.2629,-5.2814 4.2629,-6.16763 0,-0.20366 0.2814,-0.68837 0.6254,-1.07712 0.7506,-0.84826 1.0244,-1.28387 2.1727,-3.45701 0.4847,-0.9173 1.0383,-1.85544 1.2301,-2.08476 0.1919,-0.22933 0.4283,-0.85476 0.5255,-1.38984 0.097,-0.53509 0.6151,-1.52422 1.1508,-2.19808 0.5549,-0.69786 1.0481,-1.68753 1.1459,-2.29939 0.094,-0.59082 0.2804,-1.14137 0.4132,-1.22344 0.1328,-0.0821 0.2415,-0.39918 0.2415,-0.70467 0,-0.30549 0.5629,-1.73611 1.2509,-3.17916 0.6879,-1.44305 1.2508,-2.92649 1.2508,-3.29654 0,-0.37005 0.1397,-0.7194 0.3105,-0.77633 0.365,-0.12165 1.0544,-3.45155 1.0691,-5.16365 0.01,-0.65466 0.1895,-1.61928 0.4086,-2.14361 0.5226,-1.25084 0.6887,-2.61231 0.8308,-6.81192 0.086,-2.53289 0.012,-3.77595 -0.2736,-4.58647 -0.2152,-0.61153 -0.3939,-1.7373 -0.3971,-2.50171 0,-0.76441 -0.181,-1.7254 -0.395,-2.13553 -0.214,-0.41013 -0.4713,-1.16064 -0.5719,-1.66781 -0.294,-1.48249 -1.3532,-3.56281 -1.8141,-3.56281 -0.2328,0 -0.5732,-0.23987 -0.7563,-0.53304 -0.204,-0.32668 -0.5333,-0.48061 -0.8507,-0.39763 -0.2848,0.0745 -0.6807,-0.0609 -0.8799,-0.30086 -0.728,-0.87717 -5.5475,-0.40153 -7.7007,0.75999 -0.4363,0.23536 -0.981,0.49949 -1.2103,0.58695 -0.4783,0.18244 -1.2307,0.64445 -2.1885,1.34392 -0.3664,0.26754 -0.8841,0.48644 -1.1505,0.48644 -0.2665,0 -0.634,0.1802 -0.8168,0.40043 -0.1828,0.22024 -0.5044,0.3344 -0.7147,0.2537 -0.4243,-0.16282 -0.7991,0.10718 -2.2753,1.63911 -0.5525,0.57331 -1.1408,1.04241 -1.3074,1.04246 -0.4063,10e-5 -3.8268,3.27677 -4.4279,4.24176 -0.2628,0.42199 -1.1717,1.42267 -2.0197,2.22374 -1.4591,1.37834 -4.001,4.82293 -4.001,5.42194 0,0.15239 -0.4409,0.6134 -0.9799,1.02446 -0.5389,0.41106 -1.1956,1.15146 -1.4593,1.64532 -1.0837,2.02956 -1.6476,2.84156 -2.7447,3.95232 -0.6343,0.64224 -1.244,1.46229 -1.3547,1.82233 -0.1107,0.36004 -0.5924,1.03211 -1.0704,1.49348 -1.2043,1.1625 -2.7268,2.93956 -3.3482,3.90813 -0.5397,0.84115 -1.0631,1.4679 -1.8988,2.27368 -0.2675,0.25797 -0.4864,0.63387 -0.4864,0.83534 0,0.20147 -0.4691,0.84837 -1.0424,1.43754 -0.5733,0.58917 -1.5427,1.70836 -2.1543,2.48709 -0.6115,0.77873 -1.7668,2.13668 -2.5672,3.01767 -0.8005,0.88099 -1.4572,1.71391 -1.4594,1.85094 0,0.13703 -0.5668,0.85091 -1.2548,1.58641 -0.6879,0.73549 -1.2508,1.52658 -1.2508,1.75797 0,0.2314 -0.5668,1.01854 -1.2594,1.74921 -0.6927,0.73067 -1.337,1.68877 -1.4319,2.1291 -0.096,0.447 -0.766,1.3609 -1.5165,2.06918 -0.7392,0.69772 -1.4768,1.67065 -1.6389,2.16208 -0.1622,0.49144 -0.7839,1.29211 -1.3816,1.77927 -0.5977,0.48717 -1.3566,1.44325 -1.6864,2.12464 -0.3299,0.68138 -0.8745,1.4189 -1.2103,1.63893 -0.3359,0.22004 -0.9064,0.93279 -1.2678,1.58391 -0.3615,0.65112 -1.0731,1.69707 -1.5814,2.32435 -0.5083,0.62727 -0.9242,1.28933 -0.9242,1.47124 0,0.1819 -0.5503,0.91953 -1.223,1.63917 -0.6726,0.71965 -1.2697,1.62116 -1.3269,2.00336 -0.057,0.38221 -0.2574,0.66365 -0.4449,0.62543 -0.1874,-0.0382 -0.3408,0.12082 -0.3408,0.35342 0,0.52645 -1.194,2.35101 -2.4003,3.668 -0.501,0.54694 -1.124,1.44508 -1.3846,1.99585 -0.2605,0.55078 -0.954,1.65278 -1.541,2.44888 -0.5871,0.79611 -1.0674,1.59562 -1.0674,1.7767 0,0.18108 -0.3729,0.68562 -0.8287,1.1212 -0.4558,0.43559 -1.4032,1.78071 -2.1054,2.98917 -0.7021,1.20846 -1.5801,2.48226 -1.9509,2.83067 -0.3709,0.34841 -0.6744,0.74212 -0.6744,0.87491 0,0.1328 -0.4857,0.89278 -1.0795,1.68885 -0.5937,0.79607 -1.3001,1.8852 -1.5698,2.42029 -0.2697,0.53509 -0.8944,1.47323 -1.3883,2.08476 -0.4939,0.61153 -0.994,1.42458 -1.1115,1.80679 -0.2575,0.83816 -1.0478,2.04438 -2.9065,4.43607 -0.7674,0.98746 -1.3953,1.87673 -1.3953,1.97615 0,0.0994 -0.4365,0.72999 -0.9701,1.40126 -0.5337,0.67126 -0.9715,1.35745 -0.9729,1.52486 -0.001,0.1674 -0.2301,0.51015 -0.508,0.76165 -0.2779,0.25151 -0.7802,1.00769 -1.1162,1.6804 -0.3359,0.67272 -0.7965,1.37725 -1.0235,1.56562 -0.227,0.18837 -0.4127,0.51873 -0.4127,0.73413 0,0.2154 -0.1719,0.45762 -0.3821,0.53827 -0.5033,0.19315 -1.3665,2.12958 -1.2406,2.7832 0.069,0.35842 0.3826,0.53645 1.0388,0.58966 0.5169,0.0419 1.454,0.2228 2.0823,0.40195 0.6283,0.17915 1.3612,0.29647 1.6288,0.26071 0.2675,-0.0358 0.4864,0.0542 0.4864,0.2 0,0.14577 0.4065,0.32728 0.9034,0.40337 1.5861,0.24288 2.2187,0.45061 2.7007,0.88674 0.2586,0.23407 0.675,0.42558 0.9253,0.42558 0.9859,0 2.6138,1.05361 4.1876,2.71019 0.9078,0.95552 1.8223,1.7373 2.0323,1.7373 0.21,0 0.9246,0.50034 1.5881,1.11187 0.6634,0.61153 1.3375,1.11187 1.4979,1.11187 0.1605,0 0.9957,0.68729 1.8561,1.52732 0.8604,0.84002 1.9584,1.73106 2.4399,1.98008 0.4816,0.24902 1.2368,0.78131 1.6782,1.18287 0.4414,0.40156 1.0811,0.98028 1.4216,1.28604 1.4293,1.2838 3.3734,1.55452 4.4913,0.62543 z m -49.9056,-14.10687 c 0,-0.15288 0.245,-0.52295 0.5444,-0.82237 0.2994,-0.29942 0.8141,-1.08121 1.1436,-1.7373 0.3296,-0.65609 0.8977,-1.59108 1.2624,-2.07774 0.3647,-0.48667 0.6632,-1.0003 0.6632,-1.1414 0,-0.14109 0.4383,-0.83054 0.9739,-1.5321 0.5357,-0.70156 1.0964,-1.56387 1.2461,-1.91625 0.1496,-0.35239 0.5802,-1.14104 0.9569,-1.75257 0.3766,-0.61153 1.0184,-1.79984 1.4261,-2.6407 0.4077,-0.84085 0.963,-1.77899 1.2338,-2.08475 0.2709,-0.30577 0.5853,-0.86865 0.6987,-1.25086 0.1134,-0.38221 0.3775,-0.88255 0.5869,-1.11187 0.9864,-1.08019 2.3285,-3.10913 2.3285,-3.52026 0,-0.25179 0.344,-0.90693 0.7644,-1.45587 1.2973,-1.69379 1.951,-2.72211 2.1639,-3.40374 0.1123,-0.35975 0.2812,-0.71663 0.3753,-0.79307 0.3459,-0.28117 2.2557,-2.73972 2.2557,-2.90392 0,-0.0933 0.6041,-0.94801 1.3424,-1.89932 0.7383,-0.95131 1.4278,-2.04223 1.5322,-2.42425 0.1044,-0.38203 0.8763,-1.44281 1.7153,-2.35729 0.839,-0.91449 1.5254,-1.79777 1.5254,-1.96286 0,-0.16508 0.2349,-0.55226 0.522,-0.86038 0.287,-0.30812 0.6081,-0.83197 0.7136,-1.1641 0.2454,-0.77326 1.9337,-3.30061 2.8522,-4.26959 0.742,-0.78288 1.1903,-1.47591 1.8582,-2.87254 0.2208,-0.46175 0.6572,-1.07104 0.9698,-1.35396 0.3127,-0.28293 0.7079,-0.93709 0.8784,-1.45369 0.1705,-0.5166 0.4024,-0.93928 0.5152,-0.93928 0.1129,0 0.4865,-0.50034 0.8302,-1.11187 0.3437,-0.61153 0.8076,-1.11187 1.0309,-1.11187 0.2234,0 0.5351,-0.34398 0.6928,-0.76441 0.1577,-0.42043 0.579,-1.03851 0.9363,-1.37351 0.3572,-0.335 1.0596,-1.32587 1.5608,-2.20193 0.5013,-0.87606 1.1088,-1.79571 1.3501,-2.04367 0.2413,-0.24795 0.689,-0.80583 0.9947,-1.23973 0.3058,-0.43389 1.0268,-1.34501 1.6023,-2.0247 0.5755,-0.6797 1.229,-1.57012 1.4521,-1.97872 0.2231,-0.40859 0.8467,-1.17468 1.3858,-1.70241 0.5391,-0.52773 0.9802,-1.18154 0.9802,-1.45292 0,-0.27138 0.2923,-0.68494 0.6496,-0.91903 0.3572,-0.23408 1.0643,-1.0813 1.5712,-1.88269 0.5069,-0.80139 1.3243,-1.89488 1.8164,-2.42997 0.4921,-0.53509 1.2292,-1.53577 1.638,-2.22374 1.0476,-1.7631 2.5691,-3.88505 3.4879,-4.86444 0.4303,-0.45865 0.8711,-1.12764 0.9795,-1.48664 0.1083,-0.35901 0.8101,-1.32975 1.5594,-2.1572 0.7494,-0.82745 1.3625,-1.6474 1.3625,-1.82211 0,-0.17471 0.5941,-0.98436 1.3203,-1.79922 2.545,-2.85571 3.4051,-3.91672 3.4051,-4.2003 0,-0.15731 0.5317,-0.85682 1.1814,-1.55448 1.4819,-1.59117 2.2934,-2.62733 3.8446,-4.90898 0.6756,-0.99373 1.3683,-1.89764 1.5393,-2.00868 0.1711,-0.11104 0.455,-0.54949 0.631,-0.97435 0.176,-0.42485 0.6615,-1.00446 1.0788,-1.28802 0.7066,-0.48003 1.8625,-1.86649 2.8437,-3.41073 0.2293,-0.36094 0.5272,-0.65648 0.6621,-0.65676 0.2405,-4.8e-4 1.9745,-1.72324 2.1614,-2.14737 0.1308,-0.29673 1.8231,-1.46671 2.1215,-1.46671 0.1332,0 0.6454,-0.56164 1.1384,-1.2481 0.493,-0.68645 1.4325,-1.56229 2.0877,-1.94631 1.7684,-1.03631 4.3997,-4.21113 5.4735,-6.60395 0.1886,-0.42043 0.4207,-0.76442 0.5157,-0.76442 0.095,0 0.345,-0.59415 0.5557,-1.32034 0.2107,-0.72619 0.6758,-1.67393 1.0336,-2.10609 0.3577,-0.43216 0.6505,-1.03785 0.6505,-1.346 0,-0.30814 0.2501,-0.87829 0.5559,-1.26701 0.3413,-0.43393 0.5623,-1.14833 0.5725,-1.85063 0.01,-0.62914 0.1404,-1.76931 0.2918,-2.53372 0.4838,-2.44394 0.451,-2.96796 -0.2289,-3.64779 -0.3495,-0.3495 -0.6354,-0.92534 -0.6354,-1.27967 0,-0.75928 -1.4426,-2.60771 -2.2302,-2.8577 -0.3022,-0.0959 -0.5495,-0.35121 -0.5495,-0.56731 0,-0.43186 -1.1678,-0.82617 -1.7664,-0.59645 -0.2078,0.0797 -0.7397,-0.0936 -1.182,-0.38515 -0.4423,-0.29157 -1.0606,-0.53095 -1.374,-0.53196 -0.3134,-10e-4 -0.7113,-0.14329 -0.8842,-0.31617 -0.3955,-0.39551 -5.6638,-0.57018 -7.6449,-0.25348 -0.9189,0.14689 -1.59,0.13089 -1.8027,-0.043 -0.2358,-0.19269 -0.5644,-0.0996 -1.0799,0.30589 -0.4075,0.32057 -0.9589,0.58286 -1.2254,0.58286 -0.2664,0 -0.6401,0.18762 -0.8304,0.41695 -0.1903,0.22932 -0.5735,0.41695 -0.8516,0.41695 -0.278,0 -0.5805,0.12146 -0.6723,0.26991 -0.092,0.14845 -0.7949,0.35323 -1.5626,0.45507 -0.7677,0.10183 -1.829,0.47915 -2.3585,0.83847 -0.5295,0.35933 -1.2722,0.73099 -1.6504,0.82592 -0.3783,0.0949 -0.6886,0.25286 -0.6896,0.35095 -0.001,0.0981 -0.4701,0.48994 -1.0424,0.87078 -0.5723,0.38084 -1.103,0.7563 -1.1795,0.83435 -0.076,0.0781 -0.4829,0.3192 -0.9034,0.53589 -0.4204,0.2167 -0.7644,0.56048 -0.7644,0.76397 0,0.23351 -0.3395,0.36998 -0.9205,0.36998 -0.5077,0 -1.1652,0.22809 -1.4664,0.50867 -0.3003,0.27977 -0.9181,0.74797 -1.3728,1.04044 -0.4547,0.29247 -1.202,0.95112 -1.6607,1.46367 -0.4586,0.51255 -1.3029,1.17267 -1.8762,1.46693 -0.5733,0.29426 -1.0424,0.65756 -1.0424,0.80733 0,0.14978 -0.2447,0.27232 -0.5437,0.27232 -1.1654,0 -3.8829,1.93408 -5.1133,3.63915 -0.1756,0.24338 -0.6946,0.56387 -1.1532,0.71219 -0.5882,0.1902 -0.9913,0.61269 -1.368,1.43376 -0.2937,0.64026 -0.6918,1.1641 -0.8846,1.1641 -0.1929,0 -0.4301,0.25017 -0.5271,0.55593 -0.097,0.30577 -0.3381,0.55594 -0.5358,0.55594 -0.1976,0 -1.251,0.96941 -2.3409,2.15425 -1.0899,1.18484 -2.2957,2.49329 -2.6796,2.90767 -0.3839,0.41438 -0.698,0.86813 -0.698,1.00834 0,0.14021 -0.1876,0.41065 -0.4169,0.60097 -0.2294,0.19032 -0.419,0.54962 -0.4214,0.79845 0,0.24882 -0.3777,0.87588 -0.8339,1.39347 -0.4562,0.51758 -0.8295,1.11138 -0.8295,1.31954 0,0.20817 -0.4212,0.84792 -0.936,1.42167 -0.5148,0.57375 -1.0236,1.32462 -1.1306,1.66861 -0.107,0.34398 -0.3596,0.62542 -0.5611,0.62542 -0.2016,0 -0.5743,0.4378 -0.8283,0.97289 -0.2539,0.53509 -0.6121,0.97444 -0.796,0.97633 -0.2944,0.003 -1.5853,1.69714 -1.5853,2.08045 0,0.16425 -1.0208,2.52232 -1.4126,3.26322 -0.1404,0.26547 -0.2552,0.6442 -0.2552,0.84162 0,0.41443 -0.6577,1.00999 -1.7279,1.56471 -0.435,0.22549 -0.8183,0.71102 -0.9174,1.16216 -0.094,0.42617 -0.3497,0.92391 -0.5692,1.10607 -0.2195,0.18217 -0.3991,0.56652 -0.3991,0.85412 0,0.2876 -0.2502,0.98967 -0.5559,1.56016 -0.3058,0.57049 -0.556,1.3787 -0.556,1.79601 0,0.45863 -0.2071,0.86958 -0.5236,1.03896 -0.2879,0.15412 -0.6048,0.69013 -0.7041,1.19114 -0.1935,0.97644 -1.0308,2.16179 -1.527,2.16179 -0.1666,0 -0.3029,0.23033 -0.3029,0.51184 0,0.28151 -0.5004,1.522 -1.1119,2.75664 -0.6115,1.23464 -1.1119,2.50245 -1.1119,2.81736 0,0.31492 -0.2818,0.75724 -0.6263,0.98295 -0.5087,0.33329 -0.6429,0.71307 -0.7147,2.02161 -0.049,0.889 -0.2664,1.80797 -0.4855,2.05014 -0.2185,0.24139 -0.3972,0.5403 -0.3972,0.66424 0,0.12393 -0.3753,0.83521 -0.8339,1.5806 -0.5078,0.82525 -0.8339,1.73412 -0.8339,2.32398 0,0.53279 -0.1081,0.96871 -0.2402,0.96871 -0.1321,0 -0.4513,0.59416 -0.7093,1.32035 -0.2579,0.72619 -0.7916,2.00832 -1.1858,2.84917 -0.6622,1.41212 -1.3966,3.86333 -2.082,6.9492 -0.1529,0.68797 -0.5174,2.06744 -0.81,3.06549 -0.2926,0.99804 -0.5321,2.08868 -0.5321,2.42363 0,0.33495 -0.3144,1.57219 -0.6987,2.74943 -0.3843,1.17723 -0.6285,2.36159 -0.5427,2.63189 0.086,0.27031 0.033,0.71819 -0.1168,0.9953 -0.433,0.80001 -0.8655,2.99816 -0.8655,4.39934 0,0.73939 -0.1675,1.45409 -0.3938,1.68039 -0.2166,0.21658 -0.3946,0.92689 -0.3955,1.57846 -9e-4,0.65157 -0.1203,1.49739 -0.2654,1.87959 -0.145,0.38221 -0.203,1.10169 -0.1288,1.59884 0.082,0.54616 -0.031,1.15638 -0.2831,1.54177 -0.2298,0.35082 -0.4858,1.25746 -0.5687,2.01475 -0.083,0.75729 -0.3475,2.31503 -0.5879,3.46165 -0.2404,1.14662 -0.4969,2.5851 -0.57,3.19663 -0.2279,1.90669 -0.9143,6.39326 -0.9781,6.39326 -0.033,0 -0.091,1.45297 -0.129,3.22882 -0.038,1.77586 -0.1754,3.40197 -0.3064,3.61359 -0.3185,0.51486 -0.3655,3.67243 -0.079,5.33462 0.1266,0.73495 0.2455,2.47983 0.2643,3.87751 0.019,1.39768 0.097,2.70391 0.1729,2.90273 0.163,0.42469 0.6352,0.48679 0.6352,0.0835 z m 64.6275,-28.7739 c 1.2295,-0.36726 2.1325,-0.73748 3.8183,-1.5655 0.2655,-0.13039 0.6106,-0.23707 0.7668,-0.23707 0.1563,0 0.8022,-0.37525 1.4354,-0.8339 0.6331,-0.45865 1.3217,-0.8339 1.5301,-0.8339 0.2085,0 0.5962,-0.11457 0.8617,-0.2546 0.2655,-0.14003 0.9784,-0.47125 1.5842,-0.73604 0.6059,-0.2648 1.5941,-0.8382 2.196,-1.27423 0.6019,-0.43603 1.2038,-0.79278 1.3375,-0.79278 0.3358,0 3.8385,-2.18896 4.6218,-2.88833 0.7864,-0.70208 1.7272,-2.7639 1.7107,-3.74874 -0.041,-2.40657 -1.2616,-4.47664 -3.251,-5.5112 -0.528,-0.2746 -1.1981,-0.62275 -1.4891,-0.77366 -0.291,-0.15091 -0.5291,-0.36727 -0.5291,-0.48079 0,-0.45848 -2.19,-1.26233 -3.8261,-1.40438 -1.5187,-0.13186 -1.7777,-0.0834 -2.0251,0.37875 -0.156,0.29148 -0.4566,0.52995 -0.6679,0.52995 -0.7754,0 -3.197,1.42769 -3.8197,2.25194 -0.3525,0.4666 -0.9223,1.13455 -1.2663,1.48434 -0.344,0.34979 -0.6254,0.72622 -0.6254,0.83652 0,0.1103 -0.3979,0.62237 -0.8842,1.13794 -1.1499,1.21909 -3.748,6.81962 -3.9917,8.60461 -0.1044,0.76441 -0.2957,1.52142 -0.425,1.68225 -0.3984,0.49527 -0.209,3.82573 0.2481,4.36355 0.5025,0.59123 0.8972,0.6008 2.69,0.0653 z M 124.78441,662.335 c -0.43765,-0.43765 -0.92301,-0.59177 -3.01539,-0.95747 -0.8636,-0.15094 -1.46736,-0.47683 -2.01135,-1.08566 -0.42753,-0.47849 -0.89507,-0.86998 -1.03898,-0.86998 -0.34137,0 -1.96993,-1.9775 -1.96993,-2.39202 0,-0.17577 -0.18123,-0.46999 -0.40273,-0.65382 -0.22151,-0.18383 -0.54963,-0.79331 -0.72916,-1.35439 -0.17953,-0.56108 -0.57649,-1.29466 -0.88212,-1.63018 -0.37519,-0.41188 -0.50195,-0.82416 -0.39024,-1.26925 0.0927,-0.36923 -5.4e-4,-0.89619 -0.2119,-1.19795 -0.20754,-0.29631 -0.37735,-1.19596 -0.37735,-1.99924 0,-0.80327 -0.13585,-1.62418 -0.30188,-1.82424 -0.38806,-0.46758 -0.24656,-6.48899 0.19709,-8.38751 0.37372,-1.59929 0.91551,-2.8227 1.87837,-4.24155 0.37294,-0.54956 0.75642,-1.32106 0.85217,-1.71444 0.0958,-0.39339 0.53039,-1.06032 0.96585,-1.48207 0.45527,-0.44095 0.79174,-1.06254 0.79174,-1.46266 0,-0.45497 0.48012,-1.19985 1.38698,-2.15184 0.76284,-0.8008 1.38827,-1.60124 1.38984,-1.77875 0.002,-0.17751 0.37811,-0.63851 0.83676,-1.02443 0.45865,-0.38593 0.83391,-0.89739 0.83391,-1.13658 0,-0.2392 0.11617,-0.4349 0.25817,-0.4349 0.142,0 0.72757,-0.4427 1.30128,-0.98378 0.57371,-0.54107 1.45822,-1.18075 1.96557,-1.42151 0.50735,-0.24075 0.92246,-0.54857 0.92246,-0.68403 0,-0.13546 0.15636,-0.24709 0.34746,-0.24805 0.1911,-9.7e-4 0.55975,-0.37484 0.81921,-0.83082 0.31342,-0.55082 0.61583,-0.77378 0.90105,-0.66433 0.24818,0.0952 0.498,-0.0143 0.59213,-0.25956 0.25144,-0.65526 0.89494,-0.82319 3.50257,-0.91405 2.30947,-0.0805 2.4529,-0.0498 3.44333,0.73734 0.56841,0.45171 1.19052,0.8213 1.38246,0.8213 0.19195,0 0.421,0.18763 0.50899,0.41695 0.088,0.22933 0.35156,0.41696 0.58568,0.41696 0.27077,0 0.42568,0.25748 0.42568,0.70755 0,0.40236 0.3279,1.03183 0.7602,1.45933 0.41811,0.41348 0.77179,0.81432 0.78596,0.89076 0.68828,3.71322 1.15095,3.82409 2.3199,0.55594 0.35544,-0.99374 0.80907,-1.99442 1.00807,-2.22375 0.19899,-0.22932 0.82674,-1.48017 1.395,-2.77967 0.56825,-1.2995 1.2039,-2.60946 1.41256,-2.91102 0.20865,-0.30157 0.37947,-0.98954 0.37959,-1.52883 1.6e-4,-0.72685 0.25186,-1.26327 0.97289,-2.0734 0.53497,-0.60108 0.9727,-1.31294 0.9727,-1.58191 0,-0.26897 0.116,-0.56078 0.2579,-0.64846 0.3141,-0.19414 2.1337,-4.92952 2.3927,-6.22703 0.1025,-0.51329 0.4893,-1.37975 0.8597,-1.92545 0.3703,-0.54571 0.7428,-1.31405 0.8278,-1.70743 0.085,-0.39338 0.2593,-1.02796 0.3873,-1.41016 0.128,-0.38221 0.3079,-1.03891 0.3997,-1.45933 0.092,-0.42043 0.335,-0.76441 0.5405,-0.76441 0.2124,0 0.5858,-0.68942 0.8657,-1.59832 0.2706,-0.87907 0.9634,-2.599 1.5394,-3.82206 0.576,-1.22306 1.1944,-2.77358 1.3743,-3.4456 0.1799,-0.67202 0.5814,-1.56588 0.8923,-1.98634 0.3108,-0.42046 0.6293,-1.33341 0.7077,-2.02877 0.078,-0.69537 0.3772,-1.51622 0.664,-1.82411 0.3872,-0.41561 0.5216,-0.97988 0.5216,-2.19077 0,-1.3803 0.1068,-1.73131 0.6949,-2.28382 0.3822,-0.35906 0.6949,-0.90263 0.6949,-1.20793 0,-0.3053 0.1915,-0.7667 0.4256,-1.02535 0.234,-0.25864 0.48,-0.75313 0.5466,-1.09887 0.067,-0.34573 0.3218,-0.93498 0.5672,-1.30945 0.2967,-0.45286 0.4627,-1.39532 0.4957,-2.81457 0.027,-1.17355 0.1582,-2.21277 0.2909,-2.30939 0.1327,-0.0966 -0.038,-0.45537 -0.3802,-0.79722 -0.3419,-0.34186 -0.7089,-0.95078 -0.8156,-1.35316 -0.1523,-0.5745 -0.3907,-0.7508 -1.1103,-0.82103 -0.6117,-0.0597 -0.9612,-0.2612 -1.0514,-0.60619 -0.074,-0.28422 -0.2792,-0.46566 -0.4552,-0.4032 -0.1761,0.0625 -0.586,-0.41526 -0.9109,-1.06161 -0.3249,-0.64635 -0.8253,-1.2204 -1.1119,-1.27566 -0.2866,-0.0553 -0.6211,-0.27416 -0.7433,-0.48644 -0.1223,-0.21228 -0.5609,-0.38597 -0.9748,-0.38597 -0.4138,0 -1.128,-0.10772 -1.587,-0.23937 -1.063,-0.30486 -2.0804,0.0636 -2.0804,0.75337 0,0.29255 -0.3868,0.91006 -0.8595,1.37225 -0.8724,0.85292 -0.9739,1.27461 -0.8638,3.5879 0.047,0.97872 0.1924,1.24618 0.9093,1.66781 0.513,0.30172 0.9152,0.80727 1.0076,1.26657 0.085,0.42042 0.2523,0.76441 0.3727,0.76441 0.1203,0 0.3014,0.48892 0.4023,1.08649 0.1491,0.8824 0.3495,1.1541 1.0668,1.44638 1.0086,0.41096 1.4261,0.85422 1.9744,2.09631 0.2128,0.48213 0.6421,0.9576 0.954,1.0566 0.3119,0.099 0.6445,0.42376 0.7391,0.7217 0.095,0.29794 0.2886,0.54172 0.4311,0.54172 0.5108,0 0.2865,2.39095 -0.2717,2.89604 -0.292,0.26427 -0.6079,0.78718 -0.7019,1.16202 -0.2807,1.11828 -1.0389,1.63156 -2.9798,2.01736 -2.1927,0.43584 -2.89,0.17901 -4.8585,-1.78954 -0.6756,-0.67553 -1.2866,-1.22824 -1.3579,-1.22824 -0.2251,0 -3.84915,-3.74192 -4.72017,-4.87363 -1.05755,-1.37408 -2.07892,-3.42985 -2.08221,-4.19102 -0.001,-0.32266 -0.31921,-1.05328 -0.70625,-1.62361 -0.38703,-0.57033 -0.77911,-1.58711 -0.87127,-2.25951 -0.0922,-0.6724 -0.33838,-1.3643 -0.54715,-1.53757 -0.53494,-0.44396 -0.54318,-6.71434 -0.009,-7.15733 0.2036,-0.16897 0.60462,-1.02862 0.89115,-1.91032 0.28653,-0.88171 0.74537,-1.86133 1.01966,-2.17695 0.27428,-0.31562 0.49869,-0.83285 0.49869,-1.1494 0,-0.55478 1.18464,-1.58054 1.85014,-1.602 0.17673,-0.006 0.5943,-0.35685 0.92794,-0.78033 0.66091,-0.83887 2.0746,-1.68663 2.85867,-1.7143 0.2719,-0.01 0.6525,-0.33016 0.8458,-0.71236 0.2923,-0.57785 0.5189,-0.68026 1.3455,-0.60786 0.7218,0.0632 1.042,-0.0382 1.1695,-0.37039 0.154,-0.40131 0.6055,-0.44099 3.6779,-0.3233 1.9924,0.0763 3.6342,0.26596 3.8081,0.43988 0.1681,0.16815 0.6107,0.30573 0.9834,0.30573 0.4044,0 1.1644,0.44853 1.884,1.11187 0.6634,0.61153 1.3773,1.11187 1.5863,1.11187 0.2091,0 0.6065,0.25017 0.8832,0.55594 0.2767,0.30576 0.6685,0.55593 0.8706,0.55593 0.2021,0 0.5692,0.30784 0.8157,0.68408 0.2465,0.37625 0.6869,0.75984 0.9786,0.85243 0.2918,0.0926 0.6069,0.47273 0.7002,0.84475 0.093,0.37201 0.2756,0.67639 0.405,0.67639 0.2397,0 1.1243,0.84729 1.995,1.91085 0.6207,0.75811 0.9984,0.74799 1.2906,-0.0346 0.7086,-1.89797 0.9463,-2.69951 1.1589,-3.90828 0.1509,-0.85742 0.5394,-1.68355 1.0832,-2.3029 0.4664,-0.53121 0.8481,-1.21885 0.8481,-1.5281 0,-0.30924 0.3014,-1.10219 0.6698,-1.76211 0.3685,-0.65992 0.6595,-1.37196 0.6468,-1.58231 -0.043,-0.70955 0.4186,-2.18926 0.6826,-2.18926 0.1441,0 0.183,-0.24886 0.086,-0.55302 -0.1,-0.31508 0.01,-0.81545 0.2517,-1.16297 0.2489,-0.35535 0.3594,-0.8802 0.2648,-1.25739 -0.09,-0.35608 -0.029,-0.80836 0.1343,-1.00507 0.1632,-0.1967 0.3765,-0.91432 0.4739,-1.5947 0.098,-0.68039 0.3742,-1.67487 0.615,-2.20995 0.2408,-0.53509 0.4942,-1.55635 0.563,-2.26947 0.094,-0.97195 0.2562,-1.33081 0.6481,-1.43331 0.3874,-0.10131 0.5229,-0.39122 0.5229,-1.11923 0,-0.54038 0.1251,-1.05982 0.278,-1.1543 0.1528,-0.0945 0.2779,-0.60614 0.2779,-1.137 0,-0.60154 0.1571,-1.02549 0.417,-1.12521 0.2293,-0.088 0.4169,-0.46537 0.4169,-0.83861 0,-0.37323 0.2502,-1.1964 0.556,-1.82926 0.3057,-0.63286 0.5559,-1.54105 0.5559,-2.0182 0,-0.47715 0.1836,-1.11036 0.4081,-1.40712 0.2245,-0.29677 0.4121,-0.96849 0.417,-1.49273 0.011,-1.2056 0.5594,-2.78033 1.1902,-3.41888 0.2675,-0.27082 0.4864,-0.86766 0.4864,-1.32631 0,-0.45864 0.1386,-0.8339 0.3081,-0.8339 0.1932,0 0.2403,-0.27019 0.1263,-0.72435 -0.115,-0.45811 -0.024,-0.96535 0.2478,-1.37999 0.5763,-0.87949 1.326,-3.1292 1.142,-3.42688 -0.1689,-0.27332 0.6316,-2.01897 1.0548,-2.30019 0.1849,-0.12285 0.1652,-0.3279 -0.057,-0.59598 -0.2688,-0.32394 -0.26,-0.48785 0.043,-0.7905 0.5271,-0.52707 2.4171,-4.9877 2.4171,-5.70458 0,-0.32134 0.1876,-0.65625 0.4169,-0.74425 0.2293,-0.088 0.417,-0.37102 0.417,-0.62893 0,-0.25791 0.3127,-0.87892 0.6949,-1.38002 0.3822,-0.5011 0.6949,-1.09968 0.6949,-1.33018 0,-0.2305 0.1251,-0.4964 0.278,-0.59089 0.1529,-0.0945 0.278,-0.35978 0.278,-0.58955 0,-0.22977 0.3292,-1.11372 0.7316,-1.96434 0.6395,-1.35175 0.7378,-1.9361 0.7807,-4.63875 0.053,-3.32072 0.2283,-4.06506 0.9592,-4.06506 0.2564,0 0.6853,-0.37081 0.953,-0.82402 0.4704,-0.79627 0.4677,-0.84308 -0.079,-1.38984 -0.3112,-0.3112 -0.8825,-0.56581 -1.2695,-0.56581 -0.387,0 -0.7753,-0.18674 -0.8629,-0.41498 -0.1055,-0.27497 -0.375,-0.3608 -0.7989,-0.25441 -0.4772,0.11977 -0.6841,0.0209 -0.8142,-0.38904 -0.096,-0.30227 -0.5224,-0.69374 -0.9478,-0.86992 -0.4253,-0.17618 -1.4441,-0.93377 -2.2639,-1.68354 -0.8199,-0.74976 -1.5788,-1.30874 -1.6865,-1.24217 -0.1077,0.0666 -0.5117,-0.12744 -0.8978,-0.43112 -0.386,-0.30368 -0.9532,-0.55215 -1.2603,-0.55215 -0.3072,0 -0.6001,-0.10878 -0.6511,-0.24174 -0.1002,-0.26156 -3.3371,-1.70985 -5.0227,-2.24734 -0.5712,-0.18214 -1.1102,-0.44712 -1.1978,-0.58885 -0.088,-0.14173 -0.3949,-0.25769 -0.6829,-0.25769 -0.6067,0 -2.5012,-1.05718 -2.5012,-1.39573 0,-0.12593 -0.4267,-0.36979 -0.9483,-0.54193 -0.5216,-0.17213 -1.0104,-0.47484 -1.0863,-0.67269 -0.076,-0.19785 -0.6186,-0.5854 -1.206,-0.86123 -0.5873,-0.27583 -1.59,-0.85791 -2.2282,-1.29352 -0.6382,-0.43561 -1.4513,-0.91916 -1.8068,-1.07456 -0.3556,-0.1554 -1.0495,-0.52669 -1.5422,-0.82509 -0.4926,-0.29839 -1.3057,-0.65404 -1.8068,-0.79032 -0.5011,-0.13628 -0.8798,-0.39092 -0.8416,-0.56587 0.038,-0.17495 -0.077,-0.31809 -0.256,-0.31809 -0.1791,0 -0.5231,-0.16605 -0.7645,-0.369 -0.2413,-0.20295 -0.9776,-0.52283 -1.6361,-0.71085 -0.6585,-0.18802 -1.4403,-0.58486 -1.7373,-0.88186 -0.297,-0.297 -0.8302,-0.54 -1.1849,-0.54 -0.3547,0 -1.1563,-0.4378 -1.7815,-0.97289 -0.6251,-0.53509 -1.2577,-0.97289 -1.4058,-0.97289 -0.1481,0 -0.425,-0.18763 -0.6153,-0.41695 -0.1903,-0.22932 -0.5916,-0.41695 -0.8917,-0.41695 -0.5253,0 -4.0959,-1.63709 -4.7609,-2.18281 -0.178,-0.1461 -0.6364,-0.31186 -1.0186,-0.36836 -0.40522,-0.0599 -0.66101,-0.25963 -0.61359,-0.4791 0.0564,-0.26106 -0.10414,-0.32787 -0.52402,-0.21807 -0.43577,0.11395 -0.84252,-0.0789 -1.45196,-0.68831 -0.94607,-0.94607 -4.49592,-2.73458 -5.42762,-2.73458 -0.33192,0 -0.87845,-0.31624 -1.21452,-0.70275 -0.33607,-0.38651 -0.80431,-0.68 -1.04054,-0.6522 -0.75549,0.0889 -3.30418,-1.10736 -4.15833,-1.95178 -0.24804,-0.24521 -0.97884,-0.69601 -1.62401,-1.00177 -0.64517,-0.30577 -1.17447,-0.71413 -1.17623,-0.90748 -0.004,-0.46105 -1.64495,-1.45288 -2.40567,-1.45421 -0.32762,-5.7e-4 -0.66768,-0.18867 -0.75568,-0.41799 -0.088,-0.22933 -0.35156,-0.41695 -0.58568,-0.41695 -0.23412,0 -0.42567,-0.0981 -0.42567,-0.21804 0,-0.32203 -1.57492,-1.19528 -1.99827,-1.10798 -0.20045,0.0413 -0.33009,-0.0905 -0.28808,-0.29296 0.042,-0.20247 -0.039,-0.29684 -0.17993,-0.20972 -0.34825,0.21524 -2.00407,-0.13318 -1.84628,-0.38849 0.0693,-0.11204 -0.18296,-0.49387 -0.56045,-0.84851 -0.37749,-0.35464 -0.68635,-0.50664 -0.68635,-0.33778 0,0.41291 -1.52473,-0.0273 -2.10525,-0.60784 -0.23989,-0.23989 -0.84637,-0.43617 -1.34773,-0.43617 -1.08441,0 -2.62599,-0.48369 -3.24754,-1.01895 -0.24544,-0.21136 -0.64681,-0.30733 -0.89194,-0.21327 -0.53477,0.20521 -2.37104,-0.34696 -3.01222,-0.90579 -0.32948,-0.28717 -0.51374,-0.3111 -0.65354,-0.0849 -0.10708,0.17326 -0.35085,0.2551 -0.5417,0.18187 -0.58849,-0.22583 -3.04583,0.41115 -3.5238,0.91341 -0.24884,0.26149 -0.53669,0.74088 -0.63966,1.06531 -0.10855,0.34202 -0.34462,0.52948 -0.56182,0.44613 -0.47279,-0.18143 -0.82595,0.34488 -0.4057,0.60461 0.22119,0.1367 0.20225,0.26259 -0.065,0.4319 -0.30783,0.19505 -0.30052,0.24161 0.0398,0.25337 0.22932,0.008 -0.11466,0.26365 -0.76441,0.56827 -1.1217,0.52589 -1.30766,0.77107 -1.20126,1.58381 0.0253,0.19315 -0.15398,0.42791 -0.39836,0.52169 -0.333,0.12778 -0.39847,0.37934 -0.26129,1.00394 0.11287,0.51389 0.0793,0.76933 -0.0875,0.66623 -0.42295,-0.2614 -1.2319,0.81477 -1.13076,1.50428 0.0626,0.4266 -0.0653,0.64407 -0.40926,0.69619 -0.77578,0.11753 -1.358515,0.726 -1.216265,1.26995 0.0709,0.27112 -0.0415,0.71766 -0.24981,0.99231 -0.20829,0.27465 -0.38268,0.89851 -0.38755,1.38635 -0.005,0.48785 -0.14594,0.97173 -0.31352,1.0753 -0.16758,0.10357 -0.25249,0.54395 -0.18869,0.97863 0.0638,0.43467 -0.018,0.84195 -0.18176,0.90504 -0.60776,0.23418 -0.97862,2.56722 -0.90081,5.66688 0.0431,1.71576 0.16512,3.20637 0.2712,3.31245 0.10608,0.10608 0.19287,0.53197 0.19287,0.94641 0,0.41445 0.18232,0.90486 0.40516,1.08979 0.25977,0.21559 0.34998,0.61208 0.25141,1.10494 -0.0981,0.49031 0.0572,1.18218 0.42875,1.91045 0.32037,0.62798 0.58249,1.28853 0.58249,1.4679 0,0.31667 1.119025,1.61933 3.007945,3.50156 0.81504,0.81216 1.09783,0.91992 2.41412,0.91992 0.82001,0 1.78493,0.11177 2.14426,0.24839 0.455,0.17299 0.81414,0.1308 1.1831,-0.13898 0.29137,-0.21306 0.75282,-0.38738 1.02544,-0.38738 0.27261,0 0.68188,-0.3601 0.90947,-0.80022 0.2276,-0.44012 0.59156,-0.86843 0.80881,-0.95179 0.21725,-0.0834 0.78004,-0.92212 1.25065,-1.86389 0.7005,-1.40183 0.85314,-2.04011 0.84178,-3.52005 -0.008,-0.99426 -0.19054,-2.23056 -0.40647,-2.74734 -0.41684,-0.99765 -0.52517,-2.678 -0.19399,-3.00918 0.10924,-0.10923 0.22619,-0.95908 0.25991,-1.88855 0.0503,-1.38654 0.18931,-1.82355 0.77428,-2.43414 0.39214,-0.4093 0.71299,-0.88328 0.71299,-1.05328 0,-0.16999 0.12426,-0.35078 0.27614,-0.40174 0.15189,-0.051 0.68714,-0.71808 1.18946,-1.48249 0.74434,-1.13272 1.04037,-1.37319 1.60013,-1.29985 0.96353,0.12626 2.27157,1.74271 3.58236,4.42698 0.67511,1.38252 1.28844,2.29324 1.54437,2.29324 0.27184,0 0.42454,0.25984 0.42454,0.7224 0,0.39732 0.16705,1.11657 0.37122,1.59832 0.98832,2.33204 1.13625,3.03062 1.23023,5.80984 0.0556,1.64349 -5.8e-4,2.98816 -0.12478,2.98816 -0.1242,0 -0.24626,0.46907 -0.27125,1.04237 -0.0845,1.93939 -0.28745,2.96014 -0.60984,3.0676 -0.17659,0.0589 -0.2455,0.22931 -0.15313,0.37877 0.0924,0.14946 -0.0513,0.51403 -0.31932,0.81016 -0.26799,0.29613 -0.39681,0.53842 -0.28627,0.53842 0.11055,0 -0.089,0.40393 -0.44336,0.89763 -0.83817,1.16763 -1.22918,1.82011 -1.75252,2.92443 -0.23546,0.49687 -0.59843,0.9034 -0.80659,0.9034 -0.20817,0 -0.44772,0.34398 -0.53235,0.76441 -0.0915,0.45475 -0.49288,0.96379 -0.99072,1.25658 -0.46026,0.27069 -0.90826,0.71717 -0.99554,0.99217 -0.0873,0.275 -0.5327,0.77651 -0.9898,1.11447 -0.45711,0.33795 -0.83111,0.78479 -0.83111,0.99296 0,0.20817 -0.28144,0.45327 -0.62543,0.54465 -0.34398,0.0914 -1.06323,0.54141 -1.59831,1.00005 -0.53509,0.45865 -1.12214,0.95862 -1.30456,1.11105 -0.18242,0.15243 -0.71372,0.20073 -1.18067,0.10734 -0.46696,-0.0934 -1.01217,-0.0344 -1.2116,0.13112 -0.19942,0.16551 -1.16915,0.27858 -2.15494,0.25127 -1.55442,-0.0431 -1.87269,-0.14513 -2.39751,-0.7688 -0.49213,-0.58483 -0.79066,-0.69749 -1.59832,-0.6032 -0.55467,0.0647 -0.99315,-0.007 -0.99315,-0.1623 0,-0.15304 -0.31271,-0.35673 -0.69492,-0.45266 -0.38221,-0.0959 -0.69492,-0.28614 -0.69492,-0.42269 0,-0.2829 -3.329935,-2.71862 -4.582595,-3.35199 -0.45652,-0.23082 -0.95687,-0.67216 -1.11187,-0.98076 -0.15501,-0.3086 -0.56328,-0.84021 -0.90727,-1.18136 -0.34398,-0.34116 -0.62543,-0.81987 -0.62543,-1.06382 0,-0.45423 -1.05633,-2.12319 -1.44929,-2.28981 -0.12018,-0.051 -0.21851,-0.32526 -0.21851,-0.60954 0,-0.28429 -0.23332,-0.93056 -0.51849,-1.43617 -0.28517,-0.50561 -0.67099,-2.04505 -0.85736,-3.421 -0.18638,-1.37594 -0.54364,-2.87696 -0.7939,-3.33561 -0.25027,-0.45865 -0.5344,-1.68225 -0.6314,-2.71912 -0.12358,-1.32093 -0.34427,-2.06974 -0.7373,-2.50171 -0.42371,-0.46568 -0.54512,-0.93914 -0.49628,-1.9354 0.04,-0.81676 -0.0734,-1.43347 -0.29797,-1.61984 -0.26747,-0.22198 -0.29018,-0.4915 -0.0865,-1.02715 0.17295,-0.4549 0.2063,-2.81696 0.0893,-6.32282 -0.17765,-5.32194 -0.15783,-5.66216 0.40376,-6.93173 0.32481,-0.7343 0.59057,-1.68762 0.59057,-2.11849 0,-0.57819 0.19795,-0.87839 0.75569,-1.14603 0.49819,-0.23906 0.85338,-0.71006 1.04238,-1.38226 0.15768,-0.56079 0.38051,-1.11325 0.49517,-1.22769 0.11466,-0.11443 0.209,-0.46866 0.20964,-0.78716 0.001,-0.73462 1.20958,-3.13232 2.00471,-3.97869 0.65529,-0.69752 2.02517,-1.46485 2.61515,-1.46485 0.20136,0 0.66881,-0.66179 1.03879,-1.47065 0.36998,-0.80885 1.11802,-1.90335 1.66231,-2.43222 1.641295,-1.59477 2.682885,-2.49032 2.897995,-2.49168 0.11202,-7e-4 0.63688,-0.40723 1.16635,-0.90339 0.89892,-0.84236 1.11066,-0.90742 3.19663,-0.98228 1.22867,-0.0441 2.78101,-0.0801 3.44963,-0.0801 0.66862,3e-5 1.58105,-0.18888 2.02762,-0.41981 0.62437,-0.32288 1.01778,-0.35444 1.70298,-0.13665 1.20074,0.38165 2.71487,0.60338 4.90441,0.71822 2.83171,0.14852 3.54164,0.28663 4.04116,0.78615 0.25476,0.25476 0.7794,0.46321 1.16586,0.46321 0.65814,0 4.00866,1.82751 4.21703,2.30014 0.0522,0.11846 0.49003,0.39739 0.97289,0.61984 0.48286,0.22245 1.06556,0.51261 1.29488,0.64481 0.81519,0.46991 1.82205,0.99537 2.91866,1.52317 1.33812,0.64404 2.12261,1.29714 1.93084,1.60744 -0.0774,0.12532 0.39457,0.36999 1.04893,0.54371 0.65436,0.17373 1.87772,0.71062 2.71857,1.1931 0.84086,0.48247 1.98667,1.03504 2.54626,1.22794 0.55959,0.19289 1.67876,0.79574 2.48703,1.33967 0.83202,0.55991 1.68522,0.93258 1.9666,0.859 0.28436,-0.0744 0.93137,0.21522 1.51224,0.67683 0.55837,0.44374 1.18814,0.8068 1.39948,0.8068 0.43756,0 2.13226,1.03713 3.12596,1.91294 0.3673,0.32383 0.8546,0.58877 1.0827,0.58877 0.2281,0 1.3249,0.4378 2.4374,0.97289 1.1125,0.53509 2.0992,0.97289 2.1927,0.97289 0.093,0 0.5844,0.41444 1.091,0.92098 0.5065,0.50654 1.3486,1.12394 1.8714,1.372 0.5227,0.24806 1.4488,0.78957 2.0579,1.20336 0.6091,0.41379 1.9474,1.03831 2.974,1.38783 1.0267,0.34951 2.1314,0.88212 2.455,1.18358 0.8478,0.78984 3.2662,1.99332 4.0057,1.99332 0.3474,0 0.9498,0.25017 1.3385,0.55593 0.3887,0.30577 0.8995,0.55594 1.135,0.55594 0.2356,0 0.7463,0.29472 1.135,0.65494 0.3887,0.36022 1.302,0.9397 2.0296,1.28774 0.7276,0.34804 1.677,0.80383 2.1098,1.01287 0.4329,0.20904 0.9332,0.37972 1.1119,0.37929 0.4974,-10e-4 2.7977,1.20633 3.05,1.60105 0.2844,0.4448 2.2552,1.45737 2.8366,1.45737 0.2427,0 1.1546,0.46894 2.0263,1.04209 1.825,1.19988 2.9516,1.68646 3.9741,1.71644 0.3967,0.0116 0.9477,0.27132 1.2245,0.57709 0.2767,0.30576 0.6544,0.55593 0.8395,0.55593 0.185,0 0.6544,0.25017 1.0431,0.55594 0.3887,0.30576 1.031,0.55593 1.4273,0.55593 0.4552,0 0.7206,0.15356 0.7206,0.41696 0,0.46737 0.7075,0.56844 0.9729,0.13898 0.2606,-0.42165 0.6949,-0.33233 0.6949,0.1429 0,0.47911 1.6341,2.06035 2.142,2.07269 0.1844,0.004 0.9551,0.37363 1.7127,0.82033 0.7576,0.44671 1.4413,0.7484 1.5192,0.67045 0.078,-0.078 0.4956,0.11846 0.928,0.43649 0.4325,0.31803 1.4117,0.65952 2.1761,0.75888 0.7644,0.0994 1.8539,0.41305 2.4212,0.6971 0.5672,0.28405 1.5336,0.51645 2.1475,0.51645 0.6263,0 1.5157,0.24356 2.0263,0.5549 0.5006,0.30519 1.1872,0.55536 1.5258,0.55594 0.3386,5.7e-4 0.7495,0.25121 0.9132,0.55697 0.1636,0.30576 0.4765,0.55594 0.6952,0.55594 0.3956,0 1.6581,0.49279 3.4289,1.33836 0.51,0.24359 1.1281,0.47235 1.3734,0.50835 0.9699,0.14234 1.8701,0.43226 2.0048,0.64562 0.078,0.12349 0.5796,0.4894 1.1147,0.81314 0.9046,0.54732 1.6284,0.90253 3.7525,1.84163 1.1978,0.52952 3.8643,1.24616 4.6369,1.24616 0.3629,0 0.9066,0.16864 1.2081,0.37477 0.5742,0.39246 1.8247,0.71462 3.467,0.89317 0.5351,0.0582 2.2524,0.33686 3.8163,0.61928 2.4251,0.43796 2.9716,0.4596 3.715,0.14705 0.9945,-0.41817 2.0951,-0.47919 2.312,-0.12818 0.2969,0.48037 2.8711,0.56232 4.5074,0.14348 0.8978,-0.22982 2.3829,-0.54517 3.3002,-0.70078 0.9173,-0.1556 1.9449,-0.4602 2.2835,-0.67687 0.3386,-0.21668 0.8702,-0.39395 1.1813,-0.39395 0.3112,0 0.5658,-0.12509 0.5658,-0.27797 0,-0.15289 0.3166,-0.27797 0.7036,-0.27797 0.387,0 0.7771,-0.19136 0.8668,-0.42524 0.096,-0.25004 0.3593,-0.36298 0.6393,-0.27413 0.2639,0.0838 0.7637,-0.0984 1.1215,-0.40867 0.3549,-0.30787 0.9522,-0.55977 1.3272,-0.55977 0.3751,0 1.1557,-0.37525 1.7348,-0.8339 0.7295,-0.57775 1.3608,-0.83391 2.0553,-0.83391 0.7799,0 1.0024,-0.11103 1.0024,-0.50034 0,-0.62961 0.5241,-1.16746 1.1377,-1.16746 0.2588,0 0.5479,-0.15636 0.6424,-0.34746 0.6222,-1.25857 1.2585,-2.01858 1.7965,-2.14598 0.4083,-0.0967 0.9635,-0.76803 1.6161,-1.95405 0.8421,-1.53061 1.0028,-2.10421 1.0512,-3.75257 0.079,-2.70343 0.099,-2.66099 -2.5609,-5.53898 -0.4968,-0.53761 -0.9034,-1.15694 -0.9034,-1.37629 0,-0.26198 -0.1907,-0.34894 -0.5559,-0.25345 -0.3057,0.08 -0.5559,0.0258 -0.5559,-0.12039 0,-0.40349 -1.3868,-0.94936 -1.9544,-0.76924 -0.2753,0.0874 -0.581,0.0287 -0.6793,-0.13039 -0.2282,-0.36925 -3.4914,-0.3775 -4.4546,-0.0113 -0.4683,0.17802 -0.9093,0.1827 -1.2264,0.013 -0.3288,-0.17597 -0.5989,-0.16127 -0.8039,0.0438 -0.2264,0.22639 -0.4126,0.22263 -0.6978,-0.0141 -0.3079,-0.25553 -0.4977,-0.1781 -0.9103,0.37136 -0.3264,0.4347 -0.6962,0.63868 -0.9892,0.54569 -0.2574,-0.0817 -0.5515,-0.0132 -0.6537,0.15207 -0.1022,0.16532 -0.4254,0.22453 -0.7183,0.13156 -0.3619,-0.11485 -0.5326,-0.0365 -0.5326,0.24458 0,0.22903 -0.3547,0.49151 -0.7949,0.58819 -0.6562,0.14413 -0.9472,0.50926 -1.6678,2.09234 -0.4801,1.05475 -0.8729,2.11189 -0.8729,2.3492 0,0.24357 -0.2378,0.43146 -0.5461,0.43146 -0.3004,0 -0.6793,0.24869 -0.8419,0.55265 -0.1627,0.30396 -0.6349,0.63777 -1.0495,0.74181 -0.4145,0.10403 -0.9041,0.33968 -1.0881,0.52367 -0.184,0.18398 -0.6543,0.27339 -1.0451,0.19868 -0.4397,-0.084 -0.7107,-0.01 -0.7107,0.19442 0,0.57342 -1.4337,0.19071 -2.2961,-0.61292 -0.4512,-0.42042 -0.9322,-0.76441 -1.0689,-0.76441 -0.1367,0 -0.2485,-0.22515 -0.2485,-0.50034 0,-0.27519 -0.1333,-0.63365 -0.2963,-0.79658 -0.3822,-0.38222 -0.5193,-2.93401 -0.2439,-4.5404 0.1179,-0.68797 0.2505,-1.7512 0.2947,-2.36273 0.1058,-1.46697 0.5454,-2.14619 2.8029,-4.33093 1.0395,-1.00607 1.89,-1.94462 1.89,-2.08566 0,-0.14105 0.3753,-0.61063 0.8339,-1.04352 0.4587,-0.43288 0.834,-0.90155 0.834,-1.04147 0,-0.13993 0.2438,-0.25441 0.5417,-0.25441 0.298,0 0.8758,-0.4378 1.2839,-0.97289 0.4081,-0.53508 0.9014,-0.97288 1.0963,-0.97288 0.1948,0 0.4237,-0.18108 0.5086,-0.40239 0.085,-0.22131 0.6612,-0.53884 1.2806,-0.70563 0.6194,-0.16679 1.1262,-0.42039 1.1262,-0.56356 0,-0.14316 0.3679,-0.18671 0.8177,-0.0968 0.4497,0.0899 1.7629,-0.0468 2.9182,-0.30378 1.1553,-0.25703 2.3509,-0.38786 2.6569,-0.29074 0.3084,0.0979 0.5564,0.0502 0.5564,-0.10703 0,-0.39196 2.7697,-0.0513 3.4669,0.42639 0.3016,0.20663 0.7481,0.37569 0.9923,0.37569 0.2442,0 0.7158,0.31271 1.0482,0.69492 0.3323,0.3822 0.7614,0.71105 0.9535,0.73076 1.4513,0.14893 1.8678,0.2396 2.851,0.62069 0.6115,0.23701 1.378,0.43643 1.7033,0.44314 0.3252,0.007 0.7471,0.19983 0.9374,0.42915 0.1903,0.22933 0.5609,0.41695 0.8234,0.41695 0.4641,0 6.4038,5.54684 6.4038,5.98025 0,0.11923 0.4253,0.73582 0.9451,1.37021 0.6763,0.82534 0.9081,1.34743 0.8148,1.83543 -0.084,0.43983 0.2699,1.49266 0.997,2.96499 1.1799,2.38943 1.7383,5.04907 1.1975,5.70409 -0.1598,0.19356 -0.4197,1.85296 -0.5777,3.68755 -0.1579,1.83458 -0.549,4.1784 -0.8691,5.20849 -0.5187,1.66887 -0.9162,2.32209 -2.3279,3.82546 -0.2153,0.22932 -0.4757,0.80881 -0.5785,1.28775 -0.2162,1.00674 -1.9543,3.15974 -2.5508,3.15974 -0.2225,0 -0.8424,0.4378 -1.3775,0.97289 -0.586,0.58598 -1.2455,0.97288 -1.6585,0.97288 -0.3771,0 -0.6875,0.15636 -0.6897,0.34746 0,0.31764 -2.8531,1.59832 -3.556,1.59832 -0.1651,0 -0.5218,0.37542 -0.7929,0.83426 -0.271,0.45884 -0.6994,0.89983 -0.9519,0.97998 -0.2526,0.0802 -0.6827,0.3927 -0.9559,0.69457 -0.2731,0.30186 -0.7299,0.54883 -1.015,0.54883 -0.2851,0 -1.0138,0.31272 -1.6192,0.69492 -0.6055,0.38221 -1.2131,0.69492 -1.3503,0.69492 -0.1372,0 -0.3977,0.17855 -0.5788,0.39677 -0.2194,0.26436 -0.7149,0.36146 -1.485,0.29098 -0.6395,-0.0586 -1.238,0.0274 -1.34,0.19238 -0.1013,0.164 -0.6889,0.29122 -1.3057,0.2827 -0.753,-0.0104 -1.1743,0.12201 -1.2821,0.4029 -0.1049,0.27348 -0.3536,0.35712 -0.7178,0.2415 -0.3065,-0.0973 -0.5588,-0.0746 -0.5605,0.0503 -0.01,0.47928 -2.245,1.2699 -3.7954,1.34065 -0.892,0.0407 -1.9739,0.21336 -2.4043,0.38368 -0.4304,0.17031 -0.9307,0.31044 -1.1119,0.31138 -0.1811,9.4e-4 -0.6562,0.17224 -1.0556,0.38067 -0.6487,0.33847 -1.3307,0.35327 -3.535,0.0767 -0.3562,-0.0447 -0.7487,-0.24484 -0.8723,-0.44477 -0.1252,-0.20263 -0.3759,-0.27006 -0.5664,-0.15235 -0.3363,0.20788 -2.9426,-0.25205 -4.0289,-0.71098 -1.2313,-0.52018 -3.2791,-1.10695 -3.4092,-0.97685 -0.076,0.0762 -0.3633,0.0182 -0.6381,-0.12886 -0.2747,-0.14705 -0.9627,-0.32665 -1.5288,-0.39913 -0.5661,-0.0725 -1.3211,-0.32302 -1.6778,-0.55677 -0.8089,-0.53 -0.9462,-0.53116 -0.9462,-0.008 0,0.22933 -0.1251,0.41695 -0.278,0.41695 -0.1528,0 -0.2779,-0.17137 -0.2779,-0.38082 0,-0.21351 -0.5434,-0.53296 -1.2367,-0.72708 -0.6977,-0.19533 -1.2894,-0.54424 -1.3576,-0.80053 -0.1047,-0.39338 -0.1252,-0.38907 -0.1532,0.0322 -0.041,0.61225 -1.2113,0.65747 -1.7993,0.0695 -0.2293,-0.22932 -0.7073,-0.41765 -1.0622,-0.4185 -1.0186,-0.002 -2.7301,-0.55107 -2.7301,-0.87516 0,-0.16205 -0.1876,-0.22264 -0.4169,-0.13464 -0.2293,0.088 -0.417,0.0388 -0.417,-0.10925 0,-0.14808 -0.4135,-0.26924 -0.9189,-0.26924 -0.5436,0 -1.3035,-0.28377 -1.8607,-0.69492 -0.5181,-0.3822 -1.1097,-0.69492 -1.3147,-0.69492 -0.4439,0 -1.7533,-0.78057 -2.197,-1.3097 -0.2586,-0.30842 -0.4538,-0.31249 -1.0898,-0.0227 -0.622,0.28337 -0.7978,0.28395 -0.8914,0.003 -0.1515,-0.45431 -1.5457,-1.17225 -2.2764,-1.17225 -0.3134,0 -0.5698,-0.10991 -0.5698,-0.24424 0,-0.34712 -1.5837,-0.95938 -2.0343,-0.78647 -0.2071,0.0795 -0.7742,-0.22719 -1.2602,-0.68145 -1.3816,-1.29116 -3.8793,-1.37002 -2.816,-0.0889 0.2632,0.31711 1.348,4.39893 1.3779,5.18485 0,0.10293 -0.3278,0.58528 -0.7373,1.07189 -0.4094,0.48661 -0.7737,1.15291 -0.8093,1.48066 -0.1704,1.56459 -1.3285,4.83494 -1.939,5.47556 -0.3722,0.39058 -0.6773,0.82837 -0.678,0.97289 0,0.52016 -1.3144,3.47266 -1.7635,3.96883 -0.2524,0.27897 -0.459,0.74336 -0.459,1.03198 0,0.28861 -0.1796,1.02928 -0.3992,1.64592 -0.2195,0.61664 -0.4754,1.59023 -0.5685,2.16354 -0.093,0.57331 -0.2888,1.04238 -0.4347,1.04238 -0.146,0 -0.2654,0.22516 -0.2654,0.50034 0,0.27519 -0.134,0.63431 -0.2977,0.79805 -0.1637,0.16374 -0.3619,0.84546 -0.4404,1.51493 -0.078,0.66947 -0.1861,1.52993 -0.2391,1.91214 -0.053,0.3822 -0.105,0.96177 -0.1155,1.28792 -0.011,0.33657 -0.2458,0.65226 -0.5431,0.73003 -0.4022,0.10516 -0.4903,0.31346 -0.3789,0.89589 0.088,0.46037 0,0.84616 -0.214,0.98079 -0.1975,0.12206 -0.3478,0.61938 -0.334,1.10516 0.019,0.65926 -0.076,0.84441 -0.3739,0.73013 -0.2468,-0.0947 -0.4098,0.0291 -0.4272,0.3246 -0.1808,3.06258 -0.4437,4.33858 -1.2089,5.86746 -0.3528,0.70482 -0.7649,1.5942 -0.9158,1.97641 -0.151,0.38221 -0.4067,1.00763 -0.5684,1.38984 -0.1617,0.38221 -0.4954,1.75043 -0.7415,3.0405 -0.2462,1.29008 -0.5728,2.49642 -0.7258,2.68076 -0.153,0.18435 -0.3551,1.00512 -0.4491,1.82393 -0.094,0.81882 -0.34,1.5888 -0.5464,1.71105 -0.2064,0.12226 -0.3753,0.52141 -0.3753,0.88699 0,0.36559 -0.1336,0.74728 -0.2969,0.84821 -0.1633,0.10093 -0.2339,0.34779 -0.1568,0.54857 0.077,0.20079 -0.091,0.8173 -0.3723,1.37002 -0.2818,0.55273 -0.6633,1.65793 -0.8479,2.45599 -0.5189,2.24369 -1.4252,5.00631 -1.8414,5.61291 -0.2069,0.30156 -0.3762,0.8804 -0.3762,1.28631 0,0.40591 -0.174,0.88245 -0.3867,1.05898 -0.2128,0.17653 -0.4674,0.91109 -0.5658,1.63235 -0.2076,1.52047 -0.9579,3.43602 -1.4718,3.75743 -0.1955,0.12225 -0.3554,0.46035 -0.3554,0.75133 0,0.63955 -0.5669,1.94504 -0.8446,1.94504 -0.1097,0 -0.4879,0.78179 -0.8405,1.7373 -0.3525,0.95551 -1.0509,2.50475 -1.5519,3.44274 -0.7032,1.31637 -0.8976,1.99764 -0.8523,2.98622 0.032,0.70443 0.1838,1.28532 0.3367,1.29086 0.3682,0.0134 2.0848,1.58345 2.0848,1.90685 0,0.1392 0.4691,0.64999 1.0424,1.13509 0.5733,0.4851 1.3173,1.13035 1.6533,1.43389 0.8915,0.80531 2.1384,1.1112 4.8977,1.20149 1.3481,0.0441 2.5927,0.22185 2.7658,0.39497 0.4464,0.44641 0.5496,0.4128 1.5934,-0.51914 0.5137,-0.45865 1.1304,-0.83669 1.3704,-0.84009 0.24,-0.003 0.7491,-0.25079 1.1313,-0.54975 0.3822,-0.29897 0.836,-0.54636 1.0084,-0.54976 0.1723,-0.003 0.471,-0.19612 0.6637,-0.42826 0.1926,-0.23215 0.8021,-0.6177 1.3544,-0.85679 1.5833,-0.68548 7.0292,-3.43222 7.991,-4.03045 0.7083,-0.44052 1.4244,-0.5492 3.8203,-0.5798 3.2556,-0.0416 4.064,0.28873 4.064,1.66038 0,0.37869 0.2586,1.10694 0.5747,1.61834 0.3161,0.5114 0.63,1.49545 0.6978,2.18677 0.1604,1.63885 -0.778,3.47569 -2.746,5.37458 -0.7948,0.76691 -1.7552,1.71787 -2.1342,2.11326 -0.379,0.39539 -0.8481,0.71889 -1.0424,0.71889 -0.1943,0 -0.3533,0.17893 -0.3533,0.39762 0,0.21869 -0.2814,0.43759 -0.6254,0.48644 -0.344,0.0489 -0.7489,0.37027 -0.8998,0.71426 -0.1509,0.34398 -0.4773,0.62543 -0.7253,0.62543 -0.248,0 -1.0193,0.50034 -1.714,1.11187 -0.6948,0.61153 -1.5121,1.11187 -1.8162,1.11187 -0.5753,0 -0.8905,0.50003 -0.8905,1.41257 0,0.35684 -0.1936,0.5332 -0.5854,0.5332 -0.322,0 -0.8314,0.31272 -1.1321,0.69492 -0.3006,0.38221 -0.7252,0.69492 -0.9434,0.69492 -0.2182,0 -0.3968,0.10501 -0.3968,0.23335 0,0.12835 -0.3255,0.38165 -0.7233,0.56291 -0.5933,0.27032 -0.6912,0.4572 -0.545,1.03969 0.1546,0.6162 0.1049,0.68685 -0.3762,0.53417 -1.5583,-0.49458 -3.3565,-0.59752 -4.205,-0.24073 -0.487,0.20478 -1.2214,0.37232 -1.6319,0.37232 -0.4105,0 -0.8912,0.14481 -1.0682,0.32178 -0.2437,0.24373 -0.4309,0.23121 -0.7717,-0.0516 -0.3504,-0.2908 -0.4964,-0.29811 -0.6603,-0.033 -0.1557,0.25199 -0.4075,0.26539 -0.9698,0.0516 -0.4177,-0.1588 -1.1828,-0.28874 -1.7004,-0.28874 -0.5633,0 -1.0383,-0.17396 -1.1835,-0.43344 -0.1334,-0.2384 -0.6713,-0.49985 -1.1952,-0.58101 -0.5239,-0.0812 -0.9943,-0.26137 -1.0453,-0.40046 -0.051,-0.13909 -0.317,-0.25289 -0.5914,-0.25289 -0.2743,0 -0.6544,-0.18763 -0.8447,-0.41696 -0.1904,-0.22932 -0.5856,-0.41695 -0.8783,-0.41695 -0.667,0 -2.9582,-2.32442 -3.186,-3.23217 -0.1274,-0.50733 -0.3007,-0.63482 -0.6934,-0.51015 -0.2881,0.0914 -0.5237,0.0416 -0.5237,-0.11063 0,-0.15226 -0.6255,-0.68209 -1.3899,-1.17742 -0.7644,-0.49532 -1.3898,-1.05376 -1.3898,-1.24098 0,-0.18722 -0.2178,-0.42398 -0.484,-0.52613 -0.508,-0.19494 -1.4618,0.70146 -1.4618,1.37387 0,0.19366 -0.1876,0.50784 -0.4169,0.69816 -0.2294,0.19032 -0.417,0.62812 -0.417,0.97289 0,0.34476 -0.1932,0.78718 -0.4293,0.98314 -0.2941,0.24413 -0.3747,0.60488 -0.2559,1.14591 0.1088,0.49548 0.059,0.78961 -0.1335,0.78961 -0.3216,0 -0.8466,1.13508 -0.9643,2.08476 -0.038,0.30576 -0.3398,0.99373 -0.6708,1.52882 -0.3309,0.53509 -0.6022,1.27754 -0.6028,1.64989 -6e-4,0.37236 -0.2325,0.93524 -0.5155,1.25086 -0.283,0.31562 -0.6745,1.16801 -0.87,1.8942 -0.1956,0.72619 -0.4644,1.32035 -0.5974,1.32035 -0.133,0 -0.2419,0.23699 -0.2419,0.52665 0,0.89814 -1.0836,4.08742 -1.626,4.78588 -0.2835,0.36508 -0.7948,1.47683 -1.1362,2.47057 -0.3414,0.99373 -0.7091,1.93187 -0.817,2.08476 -0.108,0.15288 -0.3579,0.77831 -0.5554,1.38983 -0.3714,1.15035 -0.5858,1.66939 -1.8117,4.38624 -0.3987,0.8836 -0.7249,1.72793 -0.7249,1.87628 0,0.14835 -0.101,0.26973 -0.2245,0.26973 -0.198,0 -0.6106,0.82966 -1.3131,2.64069 -0.1186,0.30577 -0.1856,0.79207 -0.149,1.08066 0.037,0.2886 -0.062,0.60432 -0.2195,0.70161 -0.1574,0.0973 -0.4358,0.79929 -0.6186,1.56003 -0.4065,1.69077 -0.9866,2.9742 -1.9923,4.40762 -0.4204,0.59922 -0.7644,1.37605 -0.7644,1.72629 0,0.35025 -0.1008,0.69909 -0.2239,0.7752 -0.1232,0.0761 -0.5509,0.80273 -0.9505,1.61472 -2.5895,5.26189 -3.6318,7.53533 -3.854,8.40633 -0.1391,0.54565 -0.3673,1.44052 -0.507,1.98859 -0.1399,0.54894 -0.6844,1.39165 -1.21232,1.87629 -0.52707,0.48387 -1.19455,1.31407 -1.48328,1.84488 -0.28874,0.53081 -0.72798,1.15623 -0.9761,1.38984 -0.24811,0.2336 -0.66313,0.98762 -0.92227,1.67559 -0.25913,0.68797 -0.76179,1.68865 -1.11702,2.22374 -0.35524,0.53509 -0.96376,1.55642 -1.35228,2.26963 -0.80122,1.47079 -1.82748,2.73379 -2.22136,2.73379 -0.146,0 -0.54361,0.28145 -0.88357,0.62543 -0.33996,0.34399 -0.86728,0.81306 -1.17181,1.04238 -1.34375,1.01188 -2.19358,1.86633 -2.55981,2.57374 -0.21694,0.41903 -0.53752,0.76188 -0.71241,0.76188 -0.39196,0 -1.66854,1.35307 -1.90133,2.01526 -0.0941,0.26755 -0.37453,0.48645 -0.62327,0.48645 -0.24874,0 -0.78428,0.22593 -1.19009,0.50206 -0.80001,0.54438 -3.49773,1.29667 -3.85595,1.07528 -0.12139,-0.075 -0.71138,0.10227 -1.31111,0.39398 -1.31711,0.64066 -1.58221,0.65409 -2.12843,0.10788 z m 1.67738,-13.96233 c 0.42642,-0.42043 1.19858,-1.00007 1.71592,-1.28809 1.51066,-0.84104 3.85928,-3.26544 3.85928,-3.9838 0,-0.34921 0.10395,-0.63493 0.231,-0.63493 0.12705,0 0.40849,-0.33419 0.62543,-0.74264 0.3995,-0.75219 1.28794,-1.88646 2.38813,-3.04894 0.33212,-0.35092 0.69063,-0.9235 0.79667,-1.2724 0.10605,-0.3489 0.49101,-1.03254 0.85547,-1.51921 0.36446,-0.48667 0.66266,-1.07647 0.66266,-1.31067 0,-0.23421 0.37999,-0.85862 0.84442,-1.38758 0.65854,-0.75003 0.80441,-1.12117 0.66266,-1.68597 -0.14671,-0.58453 -0.29618,-0.68869 -0.77493,-0.54 -0.32624,0.10132 -0.63486,0.29277 -0.68582,0.42544 -0.051,0.13267 -0.36993,0.24122 -0.70882,0.24122 -0.33889,0 -0.73499,0.0995 -0.88023,0.22123 -0.44589,0.37354 -2.33072,0.93465 -2.59368,0.77213 -0.13645,-0.0843 -0.38915,0.0166 -0.56156,0.22437 -0.17241,0.20774 -1.09345,0.77015 -2.04676,1.2498 -1.38877,0.69874 -1.94563,1.18939 -2.80151,2.46841 -0.58751,0.87797 -1.62704,2.40693 -2.31006,3.39768 -1.18785,1.72303 -1.23904,1.8795 -1.17675,3.59749 0.0427,1.17921 -0.0469,1.83347 -0.26114,1.90487 -0.39546,0.13182 -0.42982,1.97754 -0.0552,2.96299 0.35864,0.94329 1.22636,0.92315 2.21478,-0.0514 z m 14.47018,-19.52724 c 0,-0.15289 -0.12509,-0.27797 -0.27797,-0.27797 -0.15289,0 -0.27797,0.12508 -0.27797,0.27797 0,0.15288 0.12508,0.27796 0.27797,0.27796 0.15288,0 0.27797,-0.12508 0.27797,-0.27796 z m 54.75963,-39.03809 c 0,-0.23834 0.1251,-0.43335 0.278,-0.43335 0.1529,0 0.278,0.1177 0.278,0.26156 0,0.14386 -0.1251,0.33887 -0.278,0.43336 -0.1529,0.0945 -0.278,-0.0232 -0.278,-0.26157 z"
       id="path2-2" /></g></svg>
