<svg width="35" height="35" viewBox="0 0 35 35" fill="none" xmlns="http://www.w3.org/2000/svg">
<g clip-path="url(#clip0_82_732)">
<path fill-rule="evenodd" clip-rule="evenodd" d="M16.9389 1.76782C15.5475 5.15953 14.7086 7.37856 13.1601 10.6696C14.1099 11.6698 15.2754 12.8363 17.1679 14.1527C15.1327 13.3199 13.7454 12.4841 12.7072 11.6164C10.7254 15.729 7.62017 21.5882 1.31836 32.8487C6.27191 30.0053 10.1113 28.2525 13.6889 27.583C13.5349 26.9258 13.4476 26.2152 13.4537 25.4738L13.4599 25.3157C13.5379 22.1602 15.1891 19.7327 17.1443 19.898C19.0994 20.0623 20.6202 22.7557 20.5411 25.9113C20.5267 26.5058 20.459 27.0767 20.3409 27.6066C23.8804 28.2956 27.6788 30.0443 32.5646 32.8487C31.6014 31.0856 30.7419 29.495 29.9204 27.9804C28.6266 26.9833 27.2773 25.6864 24.5253 24.2806C26.4168 24.7704 27.7712 25.3342 28.8268 25.9647C20.4785 10.5043 19.8018 8.4506 16.9389 1.76782Z" fill="#1791CF"/>
<path d="M32.7185 30.0752V29.2229H32.3992V29.1089H33.1693V29.2229H32.8479V30.0752H32.7185Z" fill="#1791CF"/>
<path d="M33.3029 30.0752V29.1089H33.4959L33.7259 29.7928C33.7475 29.8564 33.7629 29.9047 33.7721 29.9355C33.7834 29.9006 33.8009 29.8492 33.8245 29.7815L34.0566 29.1089H34.2301V30.0752H34.1059V29.266L33.8235 30.0752H33.7074L33.4271 29.2526V30.0752H33.3029Z" fill="#1791CF"/>
</g>
<defs>
<clipPath id="clip0_82_732">
<rect width="33.648" height="33.648" fill="white" transform="translate(0.873779 0.483398)"/>
</clipPath>
</defs>
</svg>
