<svg width="34" height="35" viewBox="0 0 34 35" fill="none" xmlns="http://www.w3.org/2000/svg">
<g clip-path="url(#clip0_82_885)">
<path d="M30.8159 10.9827C30.8157 10.4697 30.706 10.0164 30.4841 9.62731C30.2662 9.24474 29.9398 8.92408 29.502 8.67055C25.8881 6.58678 22.2707 4.50937 18.658 2.42347C17.6841 1.86119 16.7397 1.88169 15.773 2.45204C14.3346 3.30036 7.13284 7.42638 4.98682 8.66939C4.10303 9.18101 3.67298 9.96401 3.67277 10.9817C3.67139 15.1723 3.67277 19.3628 3.67139 23.5535C3.67139 24.0553 3.77664 24.4998 3.98875 24.883C4.2068 25.2771 4.53776 25.6066 4.98566 25.8659C7.13178 27.1089 14.3345 31.2346 15.7726 32.0831C16.7397 32.6538 17.6841 32.6742 18.6583 32.1117C22.2712 30.0257 25.8887 27.9484 29.5031 25.8646C29.951 25.6054 30.282 25.2758 30.5 24.8819C30.7118 24.4987 30.8173 24.0542 30.8173 23.5524C30.8173 23.5524 30.8173 15.1734 30.8159 10.9827Z" fill="#A179DC"/>
<path d="M17.2859 17.2268L3.98877 24.883C4.20682 25.2772 4.53778 25.6066 4.98568 25.8659C7.1318 27.1089 14.3345 31.2346 15.7726 32.0831C16.7398 32.6538 17.6841 32.6742 18.6584 32.1117C22.2712 30.0257 25.8888 27.9484 29.5032 25.8646C29.9511 25.6055 30.282 25.2758 30.5001 24.8819L17.2859 17.2268Z" fill="#280068"/>
<path d="M30.8159 10.9827C30.8157 10.4697 30.706 10.0164 30.4841 9.62732L17.2859 17.2268L30.5001 24.8819C30.7118 24.4987 30.8171 24.0542 30.8173 23.5524C30.8173 23.5524 30.8173 15.1734 30.8159 10.9827Z" fill="#390091"/>
<path d="M25.1149 14.3646V15.7957H26.5459V14.3646H27.2615V15.7957H28.6925V16.5112H27.2615V17.9423H28.6925V18.6578H27.2615V20.0889H26.5459V18.6578H25.1149V20.0889H24.3993V18.6578H22.9683V17.9423H24.3993V16.5112H22.9683V15.7957H24.3993V14.3646H25.1149ZM26.5459 16.5112H25.1149V17.9423H26.5459V16.5112Z" fill="white"/>
<path d="M17.3151 7.17749C21.0478 7.17749 24.3067 9.20469 26.0523 12.2179L26.0352 12.1889L21.6435 14.7176C20.7782 13.2526 19.192 12.2639 17.3724 12.2435L17.3151 12.2432C14.5402 12.2432 12.2906 14.4927 12.2906 17.2676C12.2906 18.175 12.5325 19.0256 12.9532 19.7603C13.8193 21.2723 15.4474 22.2921 17.3151 22.2921C19.1943 22.2921 20.8316 21.2593 21.6933 19.7312L21.6724 19.7679L26.0575 22.3083C24.3311 25.296 21.1168 27.3169 17.4275 27.3572L17.3151 27.3578C13.5706 27.3578 10.3024 25.3181 8.56122 22.289C7.7112 20.8102 7.22485 19.0958 7.22485 17.2676C7.22485 11.6951 11.7423 7.17749 17.3151 7.17749Z" fill="white"/>
</g>
<defs>
<clipPath id="clip0_82_885">
<rect width="27.1903" height="30.5891" fill="white" transform="translate(3.67139 2.01282)"/>
</clipPath>
</defs>
</svg>
