<svg width="35" height="35" viewBox="0 0 35 35" fill="none" xmlns="http://www.w3.org/2000/svg">
<path d="M32.6817 0.610352L29.9451 31.2681L17.6436 34.6785L5.37599 31.2729L2.64221 0.610352H32.6817Z" fill="#264DE4"/>
<path d="M27.6021 29.3159L29.9407 3.11743H17.6619V32.0717L27.6021 29.3159Z" fill="#2965F1"/>
<path d="M8.90906 14.4897L9.24611 18.2503H17.6617V14.4897H8.90906Z" fill="#EBEBEB"/>
<path d="M17.6618 6.87805H17.6488H8.23193L8.57379 10.6387H17.6618V6.87805Z" fill="#EBEBEB"/>
<path d="M17.6619 28.1691V24.2564L17.6454 24.2608L13.4571 23.1299L13.1894 20.1306H11.1542H9.41431L9.94117 26.0353L17.6445 28.1739L17.6619 28.1691Z" fill="#EBEBEB"/>
<path d="M22.2797 18.2503L21.8432 23.1275L17.6489 24.2596V28.1721L25.3584 26.0354L25.415 25.4L26.2987 15.4995L26.3905 14.4897L27.0694 6.87805H17.6489V10.6387H22.948L22.6059 14.4897H17.6489V18.2503H22.2797Z" fill="white"/>
</svg>
