<svg width="35" height="35" viewBox="0 0 35 35" fill="none" xmlns="http://www.w3.org/2000/svg">
<path d="M16.5374 2.01282H21.5361V24.9234C18.9756 25.4077 17.0908 25.5983 15.0513 25.5983C8.94612 25.5919 5.76807 22.8644 5.76807 17.626C5.76807 12.5788 9.13911 9.3032 14.363 9.3032C15.1736 9.3032 15.7911 9.367 16.5374 9.55812V2.01282ZM16.7126 13.6869C16.1271 13.4957 15.6447 13.432 15.027 13.432C12.4988 13.432 11.0385 14.9741 11.0385 17.6768C11.0385 20.3081 12.4345 21.761 14.9949 21.761C15.5481 21.761 15.9985 21.7299 16.7126 21.6343V13.6869V13.6869Z" fill="#2BA977"/>
<path d="M29.7103 9.9183V21.3893C29.7103 25.3397 29.4144 27.2394 28.5459 28.8773C27.7353 30.4519 26.6674 31.4448 24.4608 32.5415L19.8224 30.3558C22.029 29.3303 23.0969 28.4241 23.7789 27.0413C24.4929 25.6272 24.718 23.9893 24.718 19.6814V9.9184H29.7103V9.9183ZM24.2143 2.01282H29.213V7.0919H24.2143V2.01282Z" fill="#2BA977"/>
</svg>
