<svg width="35" height="35" viewBox="0 0 35 35" fill="none" xmlns="http://www.w3.org/2000/svg">
<path d="M12.3161 32.602C15.1303 32.602 17.4143 30.318 17.4143 27.5038V22.4056H12.3161C9.50188 22.4056 7.2179 24.6896 7.2179 27.5038C7.2179 30.318 9.50188 32.602 12.3161 32.602Z" fill="#0ACF83"/>
<path d="M7.2179 17.3074C7.2179 14.4932 9.50188 12.2092 12.3161 12.2092H17.4143V22.4056H12.3161C9.50188 22.4056 7.2179 20.1216 7.2179 17.3074Z" fill="#A259FF"/>
<path d="M7.2179 7.111C7.2179 4.2968 9.50188 2.01282 12.3161 2.01282H17.4143V12.2092H12.3161C9.50188 12.2092 7.2179 9.9252 7.2179 7.111Z" fill="#F24E1E"/>
<path d="M17.4143 2.01282H22.5125C25.3267 2.01282 27.6107 4.2968 27.6107 7.111C27.6107 9.9252 25.3267 12.2092 22.5125 12.2092H17.4143V2.01282Z" fill="#FF7262"/>
<path d="M27.6107 17.3074C27.6107 20.1216 25.3267 22.4056 22.5125 22.4056C19.6983 22.4056 17.4143 20.1216 17.4143 17.3074C17.4143 14.4932 19.6983 12.2092 22.5125 12.2092C25.3267 12.2092 27.6107 14.4932 27.6107 17.3074Z" fill="#1ABCFE"/>
</svg>
