<svg id="Layer_1" viewBox="0 0 64 64" xmlns="http://www.w3.org/2000/svg" data-name="Layer 1"><path d="m53.707 17.083-14.29-14.29a1 1 0 0 0 -.707-.293h-24.71a4 4 0 0 0 -4 4v50a4 4 0 0 0 4 4h36a4 4 0 0 0 4-4v-38.71a1 1 0 0 0 -.293-.707z" fill="#ededed"/><path d="m53.707 17.083-14.29-14.29a1 1 0 0 0 -1.707.707v11.29a4 4 0 0 0 4 4h11.29a1 1 0 0 0 .707-1.707z" fill="#c6c6c6"/><path d="m53 43.393h-22.914l-2.4-2.745a2 2 0 0 0 -1.505-.683h-15.181a2 2 0 0 0 -2 2v14.535a5.006 5.006 0 0 0 5 5h36a5.006 5.006 0 0 0 5-5v-11.107a2 2 0 0 0 -2-2z" fill="#008d36"/><path d="m39.234 20.955-6.234 3.599v-7.2l-8.234-4.754-8.235 4.755v9.508l8.235 4.755 6.234-3.599v7.2l8.234 4.755 8.235-4.755v-9.509zm5.235 5.332-5.227 3.022-5.242-3.024 5.232-3.021zm-14.469-8.355-5.227 3.023-5.24-3.025 5.233-3.02zm-11.469 1.729 5.232 3.02v6.048l-5.232-3.02zm7.232 9.072v-6.04l5.237-3.029v6.045zm7.237-.717 5.232 3.02v6.049l-5.232-3.021zm7.232 9.071v-6.04l5.237-3.028v6.045z" fill="#c6c6c6"/><g fill="#fff"><path d="m24.267 56.931-2.367-8.931h1.909l1.439 6.012 1.515-6.012h1.92l-2.376 8.928z"/><path d="m29.654 48h1.908v8.928h-1.908z"/><path d="m39.507 50.847-1.74 6.084h-1.453l-1.714-6.071v6.071h-1.7v-8.931h2.55l1.584 5.736 1.597-5.736h2.579v8.928h-1.7z"/></g></svg>