<svg width="34" height="35" viewBox="0 0 34 35" fill="none" xmlns="http://www.w3.org/2000/svg">
<g clip-path="url(#clip0_82_773)">
<path d="M17.1285 0.833618C7.83959 0.833618 0.306641 8.39601 0.306641 17.7249C0.306641 25.1864 5.12672 31.5164 11.8143 33.7519C12.6555 33.9075 12.9625 33.386 12.9625 32.938C12.9625 32.5364 12.9478 31.4743 12.9394 30.0653C8.26019 31.0853 7.27178 27.8004 7.27178 27.8004C6.50839 25.8488 5.40431 25.3294 5.40431 25.3294C3.87543 24.2821 5.51788 24.3031 5.51788 24.3031C7.20659 24.423 8.09405 26.0444 8.09405 26.0444C9.59559 28.6248 12.033 27.8803 12.9919 27.4471C13.1434 26.3556 13.5787 25.6112 14.0603 25.1885C10.3253 24.7616 6.39693 23.3126 6.39693 16.8417C6.39693 14.9973 7.05307 13.4895 8.1298 12.3076C7.95525 11.8807 7.37903 10.1625 8.29384 7.83871C8.29384 7.83871 9.70705 7.38447 12.9204 9.56948C14.2622 9.19515 15.7006 9.00798 17.1327 9.00167C18.5607 9.01008 20.0012 9.19515 21.3451 9.57159C24.5563 7.38657 25.9675 7.84082 25.9675 7.84082C26.8844 10.1667 26.3081 11.8828 26.1357 12.3097C27.2145 13.4916 27.8644 14.9994 27.8644 16.8438C27.8644 23.3315 23.9317 24.7595 20.1842 25.178C20.7878 25.6995 21.3261 26.73 21.3261 28.3051C21.3261 30.5637 21.3051 32.3849 21.3051 32.938C21.3051 33.3902 21.6079 33.9159 22.4618 33.7498C29.1388 31.5122 33.9547 25.1843 33.9547 17.7249C33.9547 8.39601 26.4217 0.833618 17.1285 0.833618Z" fill="#5C6BC0"/>
</g>
<defs>
<clipPath id="clip0_82_773">
<rect width="33.648" height="33.648" fill="white" transform="translate(0.306641 0.483398)"/>
</clipPath>
</defs>
</svg>
