<svg height="512" viewBox="0 0 58 58" width="512" xmlns="http://www.w3.org/2000/svg"><g id="Page-1" fill="none" fill-rule="evenodd"><g id="035---Hubble-Telescope" fill-rule="nonzero" transform="translate(-1 -1)"><path id="Shape" d="m25.144 25.048 1.366-1.366-5.604-5.604-2.802 2.802 5.604 5.604z" fill="#547580"/><path id="Shape" d="m34.952 34.856 1.366-1.366 5.604 5.604-2.802 2.802-5.604-5.604z" fill="#547580"/><path id="Shape" d="m58.42 11.39-2.1 2.1-9.81-9.81 2.1-2.1c.774584-.76984677 2.025416-.76984677 2.8 0l7.01 7.01c.7698468.77458403.7698468 2.025416 0 2.8z" fill="#2980ba"/><path id="Shape" d="m56.32 13.49-21.37 21.36c-.4713612.4837206-.7701121 1.10934-.85 1.78l-.47 4.23c-.0324645.3118606-.1169684.6160747-.25.9l-15.14-15.14c.2839253-.1330316.5881394-.2175355.9-.25l4.23-.47c.67066-.0798879 1.2962794-.3786388 1.78-.85l21.36-21.37z" fill="#3b97d3"/><path id="Shape" d="m33.38 41.76c-.1410362.3265273-.3449036.6221349-.6.87l-4.17 4.17-15.41-15.41 4.17-4.17c.2478651-.2550964.5434727-.4589638.87-.6z" fill="#2980ba"/><path id="Rectangle-path" d="m9.555 32.903h13.301v21.793h-13.301z" fill="#3b97d3" transform="matrix(.707 -.707 .707 .707 -26.235 24.31)"/><path id="Shape" d="m19.21 56.21-1.93 1.92c-.5568442.5571626-1.3122782.8702001-2.1.8702001s-1.5431558-.3130375-2.1-.8702001l-11.21-11.21c-.55716262-.5568442-.8702001-1.3122782-.8702001-2.1s.31303748-1.5431558.8702001-2.1l1.93-1.92z" fill="#285680"/><rect id="Rectangle-path" fill="#9fc9d3" height="29.685" rx="1" transform="matrix(.707 .707 -.707 .707 15.288 -6.332)" width="11.889" x="9.344" y=".446"/><path id="Shape" d="m34.216 30.987c-.2651948-.0000566-.5195073-.1054506-.707-.293l-4.2-4.2c-.2599566-.2510745-.3642126-.6228779-.2726972-.9725073.0915155-.3496295.3645604-.6226744.7141899-.7141899.3496294-.0915154.7214328.0127406.9725073.2726972l4.2 4.2c.2859079.2859943.3714219.7160366.216678 1.0896546-.1547439.3736179-.5192821.6172591-.923678.6173454z" fill="#2980ba"/><path id="Shape" d="m26.517 5.474-1.414-1.414-3.523 3.522-3.496-3.496-1.414 1.414 3.496 3.496-2.789 2.789-3.496-3.496-1.414 1.414 3.496 3.496-2.764 2.764-3.496-3.496-1.414 1.414 3.496 3.496-2.789 2.789-3.496-3.496-1.414 1.414 3.496 3.496-3.496 3.497 1.414 1.414 3.496-3.497 3.497 3.497 1.414-1.414-3.497-3.497 2.789-2.789 3.497 3.497 1.414-1.414-3.496-3.497 2.763-2.763 3.497 3.496 1.414-1.414-3.497-3.497 2.789-2.789 3.497 3.497 1.414-1.414-3.497-3.497z" fill="#84b5cb"/><rect id="Rectangle-path" fill="#9fc9d3" height="29.685" rx="1" transform="matrix(.707 .707 -.707 .707 44.712 -18.52)" width="11.889" x="38.768" y="29.869"/><path id="Shape" d="m55.94 34.897-1.414-1.414-3.522 3.523-3.496-3.497-1.415 1.414 3.497 3.497-2.789 2.789-3.497-3.497-1.414 1.414 3.497 3.497-2.764 2.764-3.497-3.497-1.414 1.414 3.497 3.497-2.789 2.789-3.497-3.497-1.414 1.414 3.497 3.497-3.497 3.496 1.414 1.414 3.497-3.496 3.496 3.496 1.414-1.414-3.496-3.496 2.789-2.789 3.496 3.496 1.414-1.414-3.496-3.496 2.764-2.764 3.496 3.496 1.414-1.414-3.496-3.496 2.789-2.789 3.496 3.496 1.414-1.414-3.496-3.496z" fill="#84b5cb"/></g></g></svg>