<svg width="34" height="35" viewBox="0 0 34 35" fill="none" xmlns="http://www.w3.org/2000/svg">
<g clip-path="url(#clip0_82_712)">
<path d="M10.7491 0.483398C4.98255 0.483398 0.306641 2.56029 0.306641 5.1245V24.8492C0.306641 27.4134 4.98255 29.4903 10.7491 29.4903C16.5157 29.4903 21.1916 27.4134 21.1916 24.8492V5.1245C21.1916 2.56029 16.5157 0.483398 10.7491 0.483398Z" fill="#8697CB"/>
<path d="M10.7491 8.60534C14.9143 8.60534 18.2909 7.30665 18.2909 5.70465C18.2909 4.10264 14.9143 2.80396 10.7491 2.80396C6.58385 2.80396 3.20728 4.10264 3.20728 5.70465C3.20728 7.30665 6.58385 8.60534 10.7491 8.60534Z" fill="#556080"/>
<path d="M21.1916 20.2081V24.8492C21.1916 27.4134 16.5157 29.4903 10.7491 29.4903C4.98255 29.4903 0.306641 27.4134 0.306641 24.8492V20.2081C0.306641 22.7723 4.98255 24.8492 10.7491 24.8492C16.5157 24.8492 21.1916 22.7723 21.1916 20.2081Z" fill="#556080"/>
<path d="M21.1916 9.76562V14.9869C21.1916 17.5511 16.5157 19.628 10.7491 19.628C4.98255 19.628 0.306641 17.5511 0.306641 14.9869V9.76562C0.306641 12.3298 4.98255 14.4067 10.7491 14.4067C16.5157 14.4067 21.1916 12.3298 21.1916 9.76562Z" fill="#556080"/>
<path d="M32.7944 21.3684H16.5505C15.9097 21.3684 15.3903 21.8879 15.3903 22.5287V32.9712C15.3903 33.612 15.9097 34.1314 16.5505 34.1314H32.7944C33.4352 34.1314 33.9547 33.612 33.9547 32.9712V22.5287C33.9547 21.8879 33.4352 21.3684 32.7944 21.3684Z" fill="#F3D55B"/>
<path d="M19.7413 25.4293H21.1916C21.512 25.4293 21.7718 25.1696 21.7718 24.8492C21.7718 24.5288 21.512 24.269 21.1916 24.269H19.7413C18.6199 24.269 17.7108 25.1781 17.7108 26.2995C17.7108 27.4209 18.6199 28.33 19.7413 28.33C20.2219 28.33 20.6115 28.7196 20.6115 29.2002C20.6115 29.6808 20.2219 30.0704 19.7413 30.0704H18.291C17.9706 30.0704 17.7108 30.3302 17.7108 30.6506C17.7108 30.971 17.9706 31.2307 18.291 31.2307H19.7413C20.8627 31.2307 21.7718 30.3216 21.7718 29.2002C21.7718 28.0788 20.8627 27.1697 19.7413 27.1697C19.2607 27.1697 18.8711 26.7801 18.8711 26.2995C18.8711 25.8189 19.2607 25.4293 19.7413 25.4293Z" fill="#E57E25"/>
<path d="M27.4299 29.687C27.522 29.4382 27.5705 29.1754 27.5731 28.9101V26.5896C27.5731 25.308 26.5342 24.269 25.2526 24.269C23.971 24.269 22.932 25.308 22.932 26.5896V28.9101C22.9272 29.8182 23.4552 30.6448 24.2812 31.0221C25.1072 31.3995 26.0777 31.2575 26.761 30.6593L27.163 31.0607C27.3906 31.2806 27.7525 31.2774 27.9762 31.0537C28.2 30.8299 28.2032 30.468 27.9833 30.2404L27.4299 29.687ZM25.2526 30.0704C24.6118 30.0704 24.0923 29.551 24.0923 28.9101V26.5896C24.0923 25.9488 24.6118 25.4293 25.2526 25.4293C25.8934 25.4293 26.4129 25.9488 26.4129 26.5896V28.67L26.2429 28.5C26.0153 28.2801 25.6534 28.2833 25.4296 28.5071C25.2059 28.7308 25.2027 29.0927 25.4226 29.3203L25.9412 29.8389C25.7427 29.9884 25.5011 30.0696 25.2526 30.0704Z" fill="#E57E25"/>
<path d="M31.6342 30.0704H30.4739V24.8492C30.4739 24.5288 30.2141 24.269 29.8937 24.269C29.5733 24.269 29.3136 24.5288 29.3136 24.8492V30.6506C29.3136 30.971 29.5733 31.2307 29.8937 31.2307H31.6342C31.9546 31.2307 32.2143 30.971 32.2143 30.6506C32.2143 30.3302 31.9546 30.0704 31.6342 30.0704Z" fill="#E57E25"/>
</g>
<defs>
<clipPath id="clip0_82_712">
<rect width="33.648" height="33.648" fill="white" transform="translate(0.306641 0.483398)"/>
</clipPath>
</defs>
</svg>
