<svg clip-rule="evenodd" fill-rule="evenodd" stroke-linejoin="round" stroke-miterlimit="2" viewBox="0 0 510 510" xmlns="http://www.w3.org/2000/svg"><g><g><g><path d="m114.88 15.792h362.535c9.479 0 17.296 7.72 17.296 17.198v281.722c0 9.479-7.817 17.296-17.296 17.296h-362.535c-9.576 0-17.296-7.817-17.296-17.296v-281.722c0-9.478 7.72-17.198 17.296-17.198z" fill="#eceff1"/><path d="m460.901 15.792h16.514c9.479 0 17.296 7.72 17.296 17.198v281.722c0 9.479-7.817 17.296-17.296 17.296h-16.514c9.576 0 17.296-7.817 17.296-17.296v-281.722c0-9.478-7.72-17.198-17.296-17.198z" fill="#d1d1d6"/><path d="m114.88 15.792h362.535c9.479 0 17.296 7.72 17.296 17.198v44.462h-397.127v-44.462c0-9.478 7.72-17.198 17.296-17.198z" fill="#a79ba7"/><path d="m460.901 15.792h16.514c9.479 0 17.296 7.72 17.296 17.198v44.462h-16.514v-44.462c0-9.478-7.72-17.198-17.296-17.198z" fill="#837683"/></g><g><path d="m467.233 208.75v-83.133c0-9.133-7.453-16.586-16.586-16.586h-121.493c-9.134 0-16.587 7.453-16.587 16.586v83.133c0 9.133 7.453 16.586 16.587 16.586h14.038v21.007c0 4.64 5.644 6.905 8.85 3.562l23.61-24.569h74.995c9.133 0 16.586-7.453 16.586-16.586z" fill="#ffe177"/><path d="m467.233 208.75v-83.133c0-9.133-7.453-16.586-16.586-16.586h-10.285c9.134 0 16.587 7.453 16.587 16.586v83.133c0 9.133-7.453 16.586-16.587 16.586h10.285c9.133 0 16.586-7.453 16.586-16.586zm-123.74 39.356c1.197 3.388 5.782 4.685 8.549 1.808l23.61-24.578h-10.284z" fill="#ffd064"/></g><g><path d="m350.568 320.22v58.54c0 4.038-3.279 7.317-7.317 7.317h-314.078c-4.038 0-7.317-3.279-7.317-7.317v-58.54c0-4.038 3.279-7.317 7.317-7.317h314.078c4.038 0 7.317 3.279 7.317 7.317z" fill="#8192a5"/><path d="m340.568 312.903h2.683c4.038 0 7.317 3.279 7.317 7.317v58.54c0 4.038-3.279 7.317-7.317 7.317h-314.078c-4.038 0-7.317-3.279-7.317-7.317v-2.683h311.395c4.038 0 7.317-3.279 7.317-7.317z" fill="#65788e"/><g><path d="m318.5 415.647c0 15.635-12.756 28.348-28.39 28.348h-207.796c-15.634 0-28.39-12.713-28.39-28.348v-142.209c0-15.634 12.756-28.391 28.39-28.391h207.796c15.634 0 28.39 12.757 28.39 28.391z" fill="#9facba"/><path d="m275.11 245.047h15c15.634 0 28.39 12.757 28.39 28.391v142.209c0 15.635-12.756 28.348-28.39 28.348h-15c15.634 0 28.39-12.713 28.39-28.348v-142.209c0-15.634-12.756-28.391-28.39-28.391z" fill="#8d9ca8"/></g><circle cx="34.303" cy="199.279" fill="#ffe177" r="19.014"/><path d="m29.303 180.931c1.593-.434 3.27-.666 5-.666 10.494 0 19.013 8.52 19.013 19.014s-8.519 19.014-19.013 19.014c-1.73 0-3.407-.232-5-.666 8.071-2.197 14.013-9.584 14.013-18.348s-5.942-16.151-14.013-18.348z" fill="#ffd064"/><path d="m232.108 480.332c0 7.658-6.218 13.876-13.876 13.876h-25.127c-7.659 0-13.876-6.218-13.876-13.876s6.217-13.876 13.876-13.876h25.127c7.658 0 13.876 6.218 13.876 13.876z" fill="#ffe177"/><path d="m225.22 468.344c4.119 2.408 6.888 6.877 6.888 11.988 0 7.658-6.218 13.876-13.876 13.876h-25.127c-5.111 0-9.581-2.769-11.988-6.888 2.052 1.2 4.44 1.888 6.988 1.888h25.127c7.658 0 13.876-6.218 13.876-13.876 0-2.547-.688-4.935-1.888-6.988z" fill="#ffd064"/><g fill="#eceff1"><path d="m226.233 368.446c-.898 22.422-19.336 40.137-41.777 40.137-22.44 0-40.878-17.715-41.776-40.137z"/><circle cx="141.139" cy="311.568" r="20.44"/><circle cx="236.203" cy="311.568" r="20.44"/></g></g></g><path d="m103.748 85.04v136.95c0 4.415-3.585 8-8 8-4.416 0-8-3.585-8-8v-189.603c0-13.96 11.427-25.387 25.386-25.387h364.502c13.962 0 25.364 11.424 25.364 25.387v283.159c0 13.932-11.399 25.364-25.364 25.364h-102.403c-4.415 0-8-3.585-8-8 0-4.416 3.585-8 8-8h102.403c5.156 0 9.364-4.221 9.364-9.364v-230.506zm383.252-16v-36.653c0-5.159-4.205-9.387-9.364-9.387h-364.502c-5.161 0-9.386 4.225-9.386 9.387v36.653zm-305.027-12.878c-5.59 0-10.153-4.541-10.153-10.131s4.563-10.153 10.153-10.153 10.131 4.563 10.131 10.153-4.541 10.131-10.131 10.131zm-38.971 0c-5.591 0-10.154-4.541-10.154-10.131s4.563-10.153 10.154-10.153c5.59 0 10.153 4.563 10.153 10.153s-4.563 10.131-10.153 10.131zm77.92 0c-5.59 0-10.154-4.541-10.154-10.131s4.564-10.153 10.154-10.153 10.153 4.563 10.153 10.153-4.563 10.131-10.153 10.131zm-194.908 169.716c-11.009-3.413-19.014-13.682-19.014-25.807 0-14.909 12.104-27.014 27.014-27.014 14.909 0 27.013 12.105 27.013 27.014 0 12.125-8.005 22.394-19.013 25.807v79.817h3.621v-31.466c0-20.039 16.351-36.39 36.39-36.39h207.796c20.039 0 36.39 16.351 36.39 36.39v31.466h16.751c8.454 0 15.317 6.863 15.317 15.317v58.54c0 7.119-4.867 13.11-11.453 14.825v71.19c0 6.247-2.482 12.239-6.9 16.657-4.417 4.418-10.409 6.9-16.657 6.9h-84.961c-3.197 8.122-11.114 13.876-20.365 13.876h-25.127c-12.074 0-21.876-9.802-21.876-21.876s9.802-21.876 21.876-21.876h25.127c9.251 0 17.168 5.754 20.365 13.876h84.961c2.004 0 3.926-.796 5.344-2.214 1.417-1.417 2.213-3.339 2.213-5.343v-70.698h-4.615v21.57c0 20.043-16.347 36.348-36.39 36.348h-207.796c-20.043 0-36.39-16.305-36.39-36.348v-21.57h-16.751c-8.453 0-15.317-6.863-15.317-15.317v-58.54c0-7.473 5.363-13.703 12.447-15.048zm19.621 95.817h-16.068v57.174h16.068zm280.576 0v57.174h16.068v-57.174zm-292.197-132.638c-6.079 0-11.014 4.935-11.014 11.014s4.935 11.014 11.014 11.014c6.078 0 11.013-4.935 11.013-11.014s-4.935-11.014-11.013-11.014zm276.197 227.382v-142.21c0-11.228-9.161-20.39-20.39-20.39h-207.796c-11.228 0-20.39 9.162-20.39 20.39v142.21c0 11.226 9.165 20.348 20.39 20.348h207.796c11.225 0 20.39-9.122 20.39-20.348zm-74.297-132.519c15.697 0 28.44 12.744 28.44 28.44 0 15.697-12.743 28.44-28.44 28.44-15.696 0-28.44-12.743-28.44-28.44 0-15.696 12.744-28.44 28.44-28.44zm0 16c-6.865 0-12.44 5.575-12.44 12.44 0 6.866 5.575 12.44 12.44 12.44 6.866 0 12.44-5.574 12.44-12.44 0-6.865-5.574-12.44-12.44-12.44zm-1.976 69.638c-1.07 26.712-23.036 47.817-49.771 47.817-26.734 0-48.7-21.105-49.77-47.817-.087-2.176.717-4.293 2.225-5.863 1.509-1.57 3.592-2.457 5.769-2.457h83.553c2.177 0 4.26.887 5.769 2.457 1.508 1.57 2.312 3.687 2.225 5.863zm-17.366 7.68s-64.809 0-64.809-.001c4.172 14.007 17.144 24.138 32.404 24.138 15.261 0 28.233-10.131 32.405-24.137zm-75.722-93.318c15.696 0 28.44 12.744 28.44 28.44 0 15.697-12.744 28.44-28.44 28.44-15.697 0-28.44-12.743-28.44-28.44 0-15.696 12.743-28.44 28.44-28.44zm0 16c-6.866 0-12.44 5.575-12.44 12.44 0 6.866 5.574 12.44 12.44 12.44s12.44-5.574 12.44-12.44c0-6.865-5.574-12.44-12.44-12.44zm82.969 181.204c0-3.243-2.633-5.876-5.876-5.876h-25.127c-3.243 0-5.876 2.633-5.876 5.876s2.633 5.876 5.876 5.876h25.127c3.243 0 5.876-2.633 5.876-5.876zm249.711-271.321c0 13.399-10.927 24.301-24.326 24.301h-70.342l-29.574 30.787c-2.262 2.355-5.728 3.098-8.757 1.879-3.028-1.219-5.013-4.156-5.013-7.421v-25.245h-5.806c-13.399 0-24.326-10.902-24.326-24.301v-81.777c0-13.396 10.93-24.326 24.326-24.326h119.492c13.396 0 24.326 10.93 24.326 24.326zm-16 0v-81.777c0-4.585-3.741-8.326-8.326-8.326h-119.492c-4.585 0-8.326 3.741-8.326 8.326v81.777c0 4.582 3.744 8.301 8.326 8.301h13.806c4.419 0 8 3.582 8 8v13.369l18.167-18.911c1.508-1.57 3.591-2.458 5.769-2.458h73.75c4.582 0 8.326-3.719 8.326-8.301zm-67.075-15.863c4.692 0 8.501 3.809 8.501 8.5 0 4.692-3.809 8.501-8.501 8.501-4.691 0-8.5-3.809-8.5-8.501 0-4.691 3.809-8.5 8.5-8.5zm8.392-11.422c-.259 4.407-4.047 7.775-8.455 7.516s-7.776-4.048-7.517-8.455c.446-7.586 4.279-13.035 9.109-17.716 2.016-1.953 4.203-3.754 6.099-5.665 1.381-1.393 2.812-2.704 2.812-4.753 0-6.317-5.12-11.437-11.437-11.437s-11.437 5.12-11.437 11.437c0 4.415-3.585 8-8 8s-8-3.585-8-8c0-15.153 12.284-27.437 27.437-27.437s27.437 12.284 27.437 27.437c0 7.103-3.605 12.391-8.606 17.149-1.94 1.845-4.094 3.619-6.003 5.59-1.681 1.736-3.278 3.6-3.439 6.334z"/></g></svg>