<svg width="34" height="35" viewBox="0 0 34 35" fill="none" xmlns="http://www.w3.org/2000/svg">
<path d="M32.0728 6.54036L17.9661 32.2027C17.6748 32.7326 16.9265 32.7357 16.6309 32.2084L2.24457 6.54275C1.92245 5.96825 2.4054 5.27227 3.04542 5.38875L17.1672 7.95655C17.2573 7.97293 17.3496 7.97277 17.4396 7.95608L31.2661 5.39233C31.904 5.27406 32.3892 5.96467 32.0728 6.54036V6.54036Z" fill="url(#paint0_linear_82_821)"/>
<path d="M23.8941 2.02035L13.4548 4.10138C13.3714 4.118 13.2958 4.16236 13.2399 4.22747C13.184 4.29258 13.1509 4.37475 13.1459 4.46107L12.5037 15.4947C12.5002 15.5552 12.5106 15.6157 12.5341 15.6714C12.5575 15.7271 12.5934 15.7765 12.639 15.8156C12.6845 15.8548 12.7383 15.8826 12.7962 15.8968C12.8541 15.9111 12.9145 15.9114 12.9726 15.8978L15.8791 15.2154C16.151 15.1516 16.3967 15.3953 16.3408 15.6734L15.4773 19.9752C15.4192 20.2648 15.6863 20.5123 15.9642 20.4263L17.7595 19.8715C18.0377 19.7856 18.3052 20.0338 18.2463 20.3236L16.8741 27.0807C16.7882 27.5034 17.3408 27.7338 17.5712 27.3715L17.7252 27.1295L26.2318 9.85876C26.3743 9.56961 26.1285 9.23987 25.8165 9.30121L22.8246 9.8886C22.5436 9.94373 22.3044 9.67737 22.3837 9.39764L24.3363 2.51119C24.4158 2.23074 24.1756 1.96426 23.8942 2.02035H23.8941Z" fill="url(#paint1_linear_82_821)"/>
<defs>
<linearGradient id="paint0_linear_82_821" x1="1.89332" y1="7.4592" x2="17.448" y2="28.2239" gradientUnits="userSpaceOnUse">
<stop stop-color="#41D1FF"/>
<stop offset="1" stop-color="#BD34FE"/>
</linearGradient>
<linearGradient id="paint1_linear_82_821" x1="18.476" y1="2.58539" x2="21.7129" y2="24.4114" gradientUnits="userSpaceOnUse">
<stop stop-color="#FFEA83"/>
<stop offset="0.083" stop-color="#FFDD35"/>
<stop offset="1" stop-color="#FFA800"/>
</linearGradient>
</defs>
</svg>
